<?xml version="1.0" encoding="utf-8" standalone="no"?>
<!DOCTYPE svg PUBLIC "-//W3C//DTD SVG 1.1//EN"
  "http://www.w3.org/Graphics/SVG/1.1/DTD/svg11.dtd">
<svg xmlns:xlink="http://www.w3.org/1999/xlink" width="229.43952pt" height="287.93952pt" viewBox="0 0 229.43952 287.93952" xmlns="http://www.w3.org/2000/svg" version="1.1">
 <metadata>
  <rdf:RDF xmlns:dc="http://purl.org/dc/elements/1.1/" xmlns:cc="http://creativecommons.org/ns#" xmlns:rdf="http://www.w3.org/1999/02/22-rdf-syntax-ns#">
   <cc:Work>
    <dc:type rdf:resource="http://purl.org/dc/dcmitype/StillImage"/>
    <dc:date>2022-10-14T09:34:10.467306</dc:date>
    <dc:format>image/svg+xml</dc:format>
    <dc:creator>
     <cc:Agent>
      <dc:title>Matplotlib v3.6.0, https://matplotlib.org/</dc:title>
     </cc:Agent>
    </dc:creator>
   </cc:Work>
  </rdf:RDF>
 </metadata>
 <defs>
  <style type="text/css">*{stroke-linejoin: round; stroke-linecap: butt}</style>
 </defs>
 <g id="figure_1">
  <g id="patch_1">
   <path d="M 0 287.93952 
L 229.43952 287.93952 
L 229.43952 0 
L 0 0 
z
" style="fill: #ffffff"/>
  </g>
  <g id="axes_1">
   <g id="patch_2">
    <path d="M 42.179188 62.427205 
L 228.71952 62.427205 
L 228.71952 0.72 
L 42.179188 0.72 
z
" style="fill: #ffffff"/>
   </g>
   <g id="matplotlib.axis_1">
    <g id="xtick_1">
     <g id="line2d_1">
      <defs>
       <path id="m07d59e1f0e" d="M 0 0 
L 0 3.5 
" style="stroke: #000000; stroke-width: 0.8"/>
      </defs>
      <g>
       <use xlink:href="#m07d59e1f0e" x="60.079523" y="62.427205" style="stroke: #000000; stroke-width: 0.8"/>
      </g>
     </g>
    </g>
    <g id="xtick_2">
     <g id="line2d_2">
      <g>
       <use xlink:href="#m07d59e1f0e" x="97.764438" y="62.427205" style="stroke: #000000; stroke-width: 0.8"/>
      </g>
     </g>
    </g>
    <g id="xtick_3">
     <g id="line2d_3">
      <g>
       <use xlink:href="#m07d59e1f0e" x="135.449354" y="62.427205" style="stroke: #000000; stroke-width: 0.8"/>
      </g>
     </g>
    </g>
    <g id="xtick_4">
     <g id="line2d_4">
      <g>
       <use xlink:href="#m07d59e1f0e" x="173.13427" y="62.427205" style="stroke: #000000; stroke-width: 0.8"/>
      </g>
     </g>
    </g>
    <g id="xtick_5">
     <g id="line2d_5">
      <g>
       <use xlink:href="#m07d59e1f0e" x="210.819185" y="62.427205" style="stroke: #000000; stroke-width: 0.8"/>
      </g>
     </g>
    </g>
   </g>
   <g id="matplotlib.axis_2">
    <g id="ytick_1">
     <g id="line2d_6">
      <defs>
       <path id="m441f38540d" d="M 0 0 
L -3.5 0 
" style="stroke: #000000; stroke-width: 0.8"/>
      </defs>
      <g>
       <use xlink:href="#m441f38540d" x="42.179188" y="58.506879" style="stroke: #000000; stroke-width: 0.8"/>
      </g>
     </g>
     <g id="text_1">
      <!-- $\mathdefault{12}$ -->
      <g transform="translate(25.216548 61.966159) scale(0.1 -0.1)">
       <defs>
        <path id="LMRoman17-Regular-31" d="M 2458 0 
L 2458 160 
L 2266 160 
C 1715 160 1702 230 1702 458 
L 1702 4058 
C 1702 4192 1696 4192 1606 4192 
C 1357 3916 979 3827 621 3827 
C 602 3827 570 3827 563 3808 
C 557 3795 557 3782 557 3648 
C 755 3648 1088 3686 1344 3839 
L 1344 461 
C 1344 236 1331 160 781 160 
L 589 160 
L 589 0 
L 1523 0 
L 2458 0 
z
" transform="scale(0.015625)"/>
        <path id="LMRoman17-Regular-32" d="M 2669 989 
L 2554 989 
C 2490 536 2438 459 2413 420 
C 2381 369 1920 369 1830 369 
L 602 369 
L 1824 1597 
C 2214 1967 2669 2402 2669 3035 
C 2669 3790 2067 4224 1395 4224 
C 691 4224 262 3604 262 3030 
C 262 2780 448 2748 525 2748 
C 589 2748 781 2787 781 3010 
C 781 3207 614 3264 525 3264 
C 486 3264 448 3258 422 3245 
C 544 3790 915 4058 1306 4058 
C 1862 4058 2227 3617 2227 3035 
C 2227 2479 1901 2000 1536 1584 
L 262 146 
L 262 0 
L 2515 0 
L 2669 989 
z
" transform="scale(0.015625)"/>
       </defs>
       <use xlink:href="#LMRoman17-Regular-31" transform="scale(0.996264)"/>
       <use xlink:href="#LMRoman17-Regular-32" transform="translate(45.690948 0) scale(0.996264)"/>
      </g>
     </g>
    </g>
    <g id="ytick_2">
     <g id="line2d_7">
      <g>
       <use xlink:href="#m441f38540d" x="42.179188" y="37.286208" style="stroke: #000000; stroke-width: 0.8"/>
      </g>
     </g>
     <g id="text_2">
      <!-- $\mathdefault{13}$ -->
      <g transform="translate(25.216548 40.745487) scale(0.1 -0.1)">
       <defs>
        <path id="LMRoman17-Regular-33" d="M 2720 1085 
C 2720 1707 2208 2157 1600 2227 
C 2086 2328 2554 2756 2554 3329 
C 2554 3820 2048 4179 1472 4179 
C 890 4179 378 3829 378 3329 
C 378 3110 544 3072 627 3072 
C 762 3072 877 3155 877 3321 
C 877 3486 762 3569 627 3569 
C 602 3569 570 3569 544 3557 
C 730 3959 1235 4032 1459 4032 
C 1683 4032 2106 3925 2106 3320 
C 2106 3143 2080 2828 1862 2550 
C 1670 2304 1453 2304 1242 2284 
C 1210 2284 1062 2269 1037 2269 
C 992 2263 966 2257 966 2208 
C 966 2163 973 2157 1101 2157 
L 1414 2157 
C 1984 2157 2234 1662 2234 1090 
C 2234 320 1824 25 1453 25 
C 1114 25 563 194 390 693 
C 422 680 454 680 486 680 
C 640 680 755 782 755 948 
C 755 1133 614 1216 486 1216 
C 378 1216 211 1165 211 926 
C 211 335 787 -128 1466 -128 
C 2176 -128 2720 430 2720 1085 
z
" transform="scale(0.015625)"/>
       </defs>
       <use xlink:href="#LMRoman17-Regular-31" transform="scale(0.996264)"/>
       <use xlink:href="#LMRoman17-Regular-33" transform="translate(45.690948 0) scale(0.996264)"/>
      </g>
     </g>
    </g>
    <g id="ytick_3">
     <g id="line2d_8">
      <g>
       <use xlink:href="#m441f38540d" x="42.179188" y="16.065536" style="stroke: #000000; stroke-width: 0.8"/>
      </g>
     </g>
     <g id="text_3">
      <!-- $\mathdefault{14}$ -->
      <g transform="translate(25.216548 19.524816) scale(0.1 -0.1)">
       <defs>
        <path id="LMRoman17-Regular-34" d="M 2803 1114 
L 2803 1280 
L 2150 1280 
L 2150 4154 
C 2150 4288 2144 4288 2029 4288 
L 128 1280 
L 128 1114 
L 1779 1114 
L 1779 487 
C 1779 255 1766 192 1318 192 
L 1197 192 
L 1197 32 
C 1402 32 1747 32 1965 32 
C 2182 32 2528 32 2733 32 
L 2733 192 
L 2611 192 
C 2163 192 2150 255 2150 487 
L 2150 1114 
L 2803 1114 
z
M 1798 1280 
L 256 1280 
L 1798 3734 
L 1798 1280 
z
" transform="scale(0.015625)"/>
       </defs>
       <use xlink:href="#LMRoman17-Regular-31" transform="scale(0.996264)"/>
       <use xlink:href="#LMRoman17-Regular-34" transform="translate(45.690948 0) scale(0.996264)"/>
      </g>
     </g>
    </g>
    <g id="text_4">
     <!-- $G(z)$ -->
     <g transform="translate(18.725888 41.90028) rotate(-90) scale(0.1 -0.1)">
      <defs>
       <path id="LMMathItalic12-Regular-47" d="M 4518 1664 
C 4518 1728 4454 1728 4435 1728 
C 4326 1728 4205 1728 4090 1728 
L 3744 1728 
L 2931 1728 
C 2874 1728 2797 1728 2797 1613 
C 2797 1549 2848 1543 2848 1543 
L 3008 1543 
C 3514 1543 3514 1491 3514 1397 
C 3514 1397 3392 749 3270 559 
C 3027 203 2522 57 2144 57 
C 1651 57 851 312 851 1410 
C 851 1836 1005 2808 1626 3526 
C 2029 3984 2624 4295 3187 4295 
C 3942 4295 4211 3653 4211 3068 
C 4211 2967 4186 2827 4186 2738 
C 4186 2681 4250 2681 4269 2681 
C 4339 2681 4346 2687 4371 2801 
L 4774 4423 
C 4774 4480 4717 4480 4717 4480 
C 4717 4480 4678 4480 4627 4416 
L 4186 3888 
C 4154 3939 4026 4162 3776 4309 
C 3501 4480 3226 4480 3130 4480 
C 1760 4480 320 3095 320 1595 
C 320 546 1050 -128 2010 -128 
C 2470 -128 3053 24 3373 425 
C 3443 184 3584 12 3629 12 
C 3661 12 3674 32 3674 32 
C 3680 44 3731 271 3763 387 
L 3866 801 
L 3987 1297 
C 4051 1543 4064 1543 4416 1543 
C 4442 1543 4518 1543 4518 1664 
z
" transform="scale(0.015625)"/>
       <path id="LMRoman17-Regular-28" d="M 1958 -1561 
C 1958 -1561 1958 -1542 1939 -1523 
C 1645 -1224 858 -407 858 1581 
C 858 3569 1632 4379 1946 4697 
C 1946 4697 1958 4717 1958 4736 
C 1958 4755 1939 4768 1914 4768 
C 1843 4768 1299 4296 986 3594 
C 666 2887 576 2199 576 1588 
C 576 1128 621 351 1005 -471 
C 1312 -1135 1837 -1600 1914 -1600 
C 1946 -1600 1958 -1587 1958 -1561 
z
" transform="scale(0.015625)"/>
       <path id="LMMathItalic12-Regular-7a" d="M 2726 876 
C 2726 903 2720 942 2656 942 
C 2605 942 2598 917 2579 855 
C 2438 488 2061 338 1811 338 
C 1677 338 1549 376 1414 425 
C 1158 512 1088 512 1005 512 
C 941 512 870 512 813 486 
C 1088 803 1312 1004 1632 1296 
C 2016 1632 2182 1793 2272 1891 
C 2720 2338 2944 2713 2944 2764 
C 2944 2816 2880 2816 2880 2816 
C 2835 2816 2822 2793 2790 2750 
C 2630 2494 2477 2367 2310 2367 
C 2176 2367 2106 2421 1984 2565 
C 1850 2715 1741 2816 1555 2816 
C 1088 2816 806 2257 806 2128 
C 806 2108 813 2068 870 2068 
C 922 2068 928 2091 947 2133 
C 1056 2372 1363 2414 1485 2414 
C 1619 2414 1747 2376 1882 2327 
C 2125 2240 2227 2240 2291 2240 
C 2336 2240 2362 2240 2394 2246 
C 2182 1994 1837 1683 1549 1418 
C 1139 1056 1030 939 902 816 
C 512 415 275 33 275 -12 
C 275 -51 307 -64 346 -64 
C 384 -64 390 -57 435 14 
C 538 163 742 384 979 384 
C 1114 384 1178 342 1306 193 
C 1427 61 1536 -64 1741 -64 
C 2368 -64 2726 732 2726 876 
z
" transform="scale(0.015625)"/>
       <path id="LMRoman17-Regular-29" d="M 1683 1581 
C 1683 2040 1638 2817 1254 3639 
C 947 4303 422 4768 346 4768 
C 326 4768 301 4761 301 4729 
C 301 4729 307 4710 314 4697 
C 621 4378 1402 3568 1402 1584 
C 1402 -407 627 -1217 314 -1537 
C 307 -1549 301 -1568 301 -1568 
C 301 -1600 326 -1600 346 -1600 
C 416 -1600 960 -1128 1274 -426 
C 1594 281 1683 969 1683 1581 
z
" transform="scale(0.015625)"/>
      </defs>
      <use xlink:href="#LMMathItalic12-Regular-47" transform="scale(0.996264)"/>
      <use xlink:href="#LMRoman17-Regular-28" transform="translate(76.946862 0) scale(0.996264)"/>
      <use xlink:href="#LMMathItalic12-Regular-7a" transform="translate(112.22839 0) scale(0.996264)"/>
      <use xlink:href="#LMRoman17-Regular-29" transform="translate(161.983535 0) scale(0.996264)"/>
     </g>
    </g>
   </g>
   <g id="LineCollection_1">
    <path d="M 60.079523 59.622333 
L 60.079523 3.524873 
" clip-path="url(#peb8b02ed9a)" style="fill: none; stroke-dasharray: 1,1.65; stroke-dashoffset: 0; stroke: #a9a9a9"/>
    <path d="M 97.764438 59.622333 
L 97.764438 3.524873 
" clip-path="url(#peb8b02ed9a)" style="fill: none; stroke-dasharray: 1,1.65; stroke-dashoffset: 0; stroke: #a9a9a9"/>
    <path d="M 135.449354 59.622333 
L 135.449354 3.524873 
" clip-path="url(#peb8b02ed9a)" style="fill: none; stroke-dasharray: 1,1.65; stroke-dashoffset: 0; stroke: #a9a9a9"/>
    <path d="M 173.13427 59.622333 
L 173.13427 3.524873 
" clip-path="url(#peb8b02ed9a)" style="fill: none; stroke-dasharray: 1,1.65; stroke-dashoffset: 0; stroke: #a9a9a9"/>
    <path d="M 210.819185 59.622333 
L 210.819185 3.524873 
" clip-path="url(#peb8b02ed9a)" style="fill: none; stroke-dasharray: 1,1.65; stroke-dashoffset: 0; stroke: #a9a9a9"/>
   </g>
   <g id="line2d_9">
    <path d="M 52.54254 3.524873 
L 54.217425 4.76488 
L 55.89231 6.000858 
L 57.567195 7.232806 
L 59.24208 8.460724 
L 60.079523 9.073173 
L 60.916966 9.618176 
L 62.591851 10.705159 
L 64.266736 11.788114 
L 65.941621 12.867038 
L 67.616506 13.941934 
L 69.291391 15.0128 
L 70.966276 16.079636 
L 72.641161 17.142443 
L 74.316047 18.201221 
L 75.990932 19.255969 
L 77.665817 20.306688 
L 79.340702 21.353377 
L 81.015587 22.396037 
L 82.690472 23.434668 
L 84.365357 24.469269 
L 86.040243 25.49984 
L 87.715128 26.526383 
L 89.390013 27.548895 
L 91.064898 28.567379 
L 92.739783 29.581832 
L 94.414668 30.592257 
L 96.089553 31.598652 
L 97.764438 32.601017 
L 97.764438 32.601017 
L 99.439324 33.499901 
L 101.114209 34.394756 
L 102.789094 35.285581 
L 104.463979 36.172376 
L 106.138864 37.055142 
L 107.813749 37.933879 
L 109.488634 38.808586 
L 111.16352 39.679264 
L 112.838405 40.545912 
L 114.51329 41.408531 
L 116.188175 42.26712 
L 117.86306 43.12168 
L 119.537945 43.972211 
L 121.21283 44.818712 
L 122.887716 45.661184 
L 124.562601 46.499626 
L 126.237486 47.334039 
L 127.912371 48.164422 
L 129.587256 48.990776 
L 131.262141 49.813101 
L 132.937026 50.631396 
L 134.611911 51.445661 
L 135.449354 51.851283 
L 136.286797 52.007319 
L 137.961682 52.316368 
L 139.636567 52.621387 
L 141.311452 52.922378 
L 142.986337 53.219338 
L 144.661222 53.51227 
L 146.336107 53.801171 
L 148.010993 54.086044 
L 149.685878 54.366887 
L 151.360763 54.6437 
L 153.035648 54.916484 
L 154.710533 55.185239 
L 156.385418 55.449964 
L 158.060303 55.71066 
L 159.735188 55.967326 
L 161.410074 56.219963 
L 163.084959 56.468571 
L 164.759844 56.713149 
L 166.434729 56.953697 
L 168.109614 57.190216 
L 169.784499 57.422706 
L 171.459384 57.651166 
L 173.13427 57.875597 
L 173.13427 57.875597 
L 174.809155 57.996546 
L 176.48404 58.113466 
L 178.158925 58.226356 
L 179.83381 58.335217 
L 181.508695 58.440049 
L 183.18358 58.54085 
L 184.858466 58.637623 
L 186.533351 58.730366 
L 188.208236 58.81908 
L 189.883121 58.903764 
L 191.558006 58.984419 
L 193.232891 59.061044 
L 194.907776 59.13364 
L 196.582661 59.202206 
L 198.257547 59.266743 
L 199.932432 59.327251 
L 201.607317 59.383729 
L 203.282202 59.436178 
L 204.957087 59.484597 
L 206.631972 59.528987 
L 208.306857 59.569347 
L 209.981743 59.605678 
L 210.819185 59.622333 
L 211.656628 59.571542 
L 213.331513 59.466938 
L 215.006398 59.358304 
L 216.681283 59.245641 
L 218.356168 59.128949 
" clip-path="url(#peb8b02ed9a)" style="fill: none; stroke: #000000; stroke-linecap: square"/>
   </g>
   <g id="patch_3">
    <path d="M 42.179188 62.427205 
L 42.179188 0.72 
" style="fill: none; stroke: #000000; stroke-width: 0.8; stroke-linejoin: miter; stroke-linecap: square"/>
   </g>
   <g id="patch_4">
    <path d="M 228.71952 62.427205 
L 228.71952 0.72 
" style="fill: none; stroke: #000000; stroke-width: 0.8; stroke-linejoin: miter; stroke-linecap: square"/>
   </g>
   <g id="patch_5">
    <path d="M 42.179188 62.427205 
L 228.71952 62.427205 
" style="fill: none; stroke: #000000; stroke-width: 0.8; stroke-linejoin: miter; stroke-linecap: square"/>
   </g>
   <g id="patch_6">
    <path d="M 42.179188 0.72 
L 228.71952 0.72 
" style="fill: none; stroke: #000000; stroke-width: 0.8; stroke-linejoin: miter; stroke-linecap: square"/>
   </g>
  </g>
  <g id="axes_2">
   <g id="patch_7">
    <path d="M 42.179188 258.508075 
L 228.71952 258.508075 
L 228.71952 73.386459 
L 42.179188 73.386459 
z
" style="fill: #ffffff"/>
   </g>
   <g id="matplotlib.axis_3">
    <g id="xtick_6">
     <g id="line2d_10">
      <g>
       <use xlink:href="#m07d59e1f0e" x="60.079523" y="258.508075" style="stroke: #000000; stroke-width: 0.8"/>
      </g>
     </g>
     <g id="text_5">
      <!-- $\mathdefault{−2}$ -->
      <g transform="translate(53.714491 272.426635) scale(0.1 -0.1)">
       <defs>
        <path id="LMMathSymbols10-Regular-0" d="M 4442 1600 
C 4442 1728 4320 1728 4230 1728 
L 742 1728 
C 653 1728 531 1728 531 1600 
C 531 1472 653 1472 742 1472 
L 4230 1472 
C 4320 1472 4442 1472 4442 1600 
z
" transform="scale(0.015625)"/>
       </defs>
       <use xlink:href="#LMMathSymbols10-Regular-0" transform="scale(0.996264)"/>
       <use xlink:href="#LMRoman17-Regular-32" transform="translate(77.487468 0) scale(0.996264)"/>
      </g>
     </g>
    </g>
    <g id="xtick_7">
     <g id="line2d_11">
      <g>
       <use xlink:href="#m07d59e1f0e" x="97.764438" y="258.508075" style="stroke: #000000; stroke-width: 0.8"/>
      </g>
     </g>
     <g id="text_6">
      <!-- $\mathdefault{−1}$ -->
      <g transform="translate(91.399407 272.426635) scale(0.1 -0.1)">
       <use xlink:href="#LMMathSymbols10-Regular-0" transform="scale(0.996264)"/>
       <use xlink:href="#LMRoman17-Regular-31" transform="translate(77.487468 0) scale(0.996264)"/>
      </g>
     </g>
    </g>
    <g id="xtick_8">
     <g id="line2d_12">
      <g>
       <use xlink:href="#m07d59e1f0e" x="135.449354" y="258.508075" style="stroke: #000000; stroke-width: 0.8"/>
      </g>
     </g>
     <g id="text_7">
      <!-- $\mathdefault{0}$ -->
      <g transform="translate(132.958694 272.426635) scale(0.1 -0.1)">
       <defs>
        <path id="LMRoman17-Regular-30" d="M 2688 2025 
C 2688 2416 2682 3080 2413 3591 
C 2176 4039 1798 4198 1466 4198 
C 1158 4198 768 4058 525 3597 
C 269 3118 243 2524 243 2025 
C 243 1661 250 1106 448 619 
C 723 -39 1216 -128 1466 -128 
C 1760 -128 2208 -7 2470 600 
C 2662 1042 2688 1559 2688 2025 
z
M 2278 2096 
C 2278 1680 2278 1169 2202 792 
C 2067 95 1690 -26 1466 -26 
C 1056 -26 813 325 723 812 
C 653 1188 653 1738 653 2096 
C 653 2588 653 2997 736 3387 
C 858 3929 1216 4096 1466 4096 
C 1728 4096 2067 3923 2189 3400 
C 2272 3036 2278 2607 2278 2096 
z
" transform="scale(0.015625)"/>
       </defs>
       <use xlink:href="#LMRoman17-Regular-30" transform="scale(0.996264)"/>
      </g>
     </g>
    </g>
    <g id="xtick_9">
     <g id="line2d_13">
      <g>
       <use xlink:href="#m07d59e1f0e" x="173.13427" y="258.508075" style="stroke: #000000; stroke-width: 0.8"/>
      </g>
     </g>
     <g id="text_8">
      <!-- $\mathdefault{1}$ -->
      <g transform="translate(170.64361 272.426635) scale(0.1 -0.1)">
       <use xlink:href="#LMRoman17-Regular-31" transform="scale(0.996264)"/>
      </g>
     </g>
    </g>
    <g id="xtick_10">
     <g id="line2d_14">
      <g>
       <use xlink:href="#m07d59e1f0e" x="210.819185" y="258.508075" style="stroke: #000000; stroke-width: 0.8"/>
      </g>
     </g>
     <g id="text_9">
      <!-- $\mathdefault{2}$ -->
      <g transform="translate(208.328525 272.426635) scale(0.1 -0.1)">
       <use xlink:href="#LMRoman17-Regular-32" transform="scale(0.996264)"/>
      </g>
     </g>
    </g>
    <g id="text_10">
     <!-- $z$ -->
     <g transform="translate(133.132792 285.282357) scale(0.1 -0.1)">
      <use xlink:href="#LMMathItalic12-Regular-7a" transform="scale(0.996264)"/>
     </g>
    </g>
   </g>
   <g id="matplotlib.axis_4">
    <g id="ytick_4">
     <g id="line2d_15">
      <g>
       <use xlink:href="#m441f38540d" x="42.179188" y="256.50482" style="stroke: #000000; stroke-width: 0.8"/>
      </g>
     </g>
     <g id="text_11">
      <!-- $\mathdefault{−1.5}$ -->
      <g transform="translate(14.700396 259.964099) scale(0.1 -0.1)">
       <defs>
        <path id="LMMathItalic12-Regular-3a" d="M 1178 307 
C 1178 492 1024 619 870 619 
C 685 619 557 466 557 313 
C 557 128 710 0 864 0 
C 1050 0 1178 153 1178 307 
z
" transform="scale(0.015625)"/>
        <path id="LMRoman17-Regular-35" d="M 2669 1264 
C 2669 2030 2170 2624 1549 2624 
C 1222 2624 947 2503 730 2274 
L 730 3692 
C 794 3666 1056 3584 1325 3584 
C 1920 3584 2246 3911 2432 4100 
C 2432 4157 2432 4192 2394 4192 
C 2394 4192 2374 4192 2323 4163 
C 2099 4058 1837 3973 1517 3973 
C 1325 3973 1037 3999 723 4139 
C 653 4171 634 4171 634 4171 
C 602 4171 595 4164 595 4037 
L 595 2203 
C 595 2089 595 2057 659 2057 
C 691 2057 704 2070 736 2114 
C 941 2401 1222 2522 1542 2522 
C 1766 2522 2246 2382 2246 1289 
C 2246 1085 2246 715 2054 421 
C 1894 159 1645 25 1370 25 
C 947 25 518 320 403 814 
C 429 807 480 795 506 795 
C 589 795 749 840 749 1038 
C 749 1210 627 1280 506 1280 
C 358 1280 262 1190 262 1011 
C 262 454 704 -128 1382 -128 
C 2042 -128 2669 440 2669 1264 
z
" transform="scale(0.015625)"/>
       </defs>
       <use xlink:href="#LMMathSymbols10-Regular-0" transform="scale(0.996264)"/>
       <use xlink:href="#LMRoman17-Regular-31" transform="translate(77.487468 0) scale(0.996264)"/>
       <use xlink:href="#LMMathItalic12-Regular-3a" transform="translate(123.178416 0) scale(0.996264)"/>
       <use xlink:href="#LMRoman17-Regular-35" transform="translate(150.275593 0) scale(0.996264)"/>
      </g>
     </g>
    </g>
    <g id="ytick_5">
     <g id="line2d_16">
      <g>
       <use xlink:href="#m441f38540d" x="42.179188" y="226.318969" style="stroke: #000000; stroke-width: 0.8"/>
      </g>
     </g>
     <g id="text_12">
      <!-- $\mathdefault{−1.0}$ -->
      <g transform="translate(14.700396 229.778249) scale(0.1 -0.1)">
       <use xlink:href="#LMMathSymbols10-Regular-0" transform="scale(0.996264)"/>
       <use xlink:href="#LMRoman17-Regular-31" transform="translate(77.487468 0) scale(0.996264)"/>
       <use xlink:href="#LMMathItalic12-Regular-3a" transform="translate(123.178416 0) scale(0.996264)"/>
       <use xlink:href="#LMRoman17-Regular-30" transform="translate(150.275593 0) scale(0.996264)"/>
      </g>
     </g>
    </g>
    <g id="ytick_6">
     <g id="line2d_17">
      <g>
       <use xlink:href="#m441f38540d" x="42.179188" y="196.133118" style="stroke: #000000; stroke-width: 0.8"/>
      </g>
     </g>
     <g id="text_13">
      <!-- $\mathdefault{−0.5}$ -->
      <g transform="translate(14.700396 199.592398) scale(0.1 -0.1)">
       <use xlink:href="#LMMathSymbols10-Regular-0" transform="scale(0.996264)"/>
       <use xlink:href="#LMRoman17-Regular-30" transform="translate(77.487468 0) scale(0.996264)"/>
       <use xlink:href="#LMMathItalic12-Regular-3a" transform="translate(123.178416 0) scale(0.996264)"/>
       <use xlink:href="#LMRoman17-Regular-35" transform="translate(150.275593 0) scale(0.996264)"/>
      </g>
     </g>
    </g>
    <g id="ytick_7">
     <g id="line2d_18">
      <g>
       <use xlink:href="#m441f38540d" x="42.179188" y="165.947267" style="stroke: #000000; stroke-width: 0.8"/>
      </g>
     </g>
     <g id="text_14">
      <!-- $\mathdefault{0.0}$ -->
      <g transform="translate(22.44914 169.406547) scale(0.1 -0.1)">
       <use xlink:href="#LMRoman17-Regular-30" transform="scale(0.996264)"/>
       <use xlink:href="#LMMathItalic12-Regular-3a" transform="translate(45.690948 0) scale(0.996264)"/>
       <use xlink:href="#LMRoman17-Regular-30" transform="translate(72.788125 0) scale(0.996264)"/>
      </g>
     </g>
    </g>
    <g id="ytick_8">
     <g id="line2d_19">
      <g>
       <use xlink:href="#m441f38540d" x="42.179188" y="135.761416" style="stroke: #000000; stroke-width: 0.8"/>
      </g>
     </g>
     <g id="text_15">
      <!-- $\mathdefault{0.5}$ -->
      <g transform="translate(22.44914 139.220696) scale(0.1 -0.1)">
       <use xlink:href="#LMRoman17-Regular-30" transform="scale(0.996264)"/>
       <use xlink:href="#LMMathItalic12-Regular-3a" transform="translate(45.690948 0) scale(0.996264)"/>
       <use xlink:href="#LMRoman17-Regular-35" transform="translate(72.788125 0) scale(0.996264)"/>
      </g>
     </g>
    </g>
    <g id="ytick_9">
     <g id="line2d_20">
      <g>
       <use xlink:href="#m441f38540d" x="42.179188" y="105.575565" style="stroke: #000000; stroke-width: 0.8"/>
      </g>
     </g>
     <g id="text_16">
      <!-- $\mathdefault{1.0}$ -->
      <g transform="translate(22.44914 109.034845) scale(0.1 -0.1)">
       <use xlink:href="#LMRoman17-Regular-31" transform="scale(0.996264)"/>
       <use xlink:href="#LMMathItalic12-Regular-3a" transform="translate(45.690948 0) scale(0.996264)"/>
       <use xlink:href="#LMRoman17-Regular-30" transform="translate(72.788125 0) scale(0.996264)"/>
      </g>
     </g>
    </g>
    <g id="ytick_10">
     <g id="line2d_21">
      <g>
       <use xlink:href="#m441f38540d" x="42.179188" y="75.389714" style="stroke: #000000; stroke-width: 0.8"/>
      </g>
     </g>
     <g id="text_17">
      <!-- $\mathdefault{1.5}$ -->
      <g transform="translate(22.44914 78.848994) scale(0.1 -0.1)">
       <use xlink:href="#LMRoman17-Regular-31" transform="scale(0.996264)"/>
       <use xlink:href="#LMMathItalic12-Regular-3a" transform="translate(45.690948 0) scale(0.996264)"/>
       <use xlink:href="#LMRoman17-Regular-35" transform="translate(72.788125 0) scale(0.996264)"/>
      </g>
     </g>
    </g>
    <g id="text_18">
     <!-- $G'(z)$ -->
     <g transform="translate(8.209736 177.671482) rotate(-90) scale(0.1 -0.1)">
      <defs>
       <path id="LMMathSymbols10-Regular-30" d="M 1632 3066 
C 1677 3162 1677 3219 1677 3245 
C 1677 3437 1498 3578 1318 3578 
C 1062 3578 1005 3366 979 3283 
L 205 493 
C 198 467 186 435 186 403 
C 186 333 352 288 403 288 
C 403 288 448 288 486 378 
L 1632 3066 
z
" transform="scale(0.015625)"/>
      </defs>
      <use xlink:href="#LMMathItalic12-Regular-47" transform="scale(0.996264)"/>
      <use xlink:href="#LMMathSymbols10-Regular-30" transform="translate(76.946862 36.153639) scale(0.697382)"/>
      <use xlink:href="#LMRoman17-Regular-28" transform="translate(96.622954 0) scale(0.996264)"/>
      <use xlink:href="#LMMathItalic12-Regular-7a" transform="translate(131.904482 0) scale(0.996264)"/>
      <use xlink:href="#LMRoman17-Regular-29" transform="translate(181.659627 0) scale(0.996264)"/>
     </g>
    </g>
   </g>
   <g id="LineCollection_2">
    <path d="M 60.079523 250.093456 
L 60.079523 81.801078 
" clip-path="url(#pc7b110e21c)" style="fill: none; stroke-dasharray: 1,1.65; stroke-dashoffset: 0; stroke: #a9a9a9"/>
    <path d="M 97.764438 250.093456 
L 97.764438 81.801078 
" clip-path="url(#pc7b110e21c)" style="fill: none; stroke-dasharray: 1,1.65; stroke-dashoffset: 0; stroke: #a9a9a9"/>
    <path d="M 135.449354 250.093456 
L 135.449354 81.801078 
" clip-path="url(#pc7b110e21c)" style="fill: none; stroke-dasharray: 1,1.65; stroke-dashoffset: 0; stroke: #a9a9a9"/>
    <path d="M 173.13427 250.093456 
L 173.13427 81.801078 
" clip-path="url(#pc7b110e21c)" style="fill: none; stroke-dasharray: 1,1.65; stroke-dashoffset: 0; stroke: #a9a9a9"/>
    <path d="M 210.819185 250.093456 
L 210.819185 81.801078 
" clip-path="url(#pc7b110e21c)" style="fill: none; stroke-dasharray: 1,1.65; stroke-dashoffset: 0; stroke: #a9a9a9"/>
   </g>
   <g id="LineCollection_3">
    <path d="M 52.54254 165.947267 
L 218.356168 165.947267 
" clip-path="url(#pc7b110e21c)" style="fill: none; stroke-dasharray: 3.7,1.6; stroke-dashoffset: 0; stroke: #808080"/>
   </g>
   <g id="line2d_22">
    <path d="M 50.658294 245.740894 
L 60.079485 244.290046 
" clip-path="url(#pc7b110e21c)" style="fill: none; stroke: #ff7f0e; stroke-linecap: square"/>
   </g>
   <g id="line2d_23">
    <path d="M 60.079523 235.784465 
L 97.764401 229.981054 
" clip-path="url(#pc7b110e21c)" style="fill: none; stroke: #ff7f0e; stroke-linecap: square"/>
   </g>
   <g id="line2d_24">
    <path d="M 97.764438 223.614977 
L 135.449316 217.811566 
" clip-path="url(#pc7b110e21c)" style="fill: none; stroke: #ff7f0e; stroke-linecap: square"/>
   </g>
   <g id="line2d_25">
    <path d="M 135.449354 185.987834 
L 173.134232 180.184423 
" clip-path="url(#pc7b110e21c)" style="fill: none; stroke: #ff7f0e; stroke-linecap: square"/>
   </g>
   <g id="line2d_26">
    <path d="M 173.13427 173.818346 
L 210.819147 168.014935 
" clip-path="url(#pc7b110e21c)" style="fill: none; stroke: #ff7f0e; stroke-linecap: square"/>
   </g>
   <g id="line2d_27">
    <path d="M 210.819185 159.509354 
L 220.240376 158.058506 
" clip-path="url(#pc7b110e21c)" style="fill: none; stroke: #ff7f0e; stroke-linecap: square"/>
   </g>
   <g id="line2d_28">
    <defs>
     <path id="m5203df8db2" d="M 0 2 
C 0.530406 2 1.03916 1.789267 1.414214 1.414214 
C 1.789267 1.03916 2 0.530406 2 0 
C 2 -0.530406 1.789267 -1.03916 1.414214 -1.414214 
C 1.03916 -1.789267 0.530406 -2 0 -2 
C -0.530406 -2 -1.03916 -1.789267 -1.414214 -1.414214 
C -1.789267 -1.03916 -2 -0.530406 -2 0 
C -2 0.530406 -1.789267 1.03916 -1.414214 1.414214 
C -1.03916 1.789267 -0.530406 2 0 2 
z
" style="stroke: #ff7f0e"/>
    </defs>
    <g clip-path="url(#pc7b110e21c)">
     <use xlink:href="#m5203df8db2" x="60.079523" y="235.784465" style="fill: #ff7f0e; stroke: #ff7f0e"/>
     <use xlink:href="#m5203df8db2" x="97.764438" y="223.614977" style="fill: #ff7f0e; stroke: #ff7f0e"/>
     <use xlink:href="#m5203df8db2" x="135.449354" y="185.987834" style="fill: #ff7f0e; stroke: #ff7f0e"/>
     <use xlink:href="#m5203df8db2" x="173.13427" y="173.818346" style="fill: #ff7f0e; stroke: #ff7f0e"/>
     <use xlink:href="#m5203df8db2" x="210.819185" y="159.509354" style="fill: #ff7f0e; stroke: #ff7f0e"/>
    </g>
   </g>
   <g id="line2d_29">
    <defs>
     <path id="m1b323be3cf" d="M 0 2 
C 0.530406 2 1.03916 1.789267 1.414214 1.414214 
C 1.789267 1.03916 2 0.530406 2 0 
C 2 -0.530406 1.789267 -1.03916 1.414214 -1.414214 
C 1.03916 -1.789267 0.530406 -2 0 -2 
C -0.530406 -2 -1.03916 -1.789267 -1.414214 -1.414214 
C -1.789267 -1.03916 -2 -0.530406 -2 0 
C -2 0.530406 -1.789267 1.03916 -1.414214 1.414214 
C -1.03916 1.789267 -0.530406 2 0 2 
z
" style="stroke: #ff7f0e"/>
    </defs>
    <g clip-path="url(#pc7b110e21c)">
     <use xlink:href="#m1b323be3cf" x="60.079485" y="244.290046" style="fill: #ffffff; stroke: #ff7f0e"/>
     <use xlink:href="#m1b323be3cf" x="97.764401" y="229.981054" style="fill: #ffffff; stroke: #ff7f0e"/>
     <use xlink:href="#m1b323be3cf" x="135.449316" y="217.811566" style="fill: #ffffff; stroke: #ff7f0e"/>
     <use xlink:href="#m1b323be3cf" x="173.134232" y="180.184423" style="fill: #ffffff; stroke: #ff7f0e"/>
     <use xlink:href="#m1b323be3cf" x="210.819147" y="168.014935" style="fill: #ffffff; stroke: #ff7f0e"/>
    </g>
   </g>
   <g id="line2d_30">
    <path d="M 50.658332 86.153646 
L 60.079523 87.604495 
" clip-path="url(#pc7b110e21c)" style="fill: none; stroke: #1f77b4; stroke-linecap: square"/>
   </g>
   <g id="line2d_31">
    <path d="M 60.079561 96.110075 
L 97.764438 101.913486 
" clip-path="url(#pc7b110e21c)" style="fill: none; stroke: #1f77b4; stroke-linecap: square"/>
   </g>
   <g id="line2d_32">
    <path d="M 97.764476 108.279563 
L 135.449354 114.082974 
" clip-path="url(#pc7b110e21c)" style="fill: none; stroke: #1f77b4; stroke-linecap: square"/>
   </g>
   <g id="line2d_33">
    <path d="M 135.449392 145.906706 
L 173.13427 151.710117 
" clip-path="url(#pc7b110e21c)" style="fill: none; stroke: #1f77b4; stroke-linecap: square"/>
   </g>
   <g id="line2d_34">
    <path d="M 173.134307 158.076194 
L 210.819185 163.879605 
" clip-path="url(#pc7b110e21c)" style="fill: none; stroke: #1f77b4; stroke-linecap: square"/>
   </g>
   <g id="line2d_35">
    <path d="M 210.819223 172.385186 
L 220.240414 173.836034 
" clip-path="url(#pc7b110e21c)" style="fill: none; stroke: #1f77b4; stroke-linecap: square"/>
   </g>
   <g id="line2d_36">
    <defs>
     <path id="me14a61c04f" d="M 0 2 
C 0.530406 2 1.03916 1.789267 1.414214 1.414214 
C 1.789267 1.03916 2 0.530406 2 0 
C 2 -0.530406 1.789267 -1.03916 1.414214 -1.414214 
C 1.03916 -1.789267 0.530406 -2 0 -2 
C -0.530406 -2 -1.03916 -1.789267 -1.414214 -1.414214 
C -1.789267 -1.03916 -2 -0.530406 -2 0 
C -2 0.530406 -1.789267 1.03916 -1.414214 1.414214 
C -1.03916 1.789267 -0.530406 2 0 2 
z
" style="stroke: #1f77b4"/>
    </defs>
    <g clip-path="url(#pc7b110e21c)">
     <use xlink:href="#me14a61c04f" x="60.079561" y="96.110075" style="fill: #ffffff; stroke: #1f77b4"/>
     <use xlink:href="#me14a61c04f" x="97.764476" y="108.279563" style="fill: #ffffff; stroke: #1f77b4"/>
     <use xlink:href="#me14a61c04f" x="135.449392" y="145.906706" style="fill: #ffffff; stroke: #1f77b4"/>
     <use xlink:href="#me14a61c04f" x="173.134307" y="158.076194" style="fill: #ffffff; stroke: #1f77b4"/>
     <use xlink:href="#me14a61c04f" x="210.819223" y="172.385186" style="fill: #ffffff; stroke: #1f77b4"/>
    </g>
   </g>
   <g id="line2d_37">
    <defs>
     <path id="m9cde494b26" d="M 0 2 
C 0.530406 2 1.03916 1.789267 1.414214 1.414214 
C 1.789267 1.03916 2 0.530406 2 0 
C 2 -0.530406 1.789267 -1.03916 1.414214 -1.414214 
C 1.03916 -1.789267 0.530406 -2 0 -2 
C -0.530406 -2 -1.03916 -1.789267 -1.414214 -1.414214 
C -1.789267 -1.03916 -2 -0.530406 -2 0 
C -2 0.530406 -1.789267 1.03916 -1.414214 1.414214 
C -1.03916 1.789267 -0.530406 2 0 2 
z
" style="stroke: #1f77b4"/>
    </defs>
    <g clip-path="url(#pc7b110e21c)">
     <use xlink:href="#m9cde494b26" x="60.079523" y="87.604495" style="fill: #1f77b4; stroke: #1f77b4"/>
     <use xlink:href="#m9cde494b26" x="97.764438" y="101.913486" style="fill: #1f77b4; stroke: #1f77b4"/>
     <use xlink:href="#m9cde494b26" x="135.449354" y="114.082974" style="fill: #1f77b4; stroke: #1f77b4"/>
     <use xlink:href="#m9cde494b26" x="173.13427" y="151.710117" style="fill: #1f77b4; stroke: #1f77b4"/>
     <use xlink:href="#m9cde494b26" x="210.819185" y="163.879605" style="fill: #1f77b4; stroke: #1f77b4"/>
    </g>
   </g>
   <g id="patch_8">
    <path d="M 42.179188 258.508075 
L 42.179188 73.386459 
" style="fill: none; stroke: #000000; stroke-width: 0.8; stroke-linejoin: miter; stroke-linecap: square"/>
   </g>
   <g id="patch_9">
    <path d="M 228.71952 258.508075 
L 228.71952 73.386459 
" style="fill: none; stroke: #000000; stroke-width: 0.8; stroke-linejoin: miter; stroke-linecap: square"/>
   </g>
   <g id="patch_10">
    <path d="M 42.179188 258.508075 
L 228.71952 258.508075 
" style="fill: none; stroke: #000000; stroke-width: 0.8; stroke-linejoin: miter; stroke-linecap: square"/>
   </g>
   <g id="patch_11">
    <path d="M 42.179188 73.386459 
L 228.71952 73.386459 
" style="fill: none; stroke: #000000; stroke-width: 0.8; stroke-linejoin: miter; stroke-linecap: square"/>
   </g>
   <g id="legend_1">
    <g id="patch_12">
     <path d="M 176.989456 123.116507 
L 221.71952 123.116507 
Q 223.71952 123.116507 223.71952 121.116507 
L 223.71952 80.386459 
Q 223.71952 78.386459 221.71952 78.386459 
L 176.989456 78.386459 
Q 174.989456 78.386459 174.989456 80.386459 
L 174.989456 121.116507 
Q 174.989456 123.116507 176.989456 123.116507 
z
" style="fill: #ffffff; opacity: 0.8; stroke: #cccccc; stroke-linejoin: miter"/>
    </g>
    <g id="text_19">
     <!-- $\delta$ -->
     <g transform="translate(197.140569 89.305018) scale(0.1 -0.1)">
      <defs>
       <path id="LMMathItalic12-Regular-e" d="M 2400 1163 
C 2458 1380 2490 1604 2490 1815 
C 2490 1911 2483 2007 2470 2103 
C 2419 2403 2285 2659 2112 2889 
C 1830 3246 1446 3745 1446 4046 
C 1446 4089 1459 4127 1478 4159 
C 1510 4221 1555 4271 1619 4302 
C 1683 4333 1754 4346 1818 4346 
C 2106 4346 2298 4154 2541 4058 
C 2560 4052 2579 4052 2605 4052 
C 2682 4052 2771 4097 2810 4180 
C 2829 4212 2842 4250 2842 4275 
C 2842 4352 2790 4416 2720 4429 
C 2496 4480 2246 4544 2016 4544 
C 1952 4544 1888 4537 1830 4525 
C 1741 4512 1645 4486 1562 4429 
C 1478 4378 1408 4301 1363 4218 
C 1312 4122 1286 4007 1286 3892 
C 1286 3546 1485 3144 1670 2786 
C 1408 2729 1152 2588 934 2397 
C 621 2122 403 1757 314 1387 
C 282 1253 262 1119 262 991 
C 262 761 320 543 435 364 
C 602 102 883 -64 1242 -64 
C 1798 -64 2246 543 2400 1163 
z
M 2010 1042 
C 1888 568 1651 57 1242 57 
C 986 57 794 211 704 428 
C 653 543 634 677 634 812 
C 634 991 666 1176 710 1361 
C 794 1693 922 2033 1178 2314 
C 1338 2480 1530 2614 1734 2665 
L 1754 2633 
C 1875 2397 1990 2154 2048 1885 
C 2067 1783 2074 1674 2074 1566 
C 2074 1393 2054 1214 2010 1042 
z
" transform="scale(0.015625)"/>
      </defs>
      <use xlink:href="#LMMathItalic12-Regular-e" transform="scale(0.996264)"/>
     </g>
    </g>
    <g id="line2d_38">
     <path d="M 178.989456 99.742181 
L 188.989456 99.742181 
L 198.989456 99.742181 
" style="fill: none; stroke: #ff7f0e; stroke-linecap: square"/>
     <g>
      <use xlink:href="#m5203df8db2" x="188.989456" y="99.742181" style="fill: #ff7f0e; stroke: #ff7f0e"/>
     </g>
    </g>
    <g id="text_20">
     <!-- $1$ -->
     <g transform="translate(206.989456 103.242181) scale(0.1 -0.1)">
      <use xlink:href="#LMRoman17-Regular-31" transform="scale(0.996264)"/>
     </g>
    </g>
    <g id="line2d_39">
     <path d="M 178.989456 113.679344 
L 188.989456 113.679344 
L 198.989456 113.679344 
" style="fill: none; stroke: #1f77b4; stroke-linecap: square"/>
     <g>
      <use xlink:href="#m9cde494b26" x="188.989456" y="113.679344" style="fill: #1f77b4; stroke: #1f77b4"/>
     </g>
    </g>
    <g id="text_21">
     <!-- $-1$ -->
     <g transform="translate(206.989456 117.179344) scale(0.1 -0.1)">
      <use xlink:href="#LMMathSymbols10-Regular-0" transform="scale(0.996264)"/>
      <use xlink:href="#LMRoman17-Regular-31" transform="translate(77.487468 0) scale(0.996264)"/>
     </g>
    </g>
   </g>
  </g>
 </g>
 <defs>
  <clipPath id="peb8b02ed9a">
   <rect x="42.179188" y="0.72" width="186.540332" height="61.707205"/>
  </clipPath>
  <clipPath id="pc7b110e21c">
   <rect x="42.179188" y="73.386459" width="186.540332" height="185.121616"/>
  </clipPath>
 </defs>
</svg>
