<?xml version="1.0" encoding="utf-8" standalone="no"?>
<!DOCTYPE svg PUBLIC "-//W3C//DTD SVG 1.1//EN"
  "http://www.w3.org/Graphics/SVG/1.1/DTD/svg11.dtd">
<svg xmlns:xlink="http://www.w3.org/1999/xlink" width="221.27488pt" height="212.419233pt" viewBox="0 0 221.27488 212.419233" xmlns="http://www.w3.org/2000/svg" version="1.1">
 <metadata>
  <rdf:RDF xmlns:dc="http://purl.org/dc/elements/1.1/" xmlns:cc="http://creativecommons.org/ns#" xmlns:rdf="http://www.w3.org/1999/02/22-rdf-syntax-ns#">
   <cc:Work>
    <dc:type rdf:resource="http://purl.org/dc/dcmitype/StillImage"/>
    <dc:date>2022-10-14T16:08:32.964291</dc:date>
    <dc:format>image/svg+xml</dc:format>
    <dc:creator>
     <cc:Agent>
      <dc:title>Matplotlib v3.6.0, https://matplotlib.org/</dc:title>
     </cc:Agent>
    </dc:creator>
   </cc:Work>
  </rdf:RDF>
 </metadata>
 <defs>
  <style type="text/css">*{stroke-linejoin: round; stroke-linecap: butt}</style>
 </defs>
 <g id="figure_1">
  <g id="patch_1">
   <path d="M 0 212.419233 
L 221.27488 212.419233 
L 221.27488 0 
L 0 0 
z
" style="fill: #ffffff"/>
  </g>
  <g id="axes_1">
   <g id="patch_2">
    <path d="M 39.394009 181.880871 
L 178.748525 181.880871 
L 178.748525 42.526355 
L 39.394009 42.526355 
z
" style="fill: #ffffff"/>
   </g>
   <g id="matplotlib.axis_1">
    <g id="xtick_1">
     <g id="line2d_1">
      <defs>
       <path id="m34768826e4" d="M 0 0 
L 0 3.5 
" style="stroke: #000000; stroke-width: 0.8"/>
      </defs>
      <g>
       <use xlink:href="#m34768826e4" x="53.32946" y="181.880871" style="stroke: #000000; stroke-width: 0.8"/>
      </g>
     </g>
     <g id="text_1">
      <!-- $\mathdefault{0.0}$ -->
      <g transform="translate(46.964436 195.79943) scale(0.1 -0.1)">
       <defs>
        <path id="LMRoman17-Regular-30" d="M 2688 2025 
C 2688 2416 2682 3080 2413 3591 
C 2176 4039 1798 4198 1466 4198 
C 1158 4198 768 4058 525 3597 
C 269 3118 243 2524 243 2025 
C 243 1661 250 1106 448 619 
C 723 -39 1216 -128 1466 -128 
C 1760 -128 2208 -7 2470 600 
C 2662 1042 2688 1559 2688 2025 
z
M 2278 2096 
C 2278 1680 2278 1169 2202 792 
C 2067 95 1690 -26 1466 -26 
C 1056 -26 813 325 723 812 
C 653 1188 653 1738 653 2096 
C 653 2588 653 2997 736 3387 
C 858 3929 1216 4096 1466 4096 
C 1728 4096 2067 3923 2189 3400 
C 2272 3036 2278 2607 2278 2096 
z
" transform="scale(0.015625)"/>
        <path id="LMMathItalic12-Regular-3a" d="M 1178 307 
C 1178 492 1024 619 870 619 
C 685 619 557 466 557 313 
C 557 128 710 0 864 0 
C 1050 0 1178 153 1178 307 
z
" transform="scale(0.015625)"/>
       </defs>
       <use xlink:href="#LMRoman17-Regular-30" transform="scale(0.996264)"/>
       <use xlink:href="#LMMathItalic12-Regular-3a" transform="translate(45.690948 0) scale(0.996264)"/>
       <use xlink:href="#LMRoman17-Regular-30" transform="translate(72.788125 0) scale(0.996264)"/>
      </g>
     </g>
    </g>
    <g id="xtick_2">
     <g id="line2d_2">
      <g>
       <use xlink:href="#m34768826e4" x="109.071267" y="181.880871" style="stroke: #000000; stroke-width: 0.8"/>
      </g>
     </g>
     <g id="text_2">
      <!-- $\mathdefault{0.2}$ -->
      <g transform="translate(102.706243 195.79943) scale(0.1 -0.1)">
       <defs>
        <path id="LMRoman17-Regular-32" d="M 2669 989 
L 2554 989 
C 2490 536 2438 459 2413 420 
C 2381 369 1920 369 1830 369 
L 602 369 
L 1824 1597 
C 2214 1967 2669 2402 2669 3035 
C 2669 3790 2067 4224 1395 4224 
C 691 4224 262 3604 262 3030 
C 262 2780 448 2748 525 2748 
C 589 2748 781 2787 781 3010 
C 781 3207 614 3264 525 3264 
C 486 3264 448 3258 422 3245 
C 544 3790 915 4058 1306 4058 
C 1862 4058 2227 3617 2227 3035 
C 2227 2479 1901 2000 1536 1584 
L 262 146 
L 262 0 
L 2515 0 
L 2669 989 
z
" transform="scale(0.015625)"/>
       </defs>
       <use xlink:href="#LMRoman17-Regular-30" transform="scale(0.996264)"/>
       <use xlink:href="#LMMathItalic12-Regular-3a" transform="translate(45.690948 0) scale(0.996264)"/>
       <use xlink:href="#LMRoman17-Regular-32" transform="translate(72.788125 0) scale(0.996264)"/>
      </g>
     </g>
    </g>
    <g id="xtick_3">
     <g id="line2d_3">
      <g>
       <use xlink:href="#m34768826e4" x="164.813073" y="181.880871" style="stroke: #000000; stroke-width: 0.8"/>
      </g>
     </g>
     <g id="text_3">
      <!-- $\mathdefault{0.4}$ -->
      <g transform="translate(158.448049 195.79943) scale(0.1 -0.1)">
       <defs>
        <path id="LMRoman17-Regular-34" d="M 2803 1114 
L 2803 1280 
L 2150 1280 
L 2150 4154 
C 2150 4288 2144 4288 2029 4288 
L 128 1280 
L 128 1114 
L 1779 1114 
L 1779 487 
C 1779 255 1766 192 1318 192 
L 1197 192 
L 1197 32 
C 1402 32 1747 32 1965 32 
C 2182 32 2528 32 2733 32 
L 2733 192 
L 2611 192 
C 2163 192 2150 255 2150 487 
L 2150 1114 
L 2803 1114 
z
M 1798 1280 
L 256 1280 
L 1798 3734 
L 1798 1280 
z
" transform="scale(0.015625)"/>
       </defs>
       <use xlink:href="#LMRoman17-Regular-30" transform="scale(0.996264)"/>
       <use xlink:href="#LMMathItalic12-Regular-3a" transform="translate(45.690948 0) scale(0.996264)"/>
       <use xlink:href="#LMRoman17-Regular-34" transform="translate(72.788125 0) scale(0.996264)"/>
      </g>
     </g>
    </g>
    <g id="text_4">
     <!-- $\beta_1$ -->
     <g transform="translate(104.268157 208.655137) scale(0.1 -0.1)">
      <defs>
       <path id="LMMathItalic12-Regular-c" d="M 3283 1200 
C 3322 1341 3334 1482 3334 1617 
C 3334 1867 3277 2105 3149 2297 
C 3072 2412 2982 2515 2867 2586 
C 2938 2623 3008 2668 3072 2718 
C 3328 2905 3514 3163 3584 3439 
C 3603 3514 3616 3596 3616 3672 
C 3616 3859 3552 4035 3437 4173 
C 3270 4374 3008 4480 2707 4480 
C 1952 4480 1389 3607 1178 2741 
L 186 -1184 
C 186 -1229 211 -1248 237 -1248 
L 275 -1248 
C 301 -1248 320 -1235 326 -1210 
L 774 599 
C 864 206 1152 -64 1594 -64 
C 1952 -64 2330 58 2656 302 
C 2963 533 3200 860 3283 1200 
z
M 2886 1231 
C 2816 929 2669 625 2419 399 
C 2182 180 1882 57 1594 57 
C 1139 57 883 413 883 865 
C 883 966 896 1074 922 1188 
L 1312 2726 
C 1510 3526 2003 4359 2707 4359 
C 2925 4359 3104 4264 3206 4100 
C 3264 4005 3290 3892 3290 3772 
C 3290 3672 3270 3564 3245 3457 
C 3181 3217 3072 2977 2867 2794 
C 2816 2751 2752 2707 2694 2669 
C 2566 2720 2426 2745 2272 2745 
C 2054 2745 1792 2745 1754 2600 
C 1754 2583 1747 2559 1747 2559 
C 1747 2432 1997 2432 2208 2432 
C 2362 2432 2522 2457 2675 2515 
C 2765 2443 2835 2353 2880 2250 
C 2944 2115 2970 1960 2970 1799 
C 2970 1618 2938 1424 2886 1231 
z
M 2509 2591 
C 2413 2567 2310 2553 2214 2553 
C 2080 2553 1882 2553 1894 2581 
C 1907 2624 2112 2624 2266 2624 
C 2355 2624 2432 2614 2509 2591 
z
" transform="scale(0.015625)"/>
       <path id="LMRoman17-Regular-31" d="M 2458 0 
L 2458 160 
L 2266 160 
C 1715 160 1702 230 1702 458 
L 1702 4058 
C 1702 4192 1696 4192 1606 4192 
C 1357 3916 979 3827 621 3827 
C 602 3827 570 3827 563 3808 
C 557 3795 557 3782 557 3648 
C 755 3648 1088 3686 1344 3839 
L 1344 461 
C 1344 236 1331 160 781 160 
L 589 160 
L 589 0 
L 1523 0 
L 2458 0 
z
" transform="scale(0.015625)"/>
      </defs>
      <use xlink:href="#LMMathItalic12-Regular-c" transform="scale(0.996264)"/>
      <use xlink:href="#LMRoman17-Regular-31" transform="translate(55.070737 -14.943915) scale(0.697382)"/>
     </g>
    </g>
   </g>
   <g id="matplotlib.axis_2">
    <g id="ytick_1">
     <g id="line2d_4">
      <defs>
       <path id="m342f014c97" d="M 0 0 
L -3.5 0 
" style="stroke: #000000; stroke-width: 0.8"/>
      </defs>
      <g>
       <use xlink:href="#m342f014c97" x="39.394009" y="167.945419" style="stroke: #000000; stroke-width: 0.8"/>
      </g>
     </g>
     <g id="text_5">
      <!-- $\mathdefault{0.0}$ -->
      <g transform="translate(19.66396 171.404699) scale(0.1 -0.1)">
       <use xlink:href="#LMRoman17-Regular-30" transform="scale(0.996264)"/>
       <use xlink:href="#LMMathItalic12-Regular-3a" transform="translate(45.690948 0) scale(0.996264)"/>
       <use xlink:href="#LMRoman17-Regular-30" transform="translate(72.788125 0) scale(0.996264)"/>
      </g>
     </g>
    </g>
    <g id="ytick_2">
     <g id="line2d_5">
      <g>
       <use xlink:href="#m342f014c97" x="39.394009" y="140.074516" style="stroke: #000000; stroke-width: 0.8"/>
      </g>
     </g>
     <g id="text_6">
      <!-- $\mathdefault{0.1}$ -->
      <g transform="translate(19.66396 143.533796) scale(0.1 -0.1)">
       <use xlink:href="#LMRoman17-Regular-30" transform="scale(0.996264)"/>
       <use xlink:href="#LMMathItalic12-Regular-3a" transform="translate(45.690948 0) scale(0.996264)"/>
       <use xlink:href="#LMRoman17-Regular-31" transform="translate(72.788125 0) scale(0.996264)"/>
      </g>
     </g>
    </g>
    <g id="ytick_3">
     <g id="line2d_6">
      <g>
       <use xlink:href="#m342f014c97" x="39.394009" y="112.203613" style="stroke: #000000; stroke-width: 0.8"/>
      </g>
     </g>
     <g id="text_7">
      <!-- $\mathdefault{0.2}$ -->
      <g transform="translate(19.66396 115.662893) scale(0.1 -0.1)">
       <use xlink:href="#LMRoman17-Regular-30" transform="scale(0.996264)"/>
       <use xlink:href="#LMMathItalic12-Regular-3a" transform="translate(45.690948 0) scale(0.996264)"/>
       <use xlink:href="#LMRoman17-Regular-32" transform="translate(72.788125 0) scale(0.996264)"/>
      </g>
     </g>
    </g>
    <g id="ytick_4">
     <g id="line2d_7">
      <g>
       <use xlink:href="#m342f014c97" x="39.394009" y="84.33271" style="stroke: #000000; stroke-width: 0.8"/>
      </g>
     </g>
     <g id="text_8">
      <!-- $\mathdefault{0.3}$ -->
      <g transform="translate(19.66396 87.791989) scale(0.1 -0.1)">
       <defs>
        <path id="LMRoman17-Regular-33" d="M 2720 1085 
C 2720 1707 2208 2157 1600 2227 
C 2086 2328 2554 2756 2554 3329 
C 2554 3820 2048 4179 1472 4179 
C 890 4179 378 3829 378 3329 
C 378 3110 544 3072 627 3072 
C 762 3072 877 3155 877 3321 
C 877 3486 762 3569 627 3569 
C 602 3569 570 3569 544 3557 
C 730 3959 1235 4032 1459 4032 
C 1683 4032 2106 3925 2106 3320 
C 2106 3143 2080 2828 1862 2550 
C 1670 2304 1453 2304 1242 2284 
C 1210 2284 1062 2269 1037 2269 
C 992 2263 966 2257 966 2208 
C 966 2163 973 2157 1101 2157 
L 1414 2157 
C 1984 2157 2234 1662 2234 1090 
C 2234 320 1824 25 1453 25 
C 1114 25 563 194 390 693 
C 422 680 454 680 486 680 
C 640 680 755 782 755 948 
C 755 1133 614 1216 486 1216 
C 378 1216 211 1165 211 926 
C 211 335 787 -128 1466 -128 
C 2176 -128 2720 430 2720 1085 
z
" transform="scale(0.015625)"/>
       </defs>
       <use xlink:href="#LMRoman17-Regular-30" transform="scale(0.996264)"/>
       <use xlink:href="#LMMathItalic12-Regular-3a" transform="translate(45.690948 0) scale(0.996264)"/>
       <use xlink:href="#LMRoman17-Regular-33" transform="translate(72.788125 0) scale(0.996264)"/>
      </g>
     </g>
    </g>
    <g id="ytick_5">
     <g id="line2d_8">
      <g>
       <use xlink:href="#m342f014c97" x="39.394009" y="56.461806" style="stroke: #000000; stroke-width: 0.8"/>
      </g>
     </g>
     <g id="text_9">
      <!-- $\mathdefault{0.4}$ -->
      <g transform="translate(19.66396 59.921086) scale(0.1 -0.1)">
       <use xlink:href="#LMRoman17-Regular-30" transform="scale(0.996264)"/>
       <use xlink:href="#LMMathItalic12-Regular-3a" transform="translate(45.690948 0) scale(0.996264)"/>
       <use xlink:href="#LMRoman17-Regular-34" transform="translate(72.788125 0) scale(0.996264)"/>
      </g>
     </g>
    </g>
    <g id="text_10">
     <!-- $\beta_2$ -->
     <g transform="translate(13.726782 117.006723) rotate(-90) scale(0.1 -0.1)">
      <use xlink:href="#LMMathItalic12-Regular-c" transform="scale(0.996264)"/>
      <use xlink:href="#LMRoman17-Regular-32" transform="translate(55.070737 -14.943915) scale(0.697382)"/>
     </g>
    </g>
   </g>
   <g id="PathCollection_1">
    <path d="M 53.32946 167.945419 
L 53.32946 167.945419 
L 53.32946 167.945419 
L 53.32946 167.945419 
L 53.32946 167.945419 
z
" clip-path="url(#pbeb56c531c)" style="fill: none; stroke: #a9a9a9"/>
   </g>
   <g id="PathCollection_2">
    <path d="M 54.374619 169.39081 
L 52.981074 168.849289 
L 52.632688 168.638234 
L 52.314416 167.597033 
L 52.284301 166.690334 
L 53.32946 165.06874 
L 60.054768 159.584148 
L 66.916526 154.272238 
L 67.052172 154.358354 
L 63.296559 160.280921 
L 59.509778 165.855102 
L 57.858482 168.034763 
L 55.071392 169.516686 
L 54.374619 169.39081 
L 54.374619 169.39081 
" clip-path="url(#pbeb56c531c)" style="fill: none; stroke: #a9a9a9"/>
    <path d="M 67.264912 154.009968 
L 67.264912 154.009968 
L 67.264912 154.009968 
L 67.264912 154.009968 
L 67.264912 154.009968 
z
" clip-path="url(#pbeb56c531c)" style="fill: none; stroke: #a9a9a9"/>
   </g>
   <g id="PathCollection_3">
    <path d="M 56.813323 171.783259 
L 56.794973 171.777669 
L 56.464937 171.676999 
L 56.116551 171.570298 
L 55.768164 171.46316 
L 55.658418 171.429282 
L 55.419778 171.355526 
L 55.071392 171.247426 
L 54.723006 171.138887 
L 54.53758 171.080896 
L 54.374619 171.029868 
L 54.026233 170.920362 
L 53.677847 170.810414 
L 53.43195 170.73251 
L 53.32946 170.699999 
L 52.981074 170.493207 
L 52.797728 170.384123 
L 52.632688 170.28581 
L 52.284301 170.077799 
L 52.214008 170.035737 
L 51.935915 169.869126 
L 51.633234 169.687351 
L 51.587529 169.625916 
L 51.476428 169.338965 
L 51.341876 168.990578 
L 51.239143 168.723916 
L 51.207697 168.642192 
L 51.07395 168.293806 
L 50.940547 167.945419 
L 50.890756 167.598244 
L 50.890583 167.597033 
L 50.840943 167.248647 
L 50.791583 166.900261 
L 50.742504 166.551874 
L 50.693705 166.203488 
L 50.645186 165.855102 
L 50.596945 165.506715 
L 50.554978 165.158329 
L 50.779596 164.809943 
L 50.890756 164.637706 
L 51.00455 164.461557 
L 51.229835 164.11317 
L 51.239143 164.098796 
L 51.455624 163.764784 
L 51.587529 163.561464 
L 51.68173 163.416398 
L 51.908201 163.068011 
L 51.935915 163.025431 
L 52.135146 162.719625 
L 52.284301 162.490902 
L 52.362411 162.371239 
L 52.590068 162.022852 
L 52.632688 161.957709 
L 52.818175 161.674466 
L 52.981074 161.425955 
L 53.046605 161.32608 
L 53.275447 160.977694 
L 53.32946 160.895561 
L 53.651006 160.629307 
L 53.677847 160.607104 
L 54.026233 160.319445 
L 54.072975 160.280921 
L 54.374619 160.03255 
L 54.4963 159.932535 
L 54.723006 159.746373 
L 54.920907 159.584148 
L 55.071392 159.460911 
L 55.346804 159.235762 
L 55.419778 159.176163 
L 55.768164 158.892135 
L 55.774013 158.887376 
L 56.116551 158.608938 
L 56.202755 158.53899 
L 56.464937 158.32645 
L 56.63281 158.190603 
L 56.813323 158.044668 
L 57.064187 157.842217 
L 57.16171 157.76359 
L 57.496893 157.493831 
L 57.510096 157.483215 
L 57.858482 157.203657 
L 57.931159 157.145444 
L 58.206868 156.92482 
L 58.366814 156.797058 
L 58.555255 156.64668 
L 58.803825 156.448672 
L 58.903641 156.369235 
L 59.242197 156.100286 
L 59.252027 156.092484 
L 59.600414 155.816554 
L 59.682196 155.751899 
L 59.9488 155.54133 
L 60.123608 155.403513 
L 60.297186 155.266795 
L 60.56641 155.055127 
L 60.645572 154.992947 
L 60.993959 154.719809 
L 61.010662 154.70674 
L 61.342345 154.44748 
L 61.456576 154.358354 
L 61.690731 154.175833 
L 61.903908 154.009968 
L 62.039118 153.904866 
L 62.352667 153.661582 
L 62.387504 153.634577 
L 62.73589 153.365067 
L 62.803074 153.313195 
L 63.084276 153.096287 
L 63.255041 152.964809 
L 63.432663 152.828181 
L 63.708464 152.616423 
L 63.781049 152.560745 
L 64.129435 152.294031 
L 64.16346 152.268036 
L 64.477822 152.028097 
L 64.620169 151.91965 
L 64.826208 151.762829 
L 65.078365 151.571264 
L 65.174594 151.498227 
L 65.522981 151.23431 
L 65.538104 151.222877 
L 65.871367 150.971201 
L 65.999667 150.874491 
L 66.219753 150.708752 
L 66.462747 150.526105 
L 66.568139 150.446961 
L 66.916526 150.185843 
L 66.92739 150.177719 
L 67.264912 149.925539 
L 67.39392 149.829332 
L 67.613298 149.665888 
L 67.862001 149.480946 
L 67.961685 149.406889 
L 68.310071 149.148571 
L 68.331713 149.13256 
L 68.658457 148.891051 
L 68.803331 148.784173 
L 69.006843 148.634178 
L 69.276532 148.435787 
L 69.35523 148.37795 
L 69.703616 148.122435 
L 69.751487 148.087401 
L 70.052002 147.867678 
L 70.228315 147.739015 
L 70.400389 147.613562 
L 70.706761 147.390628 
L 70.748775 147.360085 
L 71.097161 147.107374 
L 71.187138 147.042242 
L 71.445547 146.855361 
L 71.669303 146.693856 
L 71.793934 146.603982 
L 72.14232 146.353252 
L 72.153158 146.345469 
L 72.490706 146.103331 
L 72.63911 145.997083 
L 72.839093 145.854041 
L 73.126742 145.648697 
L 73.187479 145.605379 
L 73.535865 145.357457 
L 73.616343 145.300311 
L 73.884251 145.110247 
L 74.10786 144.951924 
L 74.232638 144.86366 
L 74.581024 144.617724 
L 74.601167 144.603538 
L 74.92941 144.372584 
L 75.096643 144.255152 
L 75.277797 144.128063 
L 75.593868 143.906765 
L 75.626183 143.884161 
L 75.974569 143.641037 
L 76.093264 143.558379 
L 76.322956 143.398574 
L 76.594551 143.209993 
L 76.671342 143.156723 
L 77.019728 142.915591 
L 77.097901 142.861607 
L 77.368114 142.675176 
L 77.603329 142.51322 
L 77.716501 142.435369 
L 78.064887 142.196232 
L 78.110737 142.164834 
L 78.413273 141.957854 
L 78.620386 141.816448 
L 78.76166 141.720082 
L 79.110046 141.482942 
L 79.131962 141.468061 
L 79.458432 141.246595 
L 79.645913 141.119675 
L 79.806818 141.010848 
L 80.155205 140.775709 
L 80.16177 140.771289 
L 80.503591 140.541382 
L 80.68011 140.422902 
L 80.851977 140.307652 
L 81.024788 140.422902 
L 80.851977 140.764856 
L 80.84872 140.771289 
L 80.671543 141.119675 
L 80.503591 141.449012 
L 80.493856 141.468061 
L 80.315082 141.816448 
L 80.155205 142.127139 
L 80.135767 142.164834 
L 79.955399 142.51322 
L 79.806818 142.79939 
L 79.774448 142.861607 
L 79.592489 143.209993 
L 79.458432 143.46591 
L 79.409893 143.558379 
L 79.226347 143.906765 
L 79.110046 144.126841 
L 79.042097 144.255152 
L 78.856967 144.603538 
L 78.76166 144.782319 
L 78.671055 144.951924 
L 78.484344 145.300311 
L 78.413273 145.432478 
L 78.296761 145.648697 
L 78.108473 145.997083 
L 78.064887 146.077445 
L 77.919211 146.345469 
L 77.729349 146.693856 
L 77.716501 146.717344 
L 77.5384 147.042242 
L 77.368114 147.352089 
L 77.346889 147.390628 
L 77.154321 147.739015 
L 77.019728 147.981854 
L 76.961106 148.087401 
L 76.766969 148.435787 
L 76.671342 148.606882 
L 76.572042 148.784173 
L 76.37634 149.13256 
L 76.322956 149.227282 
L 76.179692 149.480946 
L 75.982428 149.829332 
L 75.974569 149.843161 
L 75.784049 150.177719 
L 75.626183 150.454251 
L 75.585076 150.526105 
L 75.385109 150.874491 
L 75.277797 151.060935 
L 75.18439 151.222877 
L 74.982867 151.571264 
L 74.92941 151.663386 
L 74.780391 151.91965 
L 74.581024 152.261666 
L 74.577303 152.268036 
L 74.373076 152.616423 
L 74.232638 152.855411 
L 74.168215 152.964809 
L 73.962439 153.313195 
L 73.884251 153.445188 
L 73.755796 153.661582 
L 73.548474 154.009968 
L 73.535865 154.031085 
L 73.340041 154.358354 
L 73.187479 154.612719 
L 73.130967 154.70674 
L 72.920943 155.055127 
L 72.839093 155.190524 
L 72.710062 155.403513 
L 72.498498 155.751899 
L 72.490706 155.764688 
L 72.2858 156.100286 
L 72.14232 156.334731 
L 72.07244 156.448672 
L 71.858175 156.797058 
L 71.793934 156.901218 
L 71.642982 157.145444 
L 71.445547 157.46414 
L 71.427115 157.493831 
L 71.210147 157.842217 
L 71.097161 158.023199 
L 70.992428 158.190603 
L 70.773929 158.53899 
L 70.748775 158.578974 
L 70.554349 158.887376 
L 70.400389 159.131038 
L 70.334075 159.235762 
L 70.112873 159.584148 
L 70.052002 159.679757 
L 69.89072 159.932535 
L 69.703616 160.225126 
L 69.66786 160.280921 
L 69.443953 160.629307 
L 69.35523 160.767013 
L 69.219196 160.977694 
L 69.006843 161.305842 
L 68.993718 161.32608 
L 68.767105 161.674466 
L 68.658457 161.841113 
L 68.539713 162.022852 
L 68.31158 162.371239 
L 68.310071 162.373537 
L 68.082264 162.719625 
L 67.961685 162.90241 
L 67.852205 163.068011 
L 67.621367 163.416398 
L 67.613298 163.428539 
L 67.389365 163.764784 
L 67.264912 163.951249 
L 67.156606 164.11317 
L 66.923061 164.461557 
L 66.916526 164.471277 
L 66.688341 164.809943 
L 66.568139 164.98796 
L 66.452851 165.158329 
L 66.219753 165.502053 
L 66.216585 165.506715 
L 65.979127 165.855102 
L 65.871367 166.012861 
L 65.740872 166.203488 
L 65.522981 166.521106 
L 65.501827 166.551874 
L 65.261653 166.900261 
L 65.174594 167.02626 
L 65.0206 167.248647 
L 64.826208 167.528782 
L 64.778743 167.597033 
L 64.535853 167.945419 
L 64.477822 167.978566 
L 64.129435 168.177013 
L 63.923915 168.293806 
L 63.781049 168.374925 
L 63.432663 168.572238 
L 63.308827 168.642192 
L 63.084276 168.768933 
L 62.73589 168.965109 
L 62.690531 168.990578 
L 62.387504 169.160588 
L 62.068851 169.338965 
L 62.039118 169.355595 
L 61.690731 169.549889 
L 61.443676 169.687351 
L 61.342345 169.743684 
L 60.993959 169.936837 
L 60.81512 170.035737 
L 60.645572 170.129422 
L 60.297186 170.321429 
L 60.183121 170.384123 
L 59.9488 170.512806 
L 59.600414 170.703667 
L 59.547612 170.73251 
L 59.252027 170.893837 
L 58.908508 171.080896 
L 58.903641 171.083544 
L 58.555255 171.272514 
L 58.265562 171.429282 
L 58.206868 171.461018 
L 57.858482 171.648835 
L 57.618913 171.777669 
L 57.510096 171.836138 
L 57.16171 171.889004 
L 56.813323 171.783259 
z
" clip-path="url(#pbeb56c531c)" style="fill: none; stroke: #a9a9a9"/>
    <path d="M 81.200364 140.074516 
L 81.200364 140.074516 
L 81.200364 140.074516 
L 81.200364 140.074516 
L 81.200364 140.074516 
z
" clip-path="url(#pbeb56c531c)" style="fill: none; stroke: #a9a9a9"/>
   </g>
   <g id="PathCollection_4">
    <path d="M 60.297186 174.958407 
L 60.139827 174.913145 
L 59.9488 174.858133 
L 59.600414 174.757396 
L 59.252027 174.656233 
L 58.938321 174.564759 
L 58.903641 174.554634 
L 58.555255 174.452535 
L 58.206868 174.350006 
L 57.858482 174.247048 
L 57.755083 174.216373 
L 57.510096 174.143603 
L 57.16171 174.039702 
L 56.813323 173.935369 
L 56.589212 173.867986 
L 56.464937 173.830575 
L 56.116551 173.725294 
L 55.768164 173.61958 
L 55.440015 173.5196 
L 55.419778 173.513427 
L 55.071392 173.406759 
L 54.723006 173.299655 
L 54.374619 173.192115 
L 54.307158 173.171214 
L 54.026233 173.084069 
L 53.677847 172.975568 
L 53.32946 172.866629 
L 53.254891 172.822827 
L 52.981074 172.66179 
L 52.663285 172.474441 
L 52.632688 172.456381 
L 52.284301 172.250299 
L 52.074761 172.126055 
L 51.935915 172.043627 
L 51.587529 171.836332 
L 51.489156 171.777669 
L 51.239143 171.628392 
L 50.906463 171.429282 
L 50.890756 171.41987 
L 50.54237 171.210661 
L 50.326787 171.080896 
L 50.193984 170.902318 
L 50.128143 170.73251 
L 49.99338 170.384123 
L 49.858961 170.035737 
L 49.845597 170.001025 
L 49.72499 169.687351 
L 49.591373 169.338965 
L 49.497211 169.092848 
L 49.458132 168.990578 
L 49.325315 168.642192 
L 49.192838 168.293806 
L 49.148825 168.177789 
L 49.060779 167.945419 
L 49.011764 167.597033 
L 48.963028 167.248647 
L 48.914571 166.900261 
L 48.866392 166.551874 
L 48.818491 166.203488 
L 48.800439 166.071454 
L 48.770894 165.855102 
L 48.723589 165.506715 
L 48.676561 165.158329 
L 48.62981 164.809943 
L 48.583335 164.461557 
L 48.537136 164.11317 
L 48.491212 163.764784 
L 48.452052 163.465928 
L 48.44557 163.416398 
L 48.400236 163.068011 
L 48.452052 162.91653 
L 48.579615 162.719625 
L 48.800439 162.379091 
L 48.805535 162.371239 
L 49.031958 162.022852 
L 49.148825 161.84321 
L 49.258703 161.674466 
L 49.485782 161.32608 
L 49.497211 161.308568 
L 49.713355 160.977694 
L 49.845597 160.775449 
L 49.941245 160.629307 
L 50.169491 160.280921 
L 50.193984 160.243583 
L 50.398212 159.932535 
L 50.54237 159.713183 
L 50.627251 159.584148 
L 50.856666 159.235762 
L 50.890756 159.184055 
L 51.086539 158.887376 
L 51.239143 158.656347 
L 51.316734 158.53899 
L 51.547317 158.190603 
L 51.587529 158.129919 
L 51.77835 157.842217 
L 51.935915 157.604878 
L 52.009707 157.493831 
L 52.241459 157.145444 
L 52.284301 157.081115 
L 52.473657 156.797058 
L 52.632688 156.558715 
L 52.706182 156.448672 
L 52.939103 156.100286 
L 52.981074 156.03758 
L 53.172472 155.751899 
L 53.32946 155.517796 
L 53.468979 155.403513 
L 53.677847 155.232583 
L 53.89506 155.055127 
L 54.026233 154.948062 
L 54.322401 154.70674 
L 54.374619 154.664232 
L 54.723006 154.381136 
L 54.751095 154.358354 
L 55.071392 154.098813 
L 55.181223 154.009968 
L 55.419778 153.817175 
L 55.612637 153.661582 
L 55.768164 153.536222 
L 56.045342 153.313195 
L 56.116551 153.255952 
L 56.464937 152.976385 
L 56.47939 152.964809 
L 56.813323 152.69761 
L 56.914964 152.616423 
L 57.16171 152.419513 
L 57.351855 152.268036 
L 57.510096 152.142092 
L 57.79007 151.91965 
L 57.858482 151.865346 
L 58.206868 151.589307 
L 58.229685 151.571264 
L 58.555255 151.314046 
L 58.670852 151.222877 
L 58.903641 151.039454 
L 59.11337 150.874491 
L 59.252027 150.765531 
L 59.557245 150.526105 
L 59.600414 150.492273 
L 59.9488 150.219761 
L 60.00265 150.177719 
L 60.297186 149.947979 
L 60.449566 149.829332 
L 60.645572 149.676858 
L 60.897866 149.480946 
L 60.993959 149.406397 
L 61.342345 149.136601 
L 61.347574 149.13256 
L 61.690731 148.867608 
L 61.798986 148.784173 
L 62.039118 148.59927 
L 62.251811 148.435787 
L 62.387504 148.331585 
L 62.706055 148.087401 
L 62.73589 148.064552 
L 63.084276 147.798283 
L 63.161971 147.739015 
L 63.432663 147.532708 
L 63.619422 147.390628 
L 63.781049 147.26778 
L 64.078321 147.042242 
L 64.129435 147.003498 
L 64.477822 146.739948 
L 64.538871 146.693856 
L 64.826208 146.477116 
L 65.001054 146.345469 
L 65.174594 146.214925 
L 65.464715 145.997083 
L 65.522981 145.953374 
L 65.871367 145.692545 
L 65.930051 145.648697 
L 66.219753 145.432437 
L 66.397075 145.300311 
L 66.568139 145.172964 
L 66.865608 144.951924 
L 66.916526 144.914124 
L 67.264912 144.656017 
L 67.335888 144.603538 
L 67.613298 144.398613 
L 67.807865 144.255152 
L 67.961685 144.141839 
L 68.281384 143.906765 
L 68.310071 143.885691 
L 68.658457 143.630308 
L 68.756772 143.558379 
L 69.006843 143.37559 
L 69.233819 143.209993 
L 69.35523 143.121494 
L 69.703616 142.868033 
L 69.712469 142.861607 
L 70.052002 142.615362 
L 70.193107 142.51322 
L 70.400389 142.36331 
L 70.675343 142.164834 
L 70.748775 142.111875 
L 71.097161 141.861142 
L 71.159393 141.816448 
L 71.445547 141.611124 
L 71.645311 141.468061 
L 71.793934 141.36172 
L 72.132862 141.119675 
L 72.14232 141.112926 
L 72.490706 140.864922 
L 72.622494 140.771289 
L 72.839093 140.617539 
L 73.113819 140.422902 
L 73.187479 140.370763 
L 73.535865 140.124689 
L 73.607051 140.074516 
L 73.884251 139.879319 
L 74.102217 139.72613 
L 74.232638 139.634552 
L 74.581024 139.39041 
L 74.599141 139.377744 
L 74.92941 139.147045 
L 75.098221 139.029357 
L 75.277797 138.904278 
L 75.599024 138.680971 
L 75.626183 138.662108 
L 75.974569 138.420702 
L 76.101996 138.332585 
L 76.322956 138.179927 
L 76.606814 137.984198 
L 76.671342 137.939745 
L 77.019728 137.700277 
L 77.113717 137.635812 
L 77.368114 137.461485 
L 77.622624 137.287426 
L 77.716501 137.223282 
L 78.064887 136.985755 
L 78.133561 136.93904 
L 78.413273 136.748937 
L 78.646635 136.590653 
L 78.76166 136.512705 
L 79.110046 136.277122 
L 79.161711 136.242267 
L 79.458432 136.04227 
L 79.679031 135.893881 
L 79.806818 135.808 
L 80.155205 135.574363 
L 80.198356 135.545494 
L 80.503591 135.34147 
L 80.720004 135.197108 
L 80.851977 135.109153 
L 81.200364 134.877466 
L 81.24369 134.848722 
L 81.54875 134.646521 
L 81.76975 134.500336 
L 81.897136 134.416149 
L 82.245522 134.186414 
L 82.297914 134.151949 
L 82.593909 133.95741 
L 82.828473 133.803563 
L 82.942295 133.728976 
L 83.290681 133.501195 
L 83.361235 133.455177 
L 83.639068 133.274124 
L 83.896381 133.10679 
L 83.987454 133.047618 
L 84.33584 132.821795 
L 84.433866 132.758404 
L 84.684226 132.596648 
L 84.97369 132.410018 
L 85.032613 132.372062 
L 85.380999 132.148199 
L 85.516027 132.061632 
L 85.729385 131.924968 
L 86.060623 131.713245 
L 86.077772 131.702294 
L 86.426158 131.480394 
L 86.607944 131.364859 
L 86.774544 131.25907 
L 87.122931 131.038341 
L 87.157537 131.016473 
L 87.471317 130.818366 
L 87.709852 130.668086 
L 87.819703 130.598942 
L 88.168089 130.380181 
L 88.264646 130.3197 
L 88.516476 130.162101 
L 88.821993 129.971314 
L 88.864862 129.944567 
L 89.213248 129.727778 
L 89.382132 129.622927 
L 89.561635 129.511585 
L 89.910021 129.295975 
L 89.944747 129.274541 
L 90.258407 129.081119 
L 90.510251 128.926155 
L 90.606793 128.866804 
L 90.95518 128.653171 
L 91.078449 128.577769 
L 91.303566 128.44019 
L 91.649265 128.229382 
L 91.651952 128.227745 
L 92.000339 128.016092 
L 92.223205 127.880996 
L 92.348725 127.804977 
L 92.697111 127.594512 
L 92.799845 127.53261 
L 93.045497 127.384724 
L 93.379292 127.184223 
L 93.393884 127.175466 
L 93.74227 126.966987 
L 93.961934 126.835837 
L 94.090656 126.759052 
L 94.439043 126.551767 
L 94.547424 126.487451 
L 94.787429 126.345153 
L 94.991679 126.487451 
L 94.84701 126.835837 
L 94.787429 126.978673 
L 94.701522 127.184223 
L 94.555305 127.53261 
L 94.439043 127.808548 
L 94.408459 127.880996 
L 94.260697 128.229382 
L 94.112412 128.577769 
L 94.090656 128.628642 
L 93.963181 128.926155 
L 93.813358 129.274541 
L 93.74227 129.439151 
L 93.662752 129.622927 
L 93.511394 129.971314 
L 93.393884 130.24079 
L 93.359407 130.3197 
L 93.206515 130.668086 
L 93.053116 131.016473 
L 93.045497 131.033694 
L 92.898719 131.364859 
L 92.743793 131.713245 
L 92.697111 131.817777 
L 92.588 132.061632 
L 92.43155 132.410018 
L 92.348725 132.593747 
L 92.274354 132.758404 
L 92.116384 133.10679 
L 92.000339 133.36182 
L 91.957777 133.455177 
L 91.798288 133.803563 
L 91.651952 134.122202 
L 91.638264 134.151949 
L 91.47726 134.500336 
L 91.31577 134.848722 
L 91.303566 134.874938 
L 91.153294 135.197108 
L 90.990296 135.545494 
L 90.95518 135.620247 
L 90.826387 135.893881 
L 90.661883 136.242267 
L 90.606793 136.358488 
L 90.496534 136.590653 
L 90.330526 136.93904 
L 90.258407 137.089839 
L 90.16373 137.287426 
L 89.996222 137.635812 
L 89.910021 137.814472 
L 89.827971 137.984198 
L 89.658965 138.332585 
L 89.561635 138.532551 
L 89.489254 138.680971 
L 89.318753 139.029357 
L 89.213248 139.244239 
L 89.147572 139.377744 
L 88.975579 139.72613 
L 88.864862 139.94969 
L 88.802923 140.074516 
L 88.62944 140.422902 
L 88.516476 140.649055 
L 88.455301 140.771289 
L 88.280331 141.119675 
L 88.168089 141.342479 
L 88.104702 141.468061 
L 87.928249 141.816448 
L 87.819703 142.030103 
L 87.751122 142.164834 
L 87.573187 142.51322 
L 87.471317 142.712064 
L 87.394556 142.861607 
L 87.215143 143.209993 
L 87.122931 143.388495 
L 87.035 143.558379 
L 86.854111 143.906765 
L 86.774544 144.059523 
L 86.672449 144.255152 
L 86.490088 144.603538 
L 86.426158 144.725272 
L 86.306898 144.951924 
L 86.123068 145.300311 
L 86.077772 145.385864 
L 85.938345 145.648697 
L 85.753047 145.997083 
L 85.729385 146.041415 
L 85.566782 146.345469 
L 85.380999 146.692029 
L 85.380018 146.693856 
L 85.192208 147.042242 
L 85.032613 147.337576 
L 85.003888 147.390628 
L 84.814615 147.739015 
L 84.684226 147.978392 
L 84.624733 148.087401 
L 84.434002 148.435787 
L 84.33584 148.614582 
L 84.24255 148.784173 
L 84.050361 149.13256 
L 83.987454 149.246247 
L 83.857332 149.480946 
L 83.66369 149.829332 
L 83.639068 149.873486 
L 83.469076 150.177719 
L 83.290681 150.496248 
L 83.273927 150.526105 
L 83.077778 150.874491 
L 82.942295 151.114539 
L 82.88103 151.222877 
L 82.683431 151.571264 
L 82.593909 151.728668 
L 82.485077 151.91965 
L 82.286033 152.268036 
L 82.245522 152.338724 
L 82.086065 152.616423 
L 81.897136 152.944697 
L 81.885538 152.964809 
L 81.683988 153.313195 
L 81.54875 153.546411 
L 81.481833 153.661582 
L 81.278842 154.009968 
L 81.200364 154.144292 
L 81.075052 154.358354 
L 80.870623 154.70674 
L 80.851977 154.738418 
L 80.665189 155.055127 
L 80.503591 155.328516 
L 80.459174 155.403513 
L 80.25224 155.751899 
L 80.155205 155.914854 
L 80.044567 156.100286 
L 79.836201 156.448672 
L 79.806818 156.497654 
L 79.626862 156.797058 
L 79.458432 157.076672 
L 79.416924 157.145444 
L 79.206053 157.493831 
L 79.110046 157.652058 
L 78.994435 157.842217 
L 78.782137 158.190603 
L 78.76166 158.224108 
L 78.56883 158.53899 
L 78.413273 158.79246 
L 78.354907 158.887376 
L 78.140105 159.235762 
L 78.064887 159.357448 
L 77.924479 159.584148 
L 77.716501 159.91923 
L 77.708226 159.932535 
L 77.490917 160.280921 
L 77.368114 160.477368 
L 77.272946 160.629307 
L 77.054218 160.977694 
L 77.019728 161.032477 
L 76.83452 161.32608 
L 76.671342 161.584216 
L 76.614177 161.674466 
L 76.392943 162.022852 
L 76.322956 162.132793 
L 76.170859 162.371239 
L 75.974569 162.678327 
L 75.948119 162.719625 
L 75.724377 163.068011 
L 75.626183 163.220565 
L 75.49988 163.416398 
L 75.277797 163.760026 
L 75.274715 163.764784 
L 75.048464 164.11317 
L 74.92941 164.296111 
L 74.821527 164.461557 
L 74.593866 164.809943 
L 74.581024 164.829541 
L 74.365148 165.158329 
L 74.232638 165.359738 
L 74.135744 165.506715 
L 73.905575 165.855102 
L 73.884251 165.887292 
L 73.674375 166.203488 
L 73.535865 166.411743 
L 73.442476 166.551874 
L 73.209797 166.900261 
L 73.187479 166.93359 
L 72.976086 167.248647 
L 72.839093 167.452411 
L 72.741665 167.597033 
L 72.506475 167.945419 
L 72.490706 167.955012 
L 72.14232 168.166416 
L 71.931951 168.293806 
L 71.793934 168.377315 
L 71.445547 168.587632 
L 71.354953 168.642192 
L 71.097161 168.797319 
L 70.775344 168.990578 
L 70.748775 169.006521 
L 70.400389 169.215025 
L 70.192859 169.338965 
L 70.052002 169.423018 
L 69.703616 169.630431 
L 69.607777 169.687351 
L 69.35523 169.837218 
L 69.020004 170.035737 
L 69.006843 170.043525 
L 68.658457 170.24912 
L 68.429205 170.384123 
L 68.310071 170.454223 
L 67.961685 170.658723 
L 67.835678 170.73251 
L 67.613298 170.862625 
L 67.264912 171.066026 
L 67.239374 171.080896 
L 66.916526 171.268728 
L 66.639981 171.429282 
L 66.568139 171.470958 
L 66.219753 171.672534 
L 66.037628 171.777669 
L 65.871367 171.873567 
L 65.522981 172.07404 
L 65.432356 172.126055 
L 65.174594 172.273879 
L 64.826208 172.473247 
L 64.824115 172.474441 
L 64.477822 172.671892 
L 64.212539 172.822827 
L 64.129435 172.870072 
L 63.781049 173.067608 
L 63.597887 173.171214 
L 63.432663 173.264598 
L 63.084276 173.461024 
L 62.980112 173.5196 
L 62.73589 173.656826 
L 62.387504 173.85214 
L 62.359158 173.867986 
L 62.039118 174.046756 
L 61.734796 174.216373 
L 61.690731 174.240913 
L 61.342345 174.434387 
L 61.10704 174.564759 
L 60.993959 174.627361 
L 60.645572 174.819718 
L 60.475937 174.913145 
L 60.297186 174.958407 
z
" clip-path="url(#pbeb56c531c)" style="fill: none; stroke: #a9a9a9"/>
    <path d="M 95.135815 126.139065 
L 95.135815 126.139065 
L 95.135815 126.139065 
L 95.135815 126.139065 
L 95.135815 126.139065 
z
" clip-path="url(#pbeb56c531c)" style="fill: none; stroke: #a9a9a9"/>
   </g>
   <g id="PathCollection_5">
    <path d="M 63.432663 178.473672 
L 55.419778 176.185705 
L 52.981074 175.34722 
L 48.72216 172.822827 
L 48.322846 172.126055 
L 46.68416 167.597033 
L 45.785105 160.629307 
L 45.811559 160.280921 
L 51.935915 151.080377 
L 53.32946 149.041463 
L 60.297186 143.538087 
L 67.613298 138.046974 
L 74.581024 133.084028 
L 81.897136 128.147145 
L 89.213248 123.486351 
L 96.403527 119.171339 
L 103.497086 115.170215 
L 108.722881 112.384526 
L 108.954074 112.551999 
L 106.632563 119.082396 
L 104.141433 125.442292 
L 101.308816 132.061632 
L 98.231607 138.680971 
L 94.90791 145.300311 
L 91.303566 151.975227 
L 87.471317 158.59778 
L 83.416359 165.158329 
L 81.54875 167.987586 
L 73.87385 172.822827 
L 66.219753 177.37105 
L 64.129435 178.565851 
L 63.432663 178.473672 
L 63.432663 178.473672 
" clip-path="url(#pbeb56c531c)" style="fill: none; stroke: #a9a9a9"/>
    <path d="M 109.071267 112.203613 
L 109.071267 112.203613 
L 109.071267 112.203613 
L 109.071267 112.203613 
L 109.071267 112.203613 
z
" clip-path="url(#pbeb56c531c)" style="fill: none; stroke: #a9a9a9"/>
   </g>
   <g id="PathCollection_6">
    <path d="M 64.480323 181.880871 
L 56.813323 179.76976 
L 53.32946 178.73962 
L 46.710121 174.842609 
L 46.361735 174.287044 
L 43.962081 167.945419 
L 42.762592 158.190603 
L 42.747505 157.145444 
L 48.812477 148.087401 
L 53.46792 141.468061 
L 60.645572 135.88138 
L 67.961685 130.465938 
L 75.277797 125.325243 
L 82.593909 120.453966 
L 89.910021 115.847941 
L 97.226133 111.504042 
L 104.542245 107.420536 
L 111.858357 103.596326 
L 118.826083 100.195446 
L 122.658332 98.425582 
L 122.912872 98.616548 
L 121.007206 105.235887 
L 118.826083 111.979548 
L 116.387379 118.775888 
L 113.763162 125.442292 
L 110.813198 132.327143 
L 107.677722 139.090718 
L 104.193859 146.07017 
L 100.501585 152.964809 
L 96.512361 159.932535 
L 92.256963 166.900261 
L 91.595238 167.945419 
L 83.825384 173.171214 
L 76.170792 178.048622 
L 69.841388 181.880871 
L 69.841388 181.880871 
" clip-path="url(#pbeb56c531c)" style="fill: none; stroke: #a9a9a9"/>
    <path d="M 123.006718 98.268161 
L 123.006718 98.268161 
L 123.006718 98.268161 
L 123.006718 98.268161 
L 123.006718 98.268161 
z
" clip-path="url(#pbeb56c531c)" style="fill: none; stroke: #a9a9a9"/>
   </g>
   <g id="PathCollection_7">
    <path d="M 52.366035 181.880871 
L 52.284301 181.834473 
L 51.935915 181.63626 
L 51.753943 181.532485 
L 51.587529 181.437468 
L 51.239143 181.238087 
L 51.145018 181.184098 
L 50.890756 181.038083 
L 50.54237 180.837529 
L 50.53922 180.835712 
L 50.193984 180.636308 
L 49.936666 180.487326 
L 49.845597 180.434535 
L 49.497211 180.232131 
L 49.337173 180.13894 
L 49.148825 180.029129 
L 48.800439 179.82554 
L 48.740698 179.790553 
L 48.452052 179.621303 
L 48.147277 179.442167 
L 48.103666 179.416503 
L 47.75528 179.211044 
L 47.556906 179.093781 
L 47.406893 179.004997 
L 47.058507 178.798339 
L 46.969447 178.745394 
L 46.710121 178.59104 
L 46.384905 178.397008 
L 46.361735 178.383167 
L 46.013348 178.174618 
L 45.803358 178.048622 
L 45.664962 177.965481 
L 45.316576 177.75572 
L 45.224623 177.700236 
L 44.968189 177.545312 
L 44.648715 177.351849 
L 44.619803 177.33432 
L 44.271417 177.122646 
L 44.168386 177.003463 
L 44.032524 176.655077 
L 43.92303 176.373618 
L 43.897026 176.30669 
L 43.761964 175.958304 
L 43.627242 175.609918 
L 43.574644 175.473587 
L 43.492931 175.261532 
L 43.359005 174.913145 
L 43.226258 174.566951 
L 43.225418 174.564759 
L 43.092284 174.216373 
L 42.959489 173.867986 
L 42.877872 173.65335 
L 42.827074 173.5196 
L 42.695066 173.171214 
L 42.563396 172.822827 
L 42.529485 172.732899 
L 42.432144 172.474441 
L 42.301257 172.126055 
L 42.181099 171.805414 
L 42.170714 171.777669 
L 42.040608 171.429282 
L 41.910837 171.080896 
L 41.832713 170.870654 
L 41.781442 170.73251 
L 41.652447 170.384123 
L 41.523785 170.035737 
L 41.484326 169.928643 
L 41.395531 169.687351 
L 41.267641 169.338965 
L 41.140083 168.990578 
L 41.13594 168.979238 
L 41.01296 168.642192 
L 40.886171 168.293806 
L 40.787554 168.022145 
L 40.759735 167.945419 
L 40.714702 167.597033 
L 40.66994 167.248647 
L 40.625448 166.900261 
L 40.581226 166.551874 
L 40.537274 166.203488 
L 40.493591 165.855102 
L 40.450177 165.506715 
L 40.439168 165.41784 
L 40.407059 165.158329 
L 40.364218 164.809943 
L 40.321645 164.461557 
L 40.27934 164.11317 
L 40.237302 163.764784 
L 40.195531 163.416398 
L 40.154027 163.068011 
L 40.11279 162.719625 
L 40.090781 162.532516 
L 40.071834 162.371239 
L 40.031163 162.022852 
L 39.990757 161.674466 
L 39.950616 161.32608 
L 39.91074 160.977694 
L 39.871128 160.629307 
L 39.831781 160.280921 
L 39.792697 159.932535 
L 39.753877 159.584148 
L 39.742395 159.480423 
L 39.715343 159.235762 
L 39.677082 158.887376 
L 39.639083 158.53899 
L 39.601347 158.190603 
L 39.563873 157.842217 
L 39.52666 157.493831 
L 39.489709 157.145444 
L 39.453019 156.797058 
L 39.41659 156.448672 
L 39.394009 156.231196 
" clip-path="url(#pbeb56c531c)" style="fill: none; stroke: #a9a9a9"/>
    <path d="M 39.394009 153.382485 
L 45.664962 144.092857 
L 52.284301 134.689325 
L 53.498757 133.10679 
L 60.993959 127.358516 
L 68.395826 121.958429 
L 75.974569 116.707679 
L 83.639068 111.678869 
L 91.222034 106.977819 
L 98.619678 102.651907 
L 105.951248 98.616548 
L 113.377453 94.784298 
L 120.606706 91.300436 
L 127.884126 88.040602 
L 135.164796 85.029482 
L 136.94217 84.33271 
L 136.94217 84.33271 
L 135.440258 90.952049 
L 133.714094 97.571389 
L 131.660875 104.539115 
L 129.370277 111.50684 
L 126.838968 118.493427 
L 124.051877 125.536047 
L 120.949522 132.758404 
L 117.721991 139.72613 
L 114.08372 147.042242 
L 110.378559 154.009968 
L 106.231502 161.32608 
L 102.247639 167.945419 
L 94.457688 173.5196 
L 86.774544 178.748441 
L 81.975544 181.880871 
L 81.975544 181.880871 
" clip-path="url(#pbeb56c531c)" style="fill: none; stroke: #a9a9a9"/>
   </g>
   <g id="PathCollection_8">
    <path d="M 45.098753 181.880871 
L 44.968189 181.803402 
L 44.619803 181.596229 
L 44.512846 181.532485 
L 44.271417 181.388423 
L 43.9298 181.184098 
L 43.92303 181.180045 
L 43.574644 180.970984 
L 43.349748 180.835712 
L 43.226258 180.761344 
L 42.877872 180.551074 
L 42.77248 180.487326 
L 42.529485 180.340165 
L 42.197991 180.13894 
L 42.181099 180.128673 
L 41.832713 179.916495 
L 41.626396 179.790553 
L 41.484326 179.599059 
L 41.422954 179.442167 
L 41.286988 179.093781 
L 41.151362 178.745394 
L 41.13594 178.705693 
L 41.016179 178.397008 
L 40.881348 178.048622 
L 40.787554 177.805685 
L 40.746891 177.700236 
L 40.612853 177.351849 
L 40.479152 177.003463 
L 40.439168 176.899036 
L 40.345869 176.655077 
L 40.212957 176.30669 
L 40.090781 175.985644 
L 40.08039 175.958304 
L 39.948262 175.609918 
L 39.81647 175.261532 
L 39.742395 175.065248 
L 39.685062 174.913145 
L 39.554051 174.564759 
L 39.423374 174.216373 
L 39.394009 174.137906 
" clip-path="url(#pbeb56c531c)" style="fill: none; stroke: #a9a9a9"/>
    <path d="M 39.394009 143.677256 
L 46.013348 134.185664 
L 52.632688 125.069816 
L 53.435431 124.048747 
L 60.993959 118.329533 
L 68.658457 112.809 
L 76.322956 107.563454 
L 83.987454 102.588203 
L 91.651952 97.87965 
L 99.395834 93.390753 
L 107.063766 89.210118 
L 114.645447 85.334499 
L 121.96156 81.838305 
L 129.277672 78.582633 
L 136.593784 75.569416 
L 143.909896 72.801632 
L 150.877622 70.397258 
L 150.877622 70.397258 
L 149.720532 77.016598 
L 148.267526 83.984323 
L 146.581092 90.952049 
L 144.606668 98.128944 
L 142.419469 105.235887 
L 139.931039 112.551999 
L 137.205508 119.868111 
L 134.15508 127.397144 
L 131.019603 134.566626 
L 127.450443 142.164834 
L 123.703491 149.614532 
L 119.663473 157.145444 
L 115.491647 164.461557 
L 113.251902 168.074203 
L 105.587404 173.882549 
L 97.574519 179.674089 
L 94.41405 181.880871 
L 94.41405 181.880871 
" clip-path="url(#pbeb56c531c)" style="fill: none; stroke: #a9a9a9"/>
   </g>
   <g id="PathCollection_9">
    <path d="M 39.394009 133.314656 
L 46.318885 123.700361 
L 53.32946 114.348032 
L 60.993959 108.625285 
L 68.693463 103.145569 
L 76.671342 97.746913 
L 84.54324 92.693981 
L 92.348725 87.949136 
L 100.013223 83.54506 
L 107.677722 79.392467 
L 115.34222 75.491003 
L 123.006718 71.841036 
L 130.671217 68.44399 
L 137.987329 65.439187 
L 145.303441 62.669447 
L 152.619553 60.138275 
L 159.935665 57.849878 
L 164.813073 56.461806 
L 164.813073 56.461806 
L 163.962161 63.081146 
L 162.837066 70.048872 
L 161.485118 77.016598 
L 159.913738 83.984323 
L 158.034001 91.300436 
L 155.924722 98.616548 
L 153.590386 105.93266 
L 150.907199 113.597158 
L 147.983404 121.261656 
L 144.820736 128.926155 
L 141.419691 136.590653 
L 137.638943 144.541428 
L 133.716428 152.268036 
L 129.580671 159.932535 
L 125.097036 167.766494 
L 124.74865 168.143934 
L 116.708122 174.564759 
L 108.722881 180.658173 
L 107.075411 181.880871 
L 107.075411 181.880871 
" clip-path="url(#pbeb56c531c)" style="fill: none; stroke: #a9a9a9"/>
   </g>
   <g id="PathCollection_10">
    <path d="M 39.394009 122.388753 
L 46.444953 112.900386 
L 53.32946 103.978037 
L 61.342345 98.080729 
L 69.35523 92.461322 
L 77.368114 87.114761 
L 85.380999 82.037255 
L 93.393884 77.225675 
L 101.406768 72.678069 
L 109.071267 68.574142 
L 116.735765 64.710535 
L 124.612624 60.990828 
L 132.064762 57.707075 
L 139.72926 54.570562 
L 147.393759 51.681056 
L 154.743318 49.145694 
L 162.025983 46.864849 
L 169.342095 44.810203 
L 176.309821 43.079178 
L 178.748525 42.526355 
L 178.748525 42.526355 
" clip-path="url(#pbeb56c531c)" style="fill: none; stroke: #a9a9a9"/>
    <path d="M 178.748525 42.526355 
L 178.171423 49.145694 
L 177.339185 56.11342 
L 176.285363 63.081146 
L 174.949161 70.397258 
L 173.385277 77.71337 
L 171.60034 85.029482 
L 169.499128 92.693981 
L 167.166212 100.358479 
L 164.605451 108.022977 
L 161.819816 115.687476 
L 158.669214 123.700361 
L 155.2761 131.713245 
L 151.574394 139.867236 
L 147.742145 147.778246 
L 143.56151 155.894934 
L 139.264449 163.764784 
L 136.882854 167.945419 
L 128.929285 174.631241 
L 120.790994 181.184098 
L 119.904271 181.880871 
L 119.904271 181.880871 
" clip-path="url(#pbeb56c531c)" style="fill: none; stroke: #a9a9a9"/>
   </g>
   <g id="PathCollection_11">
    <path d="M 39.394009 110.98036 
L 46.733382 101.403638 
L 53.403239 93.042367 
L 61.690731 87.028583 
L 69.703616 81.483003 
L 77.716501 76.197491 
L 85.85134 71.094031 
L 94.047911 66.216623 
L 101.755155 61.871317 
L 109.768039 57.600271 
L 117.780924 53.580507 
L 125.793809 49.812603 
L 133.806693 46.298038 
L 141.471192 43.175302 
L 143.140743 42.526355 
L 143.140743 42.526355 
" clip-path="url(#pbeb56c531c)" style="fill: none; stroke: #a9a9a9"/>
    <path d="M 178.748525 101.759768 
L 175.961435 109.813308 
L 172.84264 118.12618 
L 169.605269 126.139065 
L 165.986098 134.500336 
L 162.120515 142.861607 
L 158.007206 151.222877 
L 153.643975 159.584148 
L 149.027206 167.945419 
L 140.774419 175.202676 
L 132.861464 181.880871 
L 132.861464 181.880871 
" clip-path="url(#pbeb56c531c)" style="fill: none; stroke: #a9a9a9"/>
   </g>
   <g id="PathCollection_12">
    <path d="M 178.748525 133.17369 
L 174.806551 141.816448 
L 170.583836 150.526105 
L 166.1079 159.235762 
L 161.375652 167.945419 
L 153.316326 175.342038 
L 145.919154 181.880871 
L 145.919154 181.880871 
" clip-path="url(#pbeb56c531c)" style="fill: none; stroke: #a9a9a9"/>
    <path d="M 39.394009 99.158103 
L 47.058507 89.451442 
L 53.32946 81.772112 
L 61.690731 75.778297 
L 70.066605 70.048872 
L 78.413273 64.608983 
L 86.774544 59.425923 
L 95.135815 54.507041 
L 103.512313 49.842467 
L 111.858357 45.456278 
L 117.730779 42.526355 
L 117.730779 42.526355 
" clip-path="url(#pbeb56c531c)" style="fill: none; stroke: #a9a9a9"/>
   </g>
   <g id="PathCollection_13">
    <path d="M 178.748525 158.873114 
L 178.741096 158.887376 
L 178.559282 159.235762 
L 178.400139 159.540311 
L 178.377209 159.584148 
L 178.19464 159.932535 
L 178.051752 160.204832 
L 178.011785 160.280921 
L 177.828464 160.629307 
L 177.703366 160.866708 
L 177.644824 160.977694 
L 177.46075 161.32608 
L 177.35498 161.525969 
L 177.276325 161.674466 
L 177.091499 162.022852 
L 177.006593 162.182646 
L 176.906286 162.371239 
L 176.72071 162.719625 
L 176.658207 162.83677 
L 176.534706 163.068011 
L 176.34838 163.416398 
L 176.309821 163.488369 
L 176.161584 163.764784 
L 175.974509 164.11317 
L 175.961435 164.137473 
L 175.786919 164.461557 
L 175.613048 164.784044 
L 175.599071 164.809943 
L 175.41071 165.158329 
L 175.264662 165.428107 
L 175.222064 165.506715 
L 175.032955 165.855102 
L 174.916276 166.069755 
L 174.84351 166.203488 
L 174.653653 166.551874 
L 174.567889 166.709014 
L 174.463407 166.900261 
L 174.272804 167.248647 
L 174.219503 167.345912 
L 174.081754 167.597033 
L 173.890405 167.945419 
L 173.871117 167.964176 
L 173.531807 168.293806 
L 173.522731 168.302618 
L 173.174344 168.640508 
L 173.172606 168.642192 
L 172.825958 168.977837 
L 172.812786 168.990578 
L 172.477572 169.314618 
L 172.45236 169.338965 
L 172.129185 169.650852 
L 172.091327 169.687351 
L 171.780799 169.98654 
L 171.729686 170.035737 
L 171.432413 170.321683 
L 171.367433 170.384123 
L 171.084027 170.656282 
L 171.004568 170.73251 
L 170.73564 170.990338 
L 170.641089 171.080896 
L 170.387254 171.323853 
L 170.276993 171.429282 
L 170.038868 171.656827 
L 169.912279 171.777669 
L 169.690481 171.989261 
L 169.546945 172.126055 
L 169.342095 172.321157 
L 169.180989 172.474441 
L 168.993709 172.652515 
L 168.814409 172.822827 
L 168.645322 172.983336 
L 168.447204 173.171214 
L 168.296936 173.313622 
L 168.079371 173.5196 
L 167.94855 173.643374 
L 167.710908 173.867986 
L 167.600164 173.972592 
L 167.341814 174.216373 
L 167.251777 174.301278 
L 166.972086 174.564759 
L 166.903391 174.629432 
L 166.601724 174.913145 
L 166.555005 174.957056 
L 166.230724 175.261532 
L 166.206618 175.28415 
L 165.859084 175.609918 
L 165.858232 175.610716 
L 165.509846 175.936726 
L 165.486763 175.958304 
L 165.16146 176.262207 
L 165.113796 176.30669 
L 164.813073 176.587163 
L 164.740182 176.655077 
L 164.464687 176.911594 
L 164.36592 177.003463 
L 164.116301 177.2355 
L 163.991007 177.351849 
L 163.767914 177.558884 
L 163.615442 177.700236 
L 163.419528 177.881746 
L 163.239223 178.048622 
L 163.071142 178.204086 
L 162.862348 178.397008 
L 162.722756 178.525907 
L 162.484814 178.745394 
L 162.374369 178.847208 
L 162.106619 179.093781 
L 162.025983 179.167992 
L 161.727762 179.442167 
L 161.677597 179.488258 
L 161.348241 179.790553 
L 161.32921 179.808009 
L 160.980824 180.127229 
L 160.968029 180.13894 
L 160.632438 180.44591 
L 160.587114 180.487326 
L 160.284052 180.764078 
L 160.205526 180.835712 
L 159.935665 181.081733 
L 159.823264 181.184098 
L 159.587279 181.398876 
L 159.440325 181.532485 
L 159.238893 181.715509 
L 159.056708 181.880871 
" clip-path="url(#pbeb56c531c)" style="fill: none; stroke: #a9a9a9"/>
    <path d="M 39.394009 86.980103 
L 47.203991 77.364984 
L 53.345248 70.048872 
L 62.039118 63.896029 
L 70.462881 58.203738 
L 79.114416 52.629557 
L 87.819703 47.29593 
L 96.012333 42.526355 
L 96.012333 42.526355 
" clip-path="url(#pbeb56c531c)" style="fill: none; stroke: #a9a9a9"/>
   </g>
   <g id="PathCollection_14">
    <path d="M 178.748525 175.659955 
L 178.44156 175.958304 
L 178.400139 175.998538 
L 178.082585 176.30669 
L 178.051752 176.336592 
L 177.723032 176.655077 
L 177.703366 176.674118 
L 177.362898 177.003463 
L 177.35498 177.011118 
L 177.006593 177.347587 
L 177.002176 177.351849 
L 176.658207 177.68352 
L 176.640856 177.700236 
L 176.309821 178.01893 
L 176.278949 178.048622 
L 175.961435 178.353816 
L 175.916455 178.397008 
L 175.613048 178.68818 
L 175.553372 178.745394 
L 175.264662 179.022022 
L 175.189697 179.093781 
L 174.916276 179.355344 
L 174.825429 179.442167 
L 174.567889 179.688147 
L 174.460567 179.790553 
L 174.219503 180.020431 
L 174.095108 180.13894 
L 173.871117 180.352198 
L 173.729051 180.487326 
L 173.522731 180.683449 
L 173.362394 180.835712 
L 173.174344 181.014184 
L 172.995136 181.184098 
L 172.825958 181.344404 
L 172.627274 181.532485 
L 172.477572 181.67411 
L 172.258807 181.880871 
" clip-path="url(#pbeb56c531c)" style="fill: none; stroke: #a9a9a9"/>
    <path d="M 39.394009 74.495375 
L 47.468203 64.823077 
L 53.32946 58.01144 
L 62.039118 51.915979 
L 70.872609 46.010218 
L 76.28669 42.526355 
L 76.28669 42.526355 
" clip-path="url(#pbeb56c531c)" style="fill: none; stroke: #a9a9a9"/>
   </g>
   <g id="PathCollection_15">
    <path d="M 39.394009 61.745281 
L 39.442585 61.687601 
L 39.736159 61.339215 
L 39.742395 61.331819 
L 40.03015 60.990828 
L 40.090781 60.919022 
L 40.324494 60.642442 
L 40.439168 60.506816 
L 40.619194 60.294056 
L 40.787554 60.0952 
L 40.914249 59.945669 
L 41.13594 59.684174 
L 41.20966 59.597283 
L 41.484326 59.273735 
L 41.505428 59.248897 
L 41.801595 58.900511 
L 41.832713 58.86393 
L 42.098149 58.552124 
L 42.181099 58.45474 
L 42.395061 58.203738 
L 42.529485 58.046135 
L 42.692333 57.855352 
L 42.877872 57.638113 
L 42.989967 57.506965 
L 43.226258 57.230674 
L 43.287962 57.158579 
L 43.574644 56.823815 
L 43.586319 56.810193 
L 43.88509 56.461806 
L 43.92303 56.417592 
L 44.184239 56.11342 
L 44.271417 56.011964 
L 44.483754 55.765034 
L 44.619803 55.606913 
L 44.783633 55.416648 
L 44.968189 55.202438 
L 45.083879 55.068261 
L 45.316576 54.798539 
L 45.384492 54.719875 
L 45.664962 54.395214 
L 45.685473 54.371489 
L 45.986858 54.023102 
L 46.013348 53.9925 
L 46.288638 53.674716 
L 46.361735 53.590386 
L 46.590789 53.32633 
L 46.710121 53.188844 
L 46.893311 52.977944 
L 47.058507 52.78787 
L 47.196204 52.629557 
L 47.406893 52.387465 
L 47.49947 52.281171 
L 47.75528 51.987628 
L 47.803109 51.932785 
L 48.103666 51.588357 
L 48.107123 51.584398 
L 48.411565 51.236012 
L 48.452052 51.189708 
L 48.716388 50.887626 
L 48.800439 50.791629 
L 49.021587 50.53924 
L 49.148825 50.394111 
L 49.327163 50.190853 
L 49.497211 49.997156 
L 49.633117 49.842467 
L 49.845597 49.600761 
L 49.939451 49.494081 
L 50.193984 49.204927 
L 50.246164 49.145694 
L 50.54237 48.809651 
L 50.553258 48.797308 
L 50.860774 48.448922 
L 50.890756 48.414974 
L 51.168686 48.100536 
L 51.239143 48.020869 
L 51.476981 47.752149 
L 51.587529 47.627319 
L 51.78566 47.403763 
L 51.935915 47.234323 
L 52.094723 47.055377 
L 52.284301 46.841881 
L 52.404173 46.70699 
L 52.632688 46.449991 
L 52.714008 46.358604 
L 52.981074 46.058652 
L 53.024231 46.010218 
L 53.32946 45.667864 
L 53.337992 45.661831 
L 53.677847 45.421666 
L 53.831175 45.313445 
L 54.026233 45.17585 
L 54.325422 44.965059 
L 54.374619 44.930417 
L 54.723006 44.685449 
L 54.820946 44.616673 
L 55.071392 44.440904 
L 55.317651 44.268286 
L 55.419778 44.19674 
L 55.768164 43.952996 
L 55.815536 43.9199 
L 56.116551 43.709718 
L 56.314726 43.571514 
L 56.464937 43.46682 
L 56.813323 43.2243 
L 56.815011 43.223127 
L 57.16171 42.982286 
L 57.316716 42.874741 
L 57.510096 42.74065 
L 57.819523 42.526355 
" clip-path="url(#pbeb56c531c)" style="fill: none; stroke: #a9a9a9"/>
   </g>
   <g id="line2d_9">
    <path d="M 53.32946 167.945419 
" clip-path="url(#pbeb56c531c)" style="fill: none; stroke: #ff8c00; stroke-linecap: square"/>
    <defs>
     <path id="maf9047719f" d="M -3.5 3.5 
L 3.5 -3.5 
M -3.5 -3.5 
L 3.5 3.5 
" style="stroke: #ff8c00; stroke-width: 2"/>
    </defs>
    <g clip-path="url(#pbeb56c531c)">
     <use xlink:href="#maf9047719f" x="53.32946" y="167.945419" style="fill: #ff8c00; stroke: #ff8c00; stroke-width: 2"/>
    </g>
   </g>
   <g id="LineCollection_1">
    <path d="M 39.394009 112.203613 
L 178.748525 112.203613 
" clip-path="url(#pbeb56c531c)" style="fill: none; stroke-dasharray: 1,1.65; stroke-dashoffset: 0; stroke: #a9a9a9"/>
   </g>
   <g id="LineCollection_2">
    <path d="M 109.071267 181.880871 
L 109.071267 42.526355 
" clip-path="url(#pbeb56c531c)" style="fill: none; stroke-dasharray: 1,1.65; stroke-dashoffset: 0; stroke: #a9a9a9"/>
   </g>
   <g id="line2d_10">
    <path d="M 109.071267 112.203613 
" clip-path="url(#pbeb56c531c)" style="fill: none; stroke: #000000; stroke-linecap: square"/>
    <defs>
     <path id="mf53efb5074" d="M 0 1.5 
C 0.397805 1.5 0.77937 1.341951 1.06066 1.06066 
C 1.341951 0.77937 1.5 0.397805 1.5 0 
C 1.5 -0.397805 1.341951 -0.77937 1.06066 -1.06066 
C 0.77937 -1.341951 0.397805 -1.5 0 -1.5 
C -0.397805 -1.5 -0.77937 -1.341951 -1.06066 -1.06066 
C -1.341951 -0.77937 -1.5 -0.397805 -1.5 0 
C -1.5 0.397805 -1.341951 0.77937 -1.06066 1.06066 
C -0.77937 1.341951 -0.397805 1.5 0 1.5 
z
" style="stroke: #000000"/>
    </defs>
    <g clip-path="url(#pbeb56c531c)">
     <use xlink:href="#mf53efb5074" x="109.071267" y="112.203613" style="stroke: #000000"/>
    </g>
   </g>
   <g id="patch_3">
    <path d="M 39.394009 181.880871 
L 39.394009 42.526355 
" style="fill: none; stroke: #000000; stroke-width: 0.8; stroke-linejoin: miter; stroke-linecap: square"/>
   </g>
   <g id="patch_4">
    <path d="M 178.748525 181.880871 
L 178.748525 42.526355 
" style="fill: none; stroke: #000000; stroke-width: 0.8; stroke-linejoin: miter; stroke-linecap: square"/>
   </g>
   <g id="patch_5">
    <path d="M 39.394009 181.880871 
L 178.748525 181.880871 
" style="fill: none; stroke: #000000; stroke-width: 0.8; stroke-linejoin: miter; stroke-linecap: square"/>
   </g>
   <g id="patch_6">
    <path d="M 39.394009 42.526355 
L 178.748525 42.526355 
" style="fill: none; stroke: #000000; stroke-width: 0.8; stroke-linejoin: miter; stroke-linecap: square"/>
   </g>
   <g id="axes_2">
    <g id="patch_7">
     <path d="M 39.394009 35.558629 
L 178.748525 35.558629 
L 178.748525 0.72 
L 39.394009 0.72 
z
" style="fill: #ffffff"/>
    </g>
    <g id="matplotlib.axis_3">
     <g id="xtick_4">
      <g id="line2d_11">
       <g>
        <use xlink:href="#m34768826e4" x="53.32946" y="35.558629" style="stroke: #000000; stroke-width: 0.8"/>
       </g>
      </g>
     </g>
     <g id="xtick_5">
      <g id="line2d_12">
       <g>
        <use xlink:href="#m34768826e4" x="109.071267" y="35.558629" style="stroke: #000000; stroke-width: 0.8"/>
       </g>
      </g>
     </g>
     <g id="xtick_6">
      <g id="line2d_13">
       <g>
        <use xlink:href="#m34768826e4" x="164.813073" y="35.558629" style="stroke: #000000; stroke-width: 0.8"/>
       </g>
      </g>
     </g>
    </g>
    <g id="matplotlib.axis_4">
     <g id="ytick_6">
      <g id="line2d_14">
       <g>
        <use xlink:href="#m342f014c97" x="39.394009" y="33.299146" style="stroke: #000000; stroke-width: 0.8"/>
       </g>
      </g>
      <g id="text_11">
       <!-- $\mathdefault{0.30}$ -->
       <g transform="translate(14.68264 36.758426) scale(0.1 -0.1)">
        <use xlink:href="#LMRoman17-Regular-30" transform="scale(0.996264)"/>
        <use xlink:href="#LMMathItalic12-Regular-3a" transform="translate(45.690948 0) scale(0.996264)"/>
        <use xlink:href="#LMRoman17-Regular-33" transform="translate(72.788125 0) scale(0.996264)"/>
        <use xlink:href="#LMRoman17-Regular-30" transform="translate(118.479074 0) scale(0.996264)"/>
       </g>
      </g>
     </g>
     <g id="ytick_7">
      <g id="line2d_15">
       <g>
        <use xlink:href="#m342f014c97" x="39.394009" y="16.659316" style="stroke: #000000; stroke-width: 0.8"/>
       </g>
      </g>
      <g id="text_12">
       <!-- $\mathdefault{0.35}$ -->
       <g transform="translate(14.68264 20.118595) scale(0.1 -0.1)">
        <defs>
         <path id="LMRoman17-Regular-35" d="M 2669 1264 
C 2669 2030 2170 2624 1549 2624 
C 1222 2624 947 2503 730 2274 
L 730 3692 
C 794 3666 1056 3584 1325 3584 
C 1920 3584 2246 3911 2432 4100 
C 2432 4157 2432 4192 2394 4192 
C 2394 4192 2374 4192 2323 4163 
C 2099 4058 1837 3973 1517 3973 
C 1325 3973 1037 3999 723 4139 
C 653 4171 634 4171 634 4171 
C 602 4171 595 4164 595 4037 
L 595 2203 
C 595 2089 595 2057 659 2057 
C 691 2057 704 2070 736 2114 
C 941 2401 1222 2522 1542 2522 
C 1766 2522 2246 2382 2246 1289 
C 2246 1085 2246 715 2054 421 
C 1894 159 1645 25 1370 25 
C 947 25 518 320 403 814 
C 429 807 480 795 506 795 
C 589 795 749 840 749 1038 
C 749 1210 627 1280 506 1280 
C 358 1280 262 1190 262 1011 
C 262 454 704 -128 1382 -128 
C 2042 -128 2669 440 2669 1264 
z
" transform="scale(0.015625)"/>
        </defs>
        <use xlink:href="#LMRoman17-Regular-30" transform="scale(0.996264)"/>
        <use xlink:href="#LMMathItalic12-Regular-3a" transform="translate(45.690948 0) scale(0.996264)"/>
        <use xlink:href="#LMRoman17-Regular-33" transform="translate(72.788125 0) scale(0.996264)"/>
        <use xlink:href="#LMRoman17-Regular-35" transform="translate(118.479074 0) scale(0.996264)"/>
       </g>
      </g>
     </g>
     <g id="text_13">
      <!-- $P(\beta)$ -->
      <g transform="translate(8.19198 28.984182) rotate(-90) scale(0.1 -0.1)">
       <defs>
        <path id="LMMathItalic12-Regular-50" d="M 4736 3401 
C 4736 3898 4314 4352 3507 4352 
L 1530 4352 
C 1408 4352 1350 4352 1350 4231 
C 1350 4167 1408 4167 1504 4167 
C 1894 4167 1894 4116 1894 4046 
C 1894 4046 1894 3995 1869 3899 
L 1005 472 
C 947 249 934 185 486 185 
C 365 185 301 185 301 70 
C 301 0 358 0 397 0 
C 518 0 646 0 768 0 
L 1517 0 
C 1638 0 1773 0 1894 0 
C 1946 0 2016 0 2016 121 
C 2016 185 1958 185 1862 185 
C 1478 185 1472 230 1472 293 
C 1472 325 1478 369 1485 401 
L 1894 2023 
L 2970 2023 
C 3853 2023 4736 2673 4736 3401 
z
M 4198 3535 
C 4198 3369 4115 2827 3821 2534 
C 3712 2419 3405 2176 2822 2176 
L 1920 2176 
L 2355 3930 
C 2413 4167 2438 4167 2688 4167 
L 3322 4167 
C 3802 4167 4198 4013 4198 3535 
z
" transform="scale(0.015625)"/>
        <path id="LMRoman17-Regular-28" d="M 1958 -1561 
C 1958 -1561 1958 -1542 1939 -1523 
C 1645 -1224 858 -407 858 1581 
C 858 3569 1632 4379 1946 4697 
C 1946 4697 1958 4717 1958 4736 
C 1958 4755 1939 4768 1914 4768 
C 1843 4768 1299 4296 986 3594 
C 666 2887 576 2199 576 1588 
C 576 1128 621 351 1005 -471 
C 1312 -1135 1837 -1600 1914 -1600 
C 1946 -1600 1958 -1587 1958 -1561 
z
" transform="scale(0.015625)"/>
        <path id="LMRoman17-Regular-29" d="M 1683 1581 
C 1683 2040 1638 2817 1254 3639 
C 947 4303 422 4768 346 4768 
C 326 4768 301 4761 301 4729 
C 301 4729 307 4710 314 4697 
C 621 4378 1402 3568 1402 1584 
C 1402 -407 627 -1217 314 -1537 
C 307 -1549 301 -1568 301 -1568 
C 301 -1600 326 -1600 346 -1600 
C 416 -1600 960 -1128 1274 -426 
C 1594 281 1683 969 1683 1581 
z
" transform="scale(0.015625)"/>
       </defs>
       <use xlink:href="#LMMathItalic12-Regular-50" transform="scale(0.996264)"/>
       <use xlink:href="#LMRoman17-Regular-28" transform="translate(76.425821 0) scale(0.996264)"/>
       <use xlink:href="#LMMathItalic12-Regular-c" transform="translate(111.707349 0) scale(0.996264)"/>
       <use xlink:href="#LMRoman17-Regular-29" transform="translate(172.301364 0) scale(0.996264)"/>
      </g>
     </g>
    </g>
    <g id="LineCollection_3">
     <path d="M 109.071267 33.975055 
L 109.071267 2.303574 
" clip-path="url(#pc806db549b)" style="fill: none; stroke-dasharray: 1,1.65; stroke-dashoffset: 0; stroke: #a9a9a9"/>
    </g>
    <g id="line2d_16">
     <path d="M 39.394009 19.253036 
L 50.598392 24.42128 
L 53.399488 25.657079 
L 63.903597 27.70467 
L 74.407706 29.52986 
L 84.911816 31.132649 
L 95.415925 32.513038 
L 105.920034 33.671027 
L 109.071267 33.975055 
L 119.925513 29.684786 
L 131.129896 25.007032 
L 142.334279 20.076236 
L 153.538663 14.892397 
L 164.743046 9.455516 
L 175.947429 3.765593 
L 178.748525 2.303574 
L 178.748525 2.303574 
" clip-path="url(#pc806db549b)" style="fill: none; stroke: #000000; stroke-linecap: square"/>
    </g>
    <g id="patch_8">
     <path d="M 39.394009 35.558629 
L 39.394009 0.72 
" style="fill: none; stroke: #000000; stroke-width: 0.8; stroke-linejoin: miter; stroke-linecap: square"/>
    </g>
    <g id="patch_9">
     <path d="M 178.748525 35.558629 
L 178.748525 0.72 
" style="fill: none; stroke: #000000; stroke-width: 0.8; stroke-linejoin: miter; stroke-linecap: square"/>
    </g>
    <g id="patch_10">
     <path d="M 39.394009 35.558629 
L 178.748525 35.558629 
" style="fill: none; stroke: #000000; stroke-width: 0.8; stroke-linejoin: miter; stroke-linecap: square"/>
    </g>
    <g id="patch_11">
     <path d="M 39.394009 0.72 
L 178.748525 0.72 
" style="fill: none; stroke: #000000; stroke-width: 0.8; stroke-linejoin: miter; stroke-linecap: square"/>
    </g>
   </g>
   <g id="axes_3">
    <g id="patch_12">
     <path d="M 185.716251 181.880871 
L 220.55488 181.880871 
L 220.55488 42.526355 
L 185.716251 42.526355 
z
" style="fill: #ffffff"/>
    </g>
    <g id="matplotlib.axis_5">
     <g id="xtick_7">
      <g id="line2d_17">
       <g>
        <use xlink:href="#m34768826e4" x="188.141008" y="181.880871" style="stroke: #000000; stroke-width: 0.8"/>
       </g>
      </g>
      <g id="text_14">
       <!-- $\mathdefault{0.30}$ -->
       <g transform="translate(179.285323 195.79943) scale(0.1 -0.1)">
        <use xlink:href="#LMRoman17-Regular-30" transform="scale(0.996264)"/>
        <use xlink:href="#LMMathItalic12-Regular-3a" transform="translate(45.690948 0) scale(0.996264)"/>
        <use xlink:href="#LMRoman17-Regular-33" transform="translate(72.788125 0) scale(0.996264)"/>
        <use xlink:href="#LMRoman17-Regular-30" transform="translate(118.479074 0) scale(0.996264)"/>
       </g>
      </g>
     </g>
     <g id="xtick_8">
      <g id="line2d_18">
       <g>
        <use xlink:href="#m34768826e4" x="208.849627" y="181.880871" style="stroke: #000000; stroke-width: 0.8"/>
       </g>
      </g>
      <g id="text_15">
       <!-- $\mathdefault{0.35}$ -->
       <g transform="translate(199.993943 195.79943) scale(0.1 -0.1)">
        <use xlink:href="#LMRoman17-Regular-30" transform="scale(0.996264)"/>
        <use xlink:href="#LMMathItalic12-Regular-3a" transform="translate(45.690948 0) scale(0.996264)"/>
        <use xlink:href="#LMRoman17-Regular-33" transform="translate(72.788125 0) scale(0.996264)"/>
        <use xlink:href="#LMRoman17-Regular-35" transform="translate(118.479074 0) scale(0.996264)"/>
       </g>
      </g>
     </g>
     <g id="text_16">
      <!-- $P(\beta)$ -->
      <g transform="translate(192.290697 209.208573) scale(0.1 -0.1)">
       <use xlink:href="#LMMathItalic12-Regular-50" transform="scale(0.996264)"/>
       <use xlink:href="#LMRoman17-Regular-28" transform="translate(76.425821 0) scale(0.996264)"/>
       <use xlink:href="#LMMathItalic12-Regular-c" transform="translate(111.707349 0) scale(0.996264)"/>
       <use xlink:href="#LMRoman17-Regular-29" transform="translate(172.301364 0) scale(0.996264)"/>
      </g>
     </g>
    </g>
    <g id="matplotlib.axis_6">
     <g id="ytick_8">
      <g id="line2d_19">
       <g>
        <use xlink:href="#m342f014c97" x="185.716251" y="167.945419" style="stroke: #000000; stroke-width: 0.8"/>
       </g>
      </g>
     </g>
     <g id="ytick_9">
      <g id="line2d_20">
       <g>
        <use xlink:href="#m342f014c97" x="185.716251" y="140.074516" style="stroke: #000000; stroke-width: 0.8"/>
       </g>
      </g>
     </g>
     <g id="ytick_10">
      <g id="line2d_21">
       <g>
        <use xlink:href="#m342f014c97" x="185.716251" y="112.203613" style="stroke: #000000; stroke-width: 0.8"/>
       </g>
      </g>
     </g>
     <g id="ytick_11">
      <g id="line2d_22">
       <g>
        <use xlink:href="#m342f014c97" x="185.716251" y="84.33271" style="stroke: #000000; stroke-width: 0.8"/>
       </g>
      </g>
     </g>
     <g id="ytick_12">
      <g id="line2d_23">
       <g>
        <use xlink:href="#m342f014c97" x="185.716251" y="56.461806" style="stroke: #000000; stroke-width: 0.8"/>
       </g>
      </g>
     </g>
    </g>
    <g id="LineCollection_4">
     <path d="M 187.299825 112.203613 
L 218.971306 112.203613 
" clip-path="url(#p33c85e1b4e)" style="fill: none; stroke-dasharray: 1,1.65; stroke-dashoffset: 0; stroke: #a9a9a9"/>
    </g>
    <g id="line2d_24">
     <path d="M 216.234308 181.880871 
L 208.922467 172.077036 
L 205.900826 167.875392 
L 202.202193 158.771831 
L 198.760416 149.668269 
L 195.811371 141.264982 
L 193.081186 132.861694 
L 190.56986 124.458407 
L 188.277395 116.05512 
L 187.299825 112.203613 
L 190.45223 103.450189 
L 193.982648 94.346627 
L 197.769923 85.243066 
L 201.814054 76.139504 
L 206.115041 67.035943 
L 210.672885 57.932382 
L 215.487585 48.82882 
L 218.971306 42.526355 
L 218.971306 42.526355 
" clip-path="url(#p33c85e1b4e)" style="fill: none; stroke: #000000; stroke-linecap: square"/>
    </g>
    <g id="patch_13">
     <path d="M 185.716251 181.880871 
L 185.716251 42.526355 
" style="fill: none; stroke: #000000; stroke-width: 0.8; stroke-linejoin: miter; stroke-linecap: square"/>
    </g>
    <g id="patch_14">
     <path d="M 220.55488 181.880871 
L 220.55488 42.526355 
" style="fill: none; stroke: #000000; stroke-width: 0.8; stroke-linejoin: miter; stroke-linecap: square"/>
    </g>
    <g id="patch_15">
     <path d="M 185.716251 181.880871 
L 220.55488 181.880871 
" style="fill: none; stroke: #000000; stroke-width: 0.8; stroke-linejoin: miter; stroke-linecap: square"/>
    </g>
    <g id="patch_16">
     <path d="M 185.716251 42.526355 
L 220.55488 42.526355 
" style="fill: none; stroke: #000000; stroke-width: 0.8; stroke-linejoin: miter; stroke-linecap: square"/>
    </g>
   </g>
  </g>
 </g>
 <defs>
  <clipPath id="pbeb56c531c">
   <rect x="39.394009" y="42.526355" width="139.354516" height="139.354516"/>
  </clipPath>
  <clipPath id="pc806db549b">
   <rect x="39.394009" y="0.72" width="139.354516" height="34.838629"/>
  </clipPath>
  <clipPath id="p33c85e1b4e">
   <rect x="185.716251" y="42.526355" width="34.838629" height="139.354516"/>
  </clipPath>
 </defs>
</svg>
