<?xml version="1.0" encoding="utf-8" standalone="no"?>
<!DOCTYPE svg PUBLIC "-//W3C//DTD SVG 1.1//EN"
  "http://www.w3.org/Graphics/SVG/1.1/DTD/svg11.dtd">
<svg xmlns:xlink="http://www.w3.org/1999/xlink" width="229.43952pt" height="100.739529pt" viewBox="0 0 229.43952 100.739529" xmlns="http://www.w3.org/2000/svg" version="1.1">
 <metadata>
  <rdf:RDF xmlns:dc="http://purl.org/dc/elements/1.1/" xmlns:cc="http://creativecommons.org/ns#" xmlns:rdf="http://www.w3.org/1999/02/22-rdf-syntax-ns#">
   <cc:Work>
    <dc:type rdf:resource="http://purl.org/dc/dcmitype/StillImage"/>
    <dc:date>2022-10-14T09:34:34.712937</dc:date>
    <dc:format>image/svg+xml</dc:format>
    <dc:creator>
     <cc:Agent>
      <dc:title>Matplotlib v3.6.0, https://matplotlib.org/</dc:title>
     </cc:Agent>
    </dc:creator>
   </cc:Work>
  </rdf:RDF>
 </metadata>
 <defs>
  <style type="text/css">*{stroke-linejoin: round; stroke-linecap: butt}</style>
 </defs>
 <g id="figure_1">
  <g id="patch_1">
   <path d="M 0 100.739529 
L 229.43952 100.739529 
L 229.43952 0 
L 0 0 
z
" style="fill: #ffffff"/>
  </g>
  <g id="axes_1">
   <g id="patch_2">
    <path d="M 34.412689 84.163807 
L 226.22886 84.163807 
L 226.22886 3.91689 
L 34.412689 3.91689 
z
" style="fill: #ffffff"/>
   </g>
   <g id="matplotlib.axis_1">
    <g id="xtick_1">
     <g id="line2d_1">
      <defs>
       <path id="mdac5fa1e2c" d="M 0 0 
L 0 3.5 
" style="stroke: #000000; stroke-width: 0.8"/>
      </defs>
      <g>
       <use xlink:href="#mdac5fa1e2c" x="34.412689" y="84.163807" style="stroke: #000000; stroke-width: 0.8"/>
      </g>
     </g>
     <g id="text_1">
      <!-- $\mathdefault{−3}$ -->
      <g transform="translate(28.047657 98.082366) scale(0.1 -0.1)">
       <defs>
        <path id="LMMathSymbols10-Regular-0" d="M 4442 1600 
C 4442 1728 4320 1728 4230 1728 
L 742 1728 
C 653 1728 531 1728 531 1600 
C 531 1472 653 1472 742 1472 
L 4230 1472 
C 4320 1472 4442 1472 4442 1600 
z
" transform="scale(0.015625)"/>
        <path id="LMRoman17-Regular-33" d="M 2720 1085 
C 2720 1707 2208 2157 1600 2227 
C 2086 2328 2554 2756 2554 3329 
C 2554 3820 2048 4179 1472 4179 
C 890 4179 378 3829 378 3329 
C 378 3110 544 3072 627 3072 
C 762 3072 877 3155 877 3321 
C 877 3486 762 3569 627 3569 
C 602 3569 570 3569 544 3557 
C 730 3959 1235 4032 1459 4032 
C 1683 4032 2106 3925 2106 3320 
C 2106 3143 2080 2828 1862 2550 
C 1670 2304 1453 2304 1242 2284 
C 1210 2284 1062 2269 1037 2269 
C 992 2263 966 2257 966 2208 
C 966 2163 973 2157 1101 2157 
L 1414 2157 
C 1984 2157 2234 1662 2234 1090 
C 2234 320 1824 25 1453 25 
C 1114 25 563 194 390 693 
C 422 680 454 680 486 680 
C 640 680 755 782 755 948 
C 755 1133 614 1216 486 1216 
C 378 1216 211 1165 211 926 
C 211 335 787 -128 1466 -128 
C 2176 -128 2720 430 2720 1085 
z
" transform="scale(0.015625)"/>
       </defs>
       <use xlink:href="#LMMathSymbols10-Regular-0" transform="scale(0.996264)"/>
       <use xlink:href="#LMRoman17-Regular-33" transform="translate(77.487468 0) scale(0.996264)"/>
      </g>
     </g>
    </g>
    <g id="xtick_2">
     <g id="line2d_2">
      <g>
       <use xlink:href="#mdac5fa1e2c" x="66.382051" y="84.163807" style="stroke: #000000; stroke-width: 0.8"/>
      </g>
     </g>
     <g id="text_2">
      <!-- $-c_2$ -->
      <g transform="translate(58.366432 98.082366) scale(0.1 -0.1)">
       <defs>
        <path id="LMMathItalic12-Regular-63" d="M 2675 706 
C 2675 744 2637 776 2611 776 
C 2592 776 2586 770 2528 713 
C 2118 162 1510 64 1267 64 
C 826 64 685 446 685 764 
C 685 988 794 1605 1024 2039 
C 1190 2338 1536 2682 1939 2682 
C 2022 2682 2374 2682 2502 2431 
C 2381 2431 2323 2431 2234 2355 
C 2195 2323 2125 2227 2125 2125 
C 2125 1997 2221 1920 2342 1920 
C 2496 1920 2669 2044 2669 2292 
C 2669 2588 2374 2816 1933 2816 
C 1094 2816 256 1903 256 996 
C 256 441 602 -64 1254 -64 
C 2125 -64 2675 622 2675 706 
z
" transform="scale(0.015625)"/>
        <path id="LMRoman17-Regular-32" d="M 2669 989 
L 2554 989 
C 2490 536 2438 459 2413 420 
C 2381 369 1920 369 1830 369 
L 602 369 
L 1824 1597 
C 2214 1967 2669 2402 2669 3035 
C 2669 3790 2067 4224 1395 4224 
C 691 4224 262 3604 262 3030 
C 262 2780 448 2748 525 2748 
C 589 2748 781 2787 781 3010 
C 781 3207 614 3264 525 3264 
C 486 3264 448 3258 422 3245 
C 544 3790 915 4058 1306 4058 
C 1862 4058 2227 3617 2227 3035 
C 2227 2479 1901 2000 1536 1584 
L 262 146 
L 262 0 
L 2515 0 
L 2669 989 
z
" transform="scale(0.015625)"/>
       </defs>
       <use xlink:href="#LMMathSymbols10-Regular-0" transform="scale(0.996264)"/>
       <use xlink:href="#LMMathItalic12-Regular-63" transform="translate(77.487468 0) scale(0.996264)"/>
       <use xlink:href="#LMRoman17-Regular-32" transform="translate(119.470701 -14.943915) scale(0.697382)"/>
      </g>
     </g>
    </g>
    <g id="xtick_3">
     <g id="line2d_3">
      <g>
       <use xlink:href="#mdac5fa1e2c" x="98.351412" y="84.163807" style="stroke: #000000; stroke-width: 0.8"/>
      </g>
     </g>
     <g id="text_3">
      <!-- $-c_3$ -->
      <g transform="translate(90.335794 98.082366) scale(0.1 -0.1)">
       <use xlink:href="#LMMathSymbols10-Regular-0" transform="scale(0.996264)"/>
       <use xlink:href="#LMMathItalic12-Regular-63" transform="translate(77.487468 0) scale(0.996264)"/>
       <use xlink:href="#LMRoman17-Regular-33" transform="translate(119.470701 -14.943915) scale(0.697382)"/>
      </g>
     </g>
    </g>
    <g id="xtick_4">
     <g id="line2d_4">
      <g>
       <use xlink:href="#mdac5fa1e2c" x="130.320774" y="84.163807" style="stroke: #000000; stroke-width: 0.8"/>
      </g>
     </g>
     <g id="text_4">
      <!-- $\mathdefault{0}$ -->
      <g transform="translate(127.830114 98.082366) scale(0.1 -0.1)">
       <defs>
        <path id="LMRoman17-Regular-30" d="M 2688 2025 
C 2688 2416 2682 3080 2413 3591 
C 2176 4039 1798 4198 1466 4198 
C 1158 4198 768 4058 525 3597 
C 269 3118 243 2524 243 2025 
C 243 1661 250 1106 448 619 
C 723 -39 1216 -128 1466 -128 
C 1760 -128 2208 -7 2470 600 
C 2662 1042 2688 1559 2688 2025 
z
M 2278 2096 
C 2278 1680 2278 1169 2202 792 
C 2067 95 1690 -26 1466 -26 
C 1056 -26 813 325 723 812 
C 653 1188 653 1738 653 2096 
C 653 2588 653 2997 736 3387 
C 858 3929 1216 4096 1466 4096 
C 1728 4096 2067 3923 2189 3400 
C 2272 3036 2278 2607 2278 2096 
z
" transform="scale(0.015625)"/>
       </defs>
       <use xlink:href="#LMRoman17-Regular-30" transform="scale(0.996264)"/>
      </g>
     </g>
    </g>
    <g id="xtick_5">
     <g id="line2d_5">
      <g>
       <use xlink:href="#mdac5fa1e2c" x="162.290136" y="84.163807" style="stroke: #000000; stroke-width: 0.8"/>
      </g>
     </g>
     <g id="text_5">
      <!-- $c_3$ -->
      <g transform="translate(158.148889 98.082366) scale(0.1 -0.1)">
       <use xlink:href="#LMMathItalic12-Regular-63" transform="scale(0.996264)"/>
       <use xlink:href="#LMRoman17-Regular-33" transform="translate(41.983234 -14.943915) scale(0.697382)"/>
      </g>
     </g>
    </g>
    <g id="xtick_6">
     <g id="line2d_6">
      <g>
       <use xlink:href="#mdac5fa1e2c" x="194.259498" y="84.163807" style="stroke: #000000; stroke-width: 0.8"/>
      </g>
     </g>
     <g id="text_6">
      <!-- $c_2$ -->
      <g transform="translate(190.118251 98.082366) scale(0.1 -0.1)">
       <use xlink:href="#LMMathItalic12-Regular-63" transform="scale(0.996264)"/>
       <use xlink:href="#LMRoman17-Regular-32" transform="translate(41.983234 -14.943915) scale(0.697382)"/>
      </g>
     </g>
    </g>
    <g id="xtick_7">
     <g id="line2d_7">
      <g>
       <use xlink:href="#mdac5fa1e2c" x="226.22886" y="84.163807" style="stroke: #000000; stroke-width: 0.8"/>
      </g>
     </g>
     <g id="text_7">
      <!-- $\mathdefault{3}$ -->
      <g transform="translate(223.7382 98.082366) scale(0.1 -0.1)">
       <use xlink:href="#LMRoman17-Regular-33" transform="scale(0.996264)"/>
      </g>
     </g>
    </g>
    <g id="xtick_8">
     <g id="line2d_8">
      <g>
       <use xlink:href="#mdac5fa1e2c" x="66.382051" y="84.163807" style="stroke: #000000; stroke-width: 0.8"/>
      </g>
     </g>
     <g id="text_8">
      <!-- $-c_2$ -->
      <g transform="translate(58.366432 98.082366) scale(0.1 -0.1)">
       <use xlink:href="#LMMathSymbols10-Regular-0" transform="scale(0.996264)"/>
       <use xlink:href="#LMMathItalic12-Regular-63" transform="translate(77.487468 0) scale(0.996264)"/>
       <use xlink:href="#LMRoman17-Regular-32" transform="translate(119.470701 -14.943915) scale(0.697382)"/>
      </g>
     </g>
    </g>
    <g id="xtick_9">
     <g id="line2d_9">
      <g>
       <use xlink:href="#mdac5fa1e2c" x="98.351412" y="84.163807" style="stroke: #000000; stroke-width: 0.8"/>
      </g>
     </g>
     <g id="text_9">
      <!-- $-c_3$ -->
      <g transform="translate(90.335794 98.082366) scale(0.1 -0.1)">
       <use xlink:href="#LMMathSymbols10-Regular-0" transform="scale(0.996264)"/>
       <use xlink:href="#LMMathItalic12-Regular-63" transform="translate(77.487468 0) scale(0.996264)"/>
       <use xlink:href="#LMRoman17-Regular-33" transform="translate(119.470701 -14.943915) scale(0.697382)"/>
      </g>
     </g>
    </g>
    <g id="xtick_10">
     <g id="line2d_10">
      <g>
       <use xlink:href="#mdac5fa1e2c" x="194.259498" y="84.163807" style="stroke: #000000; stroke-width: 0.8"/>
      </g>
     </g>
     <g id="text_10">
      <!-- $c_2$ -->
      <g transform="translate(190.118251 98.082366) scale(0.1 -0.1)">
       <use xlink:href="#LMMathItalic12-Regular-63" transform="scale(0.996264)"/>
       <use xlink:href="#LMRoman17-Regular-32" transform="translate(41.983234 -14.943915) scale(0.697382)"/>
      </g>
     </g>
    </g>
    <g id="xtick_11">
     <g id="line2d_11">
      <g>
       <use xlink:href="#mdac5fa1e2c" x="162.290136" y="84.163807" style="stroke: #000000; stroke-width: 0.8"/>
      </g>
     </g>
     <g id="text_11">
      <!-- $c_3$ -->
      <g transform="translate(158.148889 98.082366) scale(0.1 -0.1)">
       <use xlink:href="#LMMathItalic12-Regular-63" transform="scale(0.996264)"/>
       <use xlink:href="#LMRoman17-Regular-33" transform="translate(41.983234 -14.943915) scale(0.697382)"/>
      </g>
     </g>
    </g>
   </g>
   <g id="matplotlib.axis_2">
    <g id="ytick_1">
     <g id="line2d_12">
      <defs>
       <path id="m1827140d91" d="M 0 0 
L -3.5 0 
" style="stroke: #000000; stroke-width: 0.8"/>
      </defs>
      <g>
       <use xlink:href="#m1827140d91" x="34.412689" y="71.216117" style="stroke: #000000; stroke-width: 0.8"/>
      </g>
     </g>
     <g id="text_12">
      <!-- $\mathdefault{0.8}$ -->
      <g transform="translate(14.68264 74.675397) scale(0.1 -0.1)">
       <defs>
        <path id="LMMathItalic12-Regular-3a" d="M 1178 307 
C 1178 492 1024 619 870 619 
C 685 619 557 466 557 313 
C 557 128 710 0 864 0 
C 1050 0 1178 153 1178 307 
z
" transform="scale(0.015625)"/>
        <path id="LMRoman17-Regular-38" d="M 2720 1011 
C 2720 1590 2330 1858 2074 2029 
C 1984 2092 1933 2124 1741 2264 
C 2144 2468 2554 2773 2554 3263 
C 2554 3842 1990 4179 1472 4179 
C 890 4179 378 3759 378 3180 
C 378 3021 416 2747 666 2505 
C 730 2442 998 2251 1171 2130 
C 883 1983 211 1634 211 934 
C 211 279 838 -128 1459 -128 
C 2144 -128 2720 362 2720 1011 
z
M 2336 3262 
C 2336 2669 1670 2331 1638 2331 
C 1638 2331 1626 2331 1574 2370 
L 902 2822 
C 851 2854 595 3051 595 3351 
C 595 3739 998 4032 1459 4032 
C 1965 4032 2336 3676 2336 3262 
z
M 2483 851 
C 2483 381 2010 25 1472 25 
C 890 25 448 438 448 940 
C 448 1443 838 1862 1280 2060 
L 2080 1519 
C 2176 1449 2483 1240 2483 851 
z
" transform="scale(0.015625)"/>
       </defs>
       <use xlink:href="#LMRoman17-Regular-30" transform="scale(0.996264)"/>
       <use xlink:href="#LMMathItalic12-Regular-3a" transform="translate(45.690948 0) scale(0.996264)"/>
       <use xlink:href="#LMRoman17-Regular-38" transform="translate(72.788125 0) scale(0.996264)"/>
      </g>
     </g>
    </g>
    <g id="ytick_2">
     <g id="line2d_13">
      <g>
       <use xlink:href="#m1827140d91" x="34.412689" y="48.870505" style="stroke: #000000; stroke-width: 0.8"/>
      </g>
     </g>
     <g id="text_13">
      <!-- $\mathdefault{1.0}$ -->
      <g transform="translate(14.68264 52.329784) scale(0.1 -0.1)">
       <defs>
        <path id="LMRoman17-Regular-31" d="M 2458 0 
L 2458 160 
L 2266 160 
C 1715 160 1702 230 1702 458 
L 1702 4058 
C 1702 4192 1696 4192 1606 4192 
C 1357 3916 979 3827 621 3827 
C 602 3827 570 3827 563 3808 
C 557 3795 557 3782 557 3648 
C 755 3648 1088 3686 1344 3839 
L 1344 461 
C 1344 236 1331 160 781 160 
L 589 160 
L 589 0 
L 1523 0 
L 2458 0 
z
" transform="scale(0.015625)"/>
       </defs>
       <use xlink:href="#LMRoman17-Regular-31" transform="scale(0.996264)"/>
       <use xlink:href="#LMMathItalic12-Regular-3a" transform="translate(45.690948 0) scale(0.996264)"/>
       <use xlink:href="#LMRoman17-Regular-30" transform="translate(72.788125 0) scale(0.996264)"/>
      </g>
     </g>
    </g>
    <g id="ytick_3">
     <g id="line2d_14">
      <g>
       <use xlink:href="#m1827140d91" x="34.412689" y="26.524892" style="stroke: #000000; stroke-width: 0.8"/>
      </g>
     </g>
     <g id="text_14">
      <!-- $\mathdefault{1.2}$ -->
      <g transform="translate(14.68264 29.984172) scale(0.1 -0.1)">
       <use xlink:href="#LMRoman17-Regular-31" transform="scale(0.996264)"/>
       <use xlink:href="#LMMathItalic12-Regular-3a" transform="translate(45.690948 0) scale(0.996264)"/>
       <use xlink:href="#LMRoman17-Regular-32" transform="translate(72.788125 0) scale(0.996264)"/>
      </g>
     </g>
    </g>
    <g id="ytick_4">
     <g id="line2d_15">
      <g>
       <use xlink:href="#m1827140d91" x="34.412689" y="4.17928" style="stroke: #000000; stroke-width: 0.8"/>
      </g>
     </g>
     <g id="text_15">
      <!-- $\mathdefault{1.4}$ -->
      <g transform="translate(14.68264 7.638559) scale(0.1 -0.1)">
       <defs>
        <path id="LMRoman17-Regular-34" d="M 2803 1114 
L 2803 1280 
L 2150 1280 
L 2150 4154 
C 2150 4288 2144 4288 2029 4288 
L 128 1280 
L 128 1114 
L 1779 1114 
L 1779 487 
C 1779 255 1766 192 1318 192 
L 1197 192 
L 1197 32 
C 1402 32 1747 32 1965 32 
C 2182 32 2528 32 2733 32 
L 2733 192 
L 2611 192 
C 2163 192 2150 255 2150 487 
L 2150 1114 
L 2803 1114 
z
M 1798 1280 
L 256 1280 
L 1798 3734 
L 1798 1280 
z
" transform="scale(0.015625)"/>
       </defs>
       <use xlink:href="#LMRoman17-Regular-31" transform="scale(0.996264)"/>
       <use xlink:href="#LMMathItalic12-Regular-3a" transform="translate(45.690948 0) scale(0.996264)"/>
       <use xlink:href="#LMRoman17-Regular-34" transform="translate(72.788125 0) scale(0.996264)"/>
      </g>
     </g>
    </g>
    <g id="text_16">
     <!-- $H(z)$ -->
     <g transform="translate(8.19198 54.995908) rotate(-90) scale(0.1 -0.1)">
      <defs>
       <path id="LMMathItalic12-Regular-48" d="M 5491 4282 
C 5491 4352 5434 4352 5395 4352 
C 5280 4352 5146 4352 5024 4352 
L 4269 4352 
C 4147 4352 4013 4352 3891 4352 
C 3846 4352 3770 4352 3770 4231 
C 3770 4167 3814 4167 3936 4167 
C 4320 4167 4320 4116 4320 4046 
C 4320 4046 4320 3995 4294 3900 
L 3904 2361 
L 1971 2361 
L 2355 3887 
C 2413 4103 2426 4167 2880 4167 
C 2995 4167 3059 4167 3059 4282 
C 3059 4352 3002 4352 2963 4352 
C 2848 4352 2714 4352 2592 4352 
L 1837 4352 
C 1715 4352 1581 4352 1459 4352 
C 1414 4352 1338 4352 1338 4231 
C 1338 4167 1382 4167 1504 4167 
C 1888 4167 1888 4116 1888 4046 
C 1888 4046 1888 3995 1862 3899 
L 998 472 
C 941 249 928 185 486 185 
C 339 185 294 185 294 64 
C 294 0 365 0 384 0 
C 499 0 634 0 755 0 
L 1510 0 
C 1632 0 1766 0 1888 0 
C 1939 0 2010 0 2010 121 
C 2010 185 1952 185 1856 185 
C 1466 185 1466 236 1466 300 
C 1466 300 1466 351 1478 402 
L 1920 2176 
L 3859 2176 
L 3411 376 
C 3341 185 3238 185 2861 185 
C 2784 185 2726 185 2726 64 
C 2726 0 2797 0 2816 0 
C 2931 0 3066 0 3187 0 
L 3942 0 
C 4064 0 4198 0 4320 0 
C 4371 0 4442 0 4442 121 
C 4442 185 4384 185 4288 185 
C 3898 185 3898 236 3898 300 
C 3898 300 3898 351 3910 402 
L 4787 3887 
C 4845 4103 4858 4167 5312 4167 
C 5427 4167 5491 4167 5491 4282 
z
" transform="scale(0.015625)"/>
       <path id="LMRoman17-Regular-28" d="M 1958 -1561 
C 1958 -1561 1958 -1542 1939 -1523 
C 1645 -1224 858 -407 858 1581 
C 858 3569 1632 4379 1946 4697 
C 1946 4697 1958 4717 1958 4736 
C 1958 4755 1939 4768 1914 4768 
C 1843 4768 1299 4296 986 3594 
C 666 2887 576 2199 576 1588 
C 576 1128 621 351 1005 -471 
C 1312 -1135 1837 -1600 1914 -1600 
C 1946 -1600 1958 -1587 1958 -1561 
z
" transform="scale(0.015625)"/>
       <path id="LMMathItalic12-Regular-7a" d="M 2726 876 
C 2726 903 2720 942 2656 942 
C 2605 942 2598 917 2579 855 
C 2438 488 2061 338 1811 338 
C 1677 338 1549 376 1414 425 
C 1158 512 1088 512 1005 512 
C 941 512 870 512 813 486 
C 1088 803 1312 1004 1632 1296 
C 2016 1632 2182 1793 2272 1891 
C 2720 2338 2944 2713 2944 2764 
C 2944 2816 2880 2816 2880 2816 
C 2835 2816 2822 2793 2790 2750 
C 2630 2494 2477 2367 2310 2367 
C 2176 2367 2106 2421 1984 2565 
C 1850 2715 1741 2816 1555 2816 
C 1088 2816 806 2257 806 2128 
C 806 2108 813 2068 870 2068 
C 922 2068 928 2091 947 2133 
C 1056 2372 1363 2414 1485 2414 
C 1619 2414 1747 2376 1882 2327 
C 2125 2240 2227 2240 2291 2240 
C 2336 2240 2362 2240 2394 2246 
C 2182 1994 1837 1683 1549 1418 
C 1139 1056 1030 939 902 816 
C 512 415 275 33 275 -12 
C 275 -51 307 -64 346 -64 
C 384 -64 390 -57 435 14 
C 538 163 742 384 979 384 
C 1114 384 1178 342 1306 193 
C 1427 61 1536 -64 1741 -64 
C 2368 -64 2726 732 2726 876 
z
" transform="scale(0.015625)"/>
       <path id="LMRoman17-Regular-29" d="M 1683 1581 
C 1683 2040 1638 2817 1254 3639 
C 947 4303 422 4768 346 4768 
C 326 4768 301 4761 301 4729 
C 301 4729 307 4710 314 4697 
C 621 4378 1402 3568 1402 1584 
C 1402 -407 627 -1217 314 -1537 
C 307 -1549 301 -1568 301 -1568 
C 301 -1600 326 -1600 346 -1600 
C 416 -1600 960 -1128 1274 -426 
C 1594 281 1683 969 1683 1581 
z
" transform="scale(0.015625)"/>
      </defs>
      <use xlink:href="#LMMathItalic12-Regular-48" transform="scale(0.996264)"/>
      <use xlink:href="#LMRoman17-Regular-28" transform="translate(88.521773 0) scale(0.996264)"/>
      <use xlink:href="#LMMathItalic12-Regular-7a" transform="translate(123.8033 0) scale(0.996264)"/>
      <use xlink:href="#LMRoman17-Regular-29" transform="translate(173.558445 0) scale(0.996264)"/>
     </g>
    </g>
   </g>
   <g id="LineCollection_1">
    <path d="M 66.382051 80.516219 
L 66.382051 7.564477 
" clip-path="url(#p245cf7378f)" style="fill: none; stroke-dasharray: 1,1.65; stroke-dashoffset: 0; stroke: #a9a9a9"/>
    <path d="M 98.351412 80.516219 
L 98.351412 7.564477 
" clip-path="url(#p245cf7378f)" style="fill: none; stroke-dasharray: 1,1.65; stroke-dashoffset: 0; stroke: #a9a9a9"/>
    <path d="M 130.320774 80.516219 
L 130.320774 7.564477 
" clip-path="url(#p245cf7378f)" style="fill: none; stroke-dasharray: 1,1.65; stroke-dashoffset: 0; stroke: #a9a9a9"/>
    <path d="M 162.290136 80.516219 
L 162.290136 7.564477 
" clip-path="url(#p245cf7378f)" style="fill: none; stroke-dasharray: 1,1.65; stroke-dashoffset: 0; stroke: #a9a9a9"/>
    <path d="M 194.259498 80.516219 
L 194.259498 7.564477 
" clip-path="url(#p245cf7378f)" style="fill: none; stroke-dasharray: 1,1.65; stroke-dashoffset: 0; stroke: #a9a9a9"/>
   </g>
   <g id="line2d_16">
    <path d="M 59.988178 7.564477 
L 61.409039 9.815148 
L 62.829899 12.065818 
L 64.25076 14.316489 
L 65.67162 16.56716 
L 66.382051 17.692495 
L 67.092481 18.506897 
L 68.513341 20.1357 
L 69.934202 21.764504 
L 71.355062 23.393308 
L 72.775923 25.022111 
L 74.196783 26.650915 
L 75.617644 28.279719 
L 77.038505 29.908522 
L 78.459365 31.537326 
L 79.880226 33.166129 
L 81.301086 34.794933 
L 82.721947 36.423737 
L 84.142807 38.05254 
L 85.563668 39.681344 
L 86.984528 41.310148 
L 88.405389 42.938951 
L 89.826249 44.567755 
L 91.24711 46.196558 
L 92.66797 47.825362 
L 94.088831 49.454166 
L 95.509691 51.082969 
L 96.930552 52.711773 
L 98.351412 54.340577 
L 98.351412 54.340577 
L 99.772273 55.503938 
L 101.193133 56.6673 
L 102.613994 57.830662 
L 104.034855 58.994024 
L 105.455715 60.157386 
L 106.876576 61.320748 
L 108.297436 62.48411 
L 109.718297 63.647472 
L 111.139157 64.810834 
L 112.560018 65.974196 
L 113.980878 67.137558 
L 115.401739 68.300919 
L 116.822599 69.464281 
L 118.24346 70.627643 
L 119.66432 71.791005 
L 121.085181 72.954367 
L 122.506041 74.117729 
L 123.926902 75.281091 
L 125.347762 76.444453 
L 126.768623 77.607815 
L 128.189484 78.771177 
L 129.610344 79.934539 
L 130.320774 80.516219 
L 131.031205 79.934539 
L 132.452065 78.771177 
L 133.872926 77.607815 
L 135.293786 76.444453 
L 136.714647 75.281091 
L 138.135507 74.117729 
L 139.556368 72.954367 
L 140.977228 71.791005 
L 142.398089 70.627643 
L 143.818949 69.464281 
L 145.23981 68.300919 
L 146.66067 67.137558 
L 148.081531 65.974196 
L 149.502391 64.810834 
L 150.923252 63.647472 
L 152.344113 62.48411 
L 153.764973 61.320748 
L 155.185834 60.157386 
L 156.606694 58.994024 
L 158.027555 57.830662 
L 159.448415 56.6673 
L 160.869276 55.503938 
L 162.290136 54.340577 
L 162.290136 54.340577 
L 163.710997 52.711773 
L 165.131857 51.082969 
L 166.552718 49.454166 
L 167.973578 47.825362 
L 169.394439 46.196558 
L 170.815299 44.567755 
L 172.23616 42.938951 
L 173.65702 41.310148 
L 175.077881 39.681344 
L 176.498741 38.05254 
L 177.919602 36.423737 
L 179.340463 34.794933 
L 180.761323 33.166129 
L 182.182184 31.537326 
L 183.603044 29.908522 
L 185.023905 28.279719 
L 186.444765 26.650915 
L 187.865626 25.022111 
L 189.286486 23.393308 
L 190.707347 21.764504 
L 192.128207 20.1357 
L 193.549068 18.506897 
L 194.259498 17.692495 
L 194.969928 16.56716 
L 196.390789 14.316489 
L 197.811649 12.065818 
L 199.23251 9.815148 
L 200.65337 7.564477 
" clip-path="url(#p245cf7378f)" style="fill: none; stroke: #000000; stroke-linecap: square"/>
   </g>
   <g id="patch_3">
    <path d="M 34.412689 84.163807 
L 34.412689 3.91689 
" style="fill: none; stroke: #000000; stroke-width: 0.8; stroke-linejoin: miter; stroke-linecap: square"/>
   </g>
   <g id="patch_4">
    <path d="M 226.22886 84.163807 
L 226.22886 3.91689 
" style="fill: none; stroke: #000000; stroke-width: 0.8; stroke-linejoin: miter; stroke-linecap: square"/>
   </g>
   <g id="patch_5">
    <path d="M 34.412689 84.163807 
L 226.22886 84.163807 
" style="fill: none; stroke: #000000; stroke-width: 0.8; stroke-linejoin: miter; stroke-linecap: square"/>
   </g>
   <g id="patch_6">
    <path d="M 34.412689 3.91689 
L 226.22886 3.91689 
" style="fill: none; stroke: #000000; stroke-width: 0.8; stroke-linejoin: miter; stroke-linecap: square"/>
   </g>
  </g>
 </g>
 <defs>
  <clipPath id="p245cf7378f">
   <rect x="34.412689" y="3.91689" width="191.816171" height="80.246916"/>
  </clipPath>
 </defs>
</svg>
