<?xml version="1.0" encoding="utf-8" standalone="no"?>
<!DOCTYPE svg PUBLIC "-//W3C//DTD SVG 1.1//EN"
  "http://www.w3.org/Graphics/SVG/1.1/DTD/svg11.dtd">
<svg xmlns:xlink="http://www.w3.org/1999/xlink" width="229.43952pt" height="346.43952pt" viewBox="0 0 229.43952 346.43952" xmlns="http://www.w3.org/2000/svg" version="1.1">
 <metadata>
  <rdf:RDF xmlns:dc="http://purl.org/dc/elements/1.1/" xmlns:cc="http://creativecommons.org/ns#" xmlns:rdf="http://www.w3.org/1999/02/22-rdf-syntax-ns#">
   <cc:Work>
    <dc:type rdf:resource="http://purl.org/dc/dcmitype/StillImage"/>
    <dc:date>2022-10-11T10:37:30.261574</dc:date>
    <dc:format>image/svg+xml</dc:format>
    <dc:creator>
     <cc:Agent>
      <dc:title>Matplotlib v3.6.0, https://matplotlib.org/</dc:title>
     </cc:Agent>
    </dc:creator>
   </cc:Work>
  </rdf:RDF>
 </metadata>
 <defs>
  <style type="text/css">*{stroke-linejoin: round; stroke-linecap: butt}</style>
 </defs>
 <g id="figure_1">
  <g id="patch_1">
   <path d="M 0 346.43952 
L 229.43952 346.43952 
L 229.43952 0 
L 0 0 
z
" style="fill: #ffffff"/>
  </g>
  <g id="axes_1">
   <g id="patch_2">
    <path d="M 42.179188 92.412029 
L 228.71952 92.412029 
L 228.71952 0.72 
L 42.179188 0.72 
z
" style="fill: #ffffff"/>
   </g>
   <g id="matplotlib.axis_1">
    <g id="xtick_1">
     <g id="line2d_1">
      <defs>
       <path id="m189eeab3d8" d="M 0 0 
L 0 3.5 
" style="stroke: #000000; stroke-width: 0.8"/>
      </defs>
      <g>
       <use xlink:href="#m189eeab3d8" x="78.921981" y="92.412029" style="stroke: #000000; stroke-width: 0.8"/>
      </g>
     </g>
    </g>
    <g id="xtick_2">
     <g id="line2d_2">
      <g>
       <use xlink:href="#m189eeab3d8" x="135.449354" y="92.412029" style="stroke: #000000; stroke-width: 0.8"/>
      </g>
     </g>
    </g>
    <g id="xtick_3">
     <g id="line2d_3">
      <g>
       <use xlink:href="#m189eeab3d8" x="191.976727" y="92.412029" style="stroke: #000000; stroke-width: 0.8"/>
      </g>
     </g>
    </g>
   </g>
   <g id="matplotlib.axis_2">
    <g id="ytick_1">
     <g id="line2d_4">
      <defs>
       <path id="m41f133f1ab" d="M 0 0 
L -3.5 0 
" style="stroke: #000000; stroke-width: 0.8"/>
      </defs>
      <g>
       <use xlink:href="#m41f133f1ab" x="42.179188" y="87.068832" style="stroke: #000000; stroke-width: 0.8"/>
      </g>
     </g>
     <g id="text_1">
      <!-- $\mathdefault{12}$ -->
      <g transform="translate(25.216548 90.528111) scale(0.1 -0.1)">
       <defs>
        <path id="LMRoman17-Regular-31" d="M 2458 0 
L 2458 160 
L 2266 160 
C 1715 160 1702 230 1702 458 
L 1702 4058 
C 1702 4192 1696 4192 1606 4192 
C 1357 3916 979 3827 621 3827 
C 602 3827 570 3827 563 3808 
C 557 3795 557 3782 557 3648 
C 755 3648 1088 3686 1344 3839 
L 1344 461 
C 1344 236 1331 160 781 160 
L 589 160 
L 589 0 
L 1523 0 
L 2458 0 
z
" transform="scale(0.015625)"/>
        <path id="LMRoman17-Regular-32" d="M 2669 989 
L 2554 989 
C 2490 536 2438 459 2413 420 
C 2381 369 1920 369 1830 369 
L 602 369 
L 1824 1597 
C 2214 1967 2669 2402 2669 3035 
C 2669 3790 2067 4224 1395 4224 
C 691 4224 262 3604 262 3030 
C 262 2780 448 2748 525 2748 
C 589 2748 781 2787 781 3010 
C 781 3207 614 3264 525 3264 
C 486 3264 448 3258 422 3245 
C 544 3790 915 4058 1306 4058 
C 1862 4058 2227 3617 2227 3035 
C 2227 2479 1901 2000 1536 1584 
L 262 146 
L 262 0 
L 2515 0 
L 2669 989 
z
" transform="scale(0.015625)"/>
       </defs>
       <use xlink:href="#LMRoman17-Regular-31" transform="scale(0.996264)"/>
       <use xlink:href="#LMRoman17-Regular-32" transform="translate(45.690948 0) scale(0.996264)"/>
      </g>
     </g>
    </g>
    <g id="ytick_2">
     <g id="line2d_5">
      <g>
       <use xlink:href="#m41f133f1ab" x="42.179188" y="42.347452" style="stroke: #000000; stroke-width: 0.8"/>
      </g>
     </g>
     <g id="text_2">
      <!-- $\mathdefault{14}$ -->
      <g transform="translate(25.216548 45.806732) scale(0.1 -0.1)">
       <defs>
        <path id="LMRoman17-Regular-34" d="M 2803 1114 
L 2803 1280 
L 2150 1280 
L 2150 4154 
C 2150 4288 2144 4288 2029 4288 
L 128 1280 
L 128 1114 
L 1779 1114 
L 1779 487 
C 1779 255 1766 192 1318 192 
L 1197 192 
L 1197 32 
C 1402 32 1747 32 1965 32 
C 2182 32 2528 32 2733 32 
L 2733 192 
L 2611 192 
C 2163 192 2150 255 2150 487 
L 2150 1114 
L 2803 1114 
z
M 1798 1280 
L 256 1280 
L 1798 3734 
L 1798 1280 
z
" transform="scale(0.015625)"/>
       </defs>
       <use xlink:href="#LMRoman17-Regular-31" transform="scale(0.996264)"/>
       <use xlink:href="#LMRoman17-Regular-34" transform="translate(45.690948 0) scale(0.996264)"/>
      </g>
     </g>
    </g>
    <g id="text_3">
     <!-- $G(z)$ -->
     <g transform="translate(18.725888 56.892692) rotate(-90) scale(0.1 -0.1)">
      <defs>
       <path id="LMMathItalic12-Regular-47" d="M 4518 1664 
C 4518 1728 4454 1728 4435 1728 
C 4326 1728 4205 1728 4090 1728 
L 3744 1728 
L 2931 1728 
C 2874 1728 2797 1728 2797 1613 
C 2797 1549 2848 1543 2848 1543 
L 3008 1543 
C 3514 1543 3514 1491 3514 1397 
C 3514 1397 3392 749 3270 559 
C 3027 203 2522 57 2144 57 
C 1651 57 851 312 851 1410 
C 851 1836 1005 2808 1626 3526 
C 2029 3984 2624 4295 3187 4295 
C 3942 4295 4211 3653 4211 3068 
C 4211 2967 4186 2827 4186 2738 
C 4186 2681 4250 2681 4269 2681 
C 4339 2681 4346 2687 4371 2801 
L 4774 4423 
C 4774 4480 4717 4480 4717 4480 
C 4717 4480 4678 4480 4627 4416 
L 4186 3888 
C 4154 3939 4026 4162 3776 4309 
C 3501 4480 3226 4480 3130 4480 
C 1760 4480 320 3095 320 1595 
C 320 546 1050 -128 2010 -128 
C 2470 -128 3053 24 3373 425 
C 3443 184 3584 12 3629 12 
C 3661 12 3674 32 3674 32 
C 3680 44 3731 271 3763 387 
L 3866 801 
L 3987 1297 
C 4051 1543 4064 1543 4416 1543 
C 4442 1543 4518 1543 4518 1664 
z
" transform="scale(0.015625)"/>
       <path id="LMRoman17-Regular-28" d="M 1958 -1561 
C 1958 -1561 1958 -1542 1939 -1523 
C 1645 -1224 858 -407 858 1581 
C 858 3569 1632 4379 1946 4697 
C 1946 4697 1958 4717 1958 4736 
C 1958 4755 1939 4768 1914 4768 
C 1843 4768 1299 4296 986 3594 
C 666 2887 576 2199 576 1588 
C 576 1128 621 351 1005 -471 
C 1312 -1135 1837 -1600 1914 -1600 
C 1946 -1600 1958 -1587 1958 -1561 
z
" transform="scale(0.015625)"/>
       <path id="LMMathItalic12-Regular-7a" d="M 2726 876 
C 2726 903 2720 942 2656 942 
C 2605 942 2598 917 2579 855 
C 2438 488 2061 338 1811 338 
C 1677 338 1549 376 1414 425 
C 1158 512 1088 512 1005 512 
C 941 512 870 512 813 486 
C 1088 803 1312 1004 1632 1296 
C 2016 1632 2182 1793 2272 1891 
C 2720 2338 2944 2713 2944 2764 
C 2944 2816 2880 2816 2880 2816 
C 2835 2816 2822 2793 2790 2750 
C 2630 2494 2477 2367 2310 2367 
C 2176 2367 2106 2421 1984 2565 
C 1850 2715 1741 2816 1555 2816 
C 1088 2816 806 2257 806 2128 
C 806 2108 813 2068 870 2068 
C 922 2068 928 2091 947 2133 
C 1056 2372 1363 2414 1485 2414 
C 1619 2414 1747 2376 1882 2327 
C 2125 2240 2227 2240 2291 2240 
C 2336 2240 2362 2240 2394 2246 
C 2182 1994 1837 1683 1549 1418 
C 1139 1056 1030 939 902 816 
C 512 415 275 33 275 -12 
C 275 -51 307 -64 346 -64 
C 384 -64 390 -57 435 14 
C 538 163 742 384 979 384 
C 1114 384 1178 342 1306 193 
C 1427 61 1536 -64 1741 -64 
C 2368 -64 2726 732 2726 876 
z
" transform="scale(0.015625)"/>
       <path id="LMRoman17-Regular-29" d="M 1683 1581 
C 1683 2040 1638 2817 1254 3639 
C 947 4303 422 4768 346 4768 
C 326 4768 301 4761 301 4729 
C 301 4729 307 4710 314 4697 
C 621 4378 1402 3568 1402 1584 
C 1402 -407 627 -1217 314 -1537 
C 307 -1549 301 -1568 301 -1568 
C 301 -1600 326 -1600 346 -1600 
C 416 -1600 960 -1128 1274 -426 
C 1594 281 1683 969 1683 1581 
z
" transform="scale(0.015625)"/>
      </defs>
      <use xlink:href="#LMMathItalic12-Regular-47" transform="scale(0.996264)"/>
      <use xlink:href="#LMRoman17-Regular-28" transform="translate(76.946862 0) scale(0.996264)"/>
      <use xlink:href="#LMMathItalic12-Regular-7a" transform="translate(112.22839 0) scale(0.996264)"/>
      <use xlink:href="#LMRoman17-Regular-29" transform="translate(161.983535 0) scale(0.996264)"/>
     </g>
    </g>
   </g>
   <g id="LineCollection_1">
    <path d="M 78.921981 88.24421 
L 78.921981 4.88782 
" clip-path="url(#p69e5dd1539)" style="fill: none; stroke-dasharray: 1,1.65; stroke-dashoffset: 0; stroke: #a9a9a9"/>
    <path d="M 107.185667 88.24421 
L 107.185667 4.88782 
" clip-path="url(#p69e5dd1539)" style="fill: none; stroke-dasharray: 1,1.65; stroke-dashoffset: 0; stroke: #a9a9a9"/>
    <path d="M 135.449354 88.24421 
L 135.449354 4.88782 
" clip-path="url(#p69e5dd1539)" style="fill: none; stroke-dasharray: 1,1.65; stroke-dashoffset: 0; stroke: #a9a9a9"/>
    <path d="M 163.713041 88.24421 
L 163.713041 4.88782 
" clip-path="url(#p69e5dd1539)" style="fill: none; stroke-dasharray: 1,1.65; stroke-dashoffset: 0; stroke: #a9a9a9"/>
    <path d="M 191.976727 88.24421 
L 191.976727 4.88782 
" clip-path="url(#p69e5dd1539)" style="fill: none; stroke-dasharray: 1,1.65; stroke-dashoffset: 0; stroke: #a9a9a9"/>
   </g>
   <g id="line2d_6">
    <path d="M 50.658294 4.88782 
L 52.371245 6.772743 
L 54.084195 8.649771 
L 55.797146 10.518904 
L 57.510097 12.380141 
L 59.223048 14.233483 
L 60.935998 16.07893 
L 62.648949 17.916482 
L 64.3619 19.746138 
L 66.07485 21.567899 
L 67.787801 23.381765 
L 69.500752 25.187735 
L 71.213703 26.98581 
L 72.926653 28.77599 
L 74.639604 30.558275 
L 76.352555 32.332664 
L 78.065505 34.099158 
L 78.921981 34.979445 
L 79.778456 35.762293 
L 81.491407 37.322067 
L 83.204357 38.873947 
L 84.917308 40.417931 
L 86.630259 41.95402 
L 88.34321 43.482213 
L 90.05616 45.002512 
L 91.769111 46.514915 
L 93.482062 48.019422 
L 95.195012 49.516035 
L 96.907963 51.004752 
L 98.620914 52.485574 
L 100.333865 53.9585 
L 102.046815 55.423532 
L 103.759766 56.880668 
L 105.472717 58.329908 
L 107.185667 59.771254 
L 107.185667 59.771254 
L 108.898618 61.061802 
L 110.611569 62.344454 
L 112.32452 63.619211 
L 114.03747 64.886073 
L 115.750421 66.14504 
L 117.463372 67.396111 
L 119.176322 68.639288 
L 120.889273 69.874568 
L 122.602224 71.101954 
L 124.315174 72.321444 
L 126.028125 73.533039 
L 127.741076 74.736739 
L 129.454027 75.932543 
L 131.166977 77.120453 
L 132.879928 78.300467 
L 134.592879 79.472585 
L 135.449354 80.055684 
L 136.305829 80.279627 
L 138.01878 80.721592 
L 139.731731 81.155662 
L 141.444682 81.581837 
L 143.157632 82.000116 
L 144.870583 82.4105 
L 146.583534 82.812989 
L 148.296484 83.207582 
L 150.009435 83.594281 
L 151.722386 83.973084 
L 153.435336 84.343991 
L 155.148287 84.707004 
L 156.861238 85.062121 
L 158.574189 85.409342 
L 160.287139 85.748669 
L 162.00009 86.0801 
L 163.713041 86.403636 
L 163.713041 86.403636 
L 165.425991 86.576375 
L 167.138942 86.741218 
L 168.851893 86.898165 
L 170.564844 87.047218 
L 172.277794 87.188375 
L 173.990745 87.321637 
L 175.703696 87.447004 
L 177.416646 87.564475 
L 179.129597 87.674051 
L 180.842548 87.775732 
L 182.555498 87.869517 
L 184.268449 87.955408 
L 185.9814 88.033403 
L 187.694351 88.103502 
L 189.407301 88.165707 
L 191.120252 88.220016 
L 191.976727 88.24421 
L 192.833203 88.170965 
L 194.546153 88.018555 
L 196.259104 87.858249 
L 197.972055 87.690049 
L 199.685006 87.513952 
L 201.397956 87.329961 
L 203.110907 87.138074 
L 204.823858 86.938292 
L 206.536808 86.730615 
L 208.249759 86.515043 
L 209.96271 86.291575 
L 211.67566 86.060212 
L 213.388611 85.820953 
L 215.101562 85.5738 
L 216.814513 85.318751 
L 218.527463 85.055806 
L 220.240414 84.784967 
" clip-path="url(#p69e5dd1539)" style="fill: none; stroke: #000000; stroke-linecap: square"/>
   </g>
   <g id="patch_3">
    <path d="M 42.179188 92.412029 
L 42.179188 0.72 
" style="fill: none; stroke: #000000; stroke-width: 0.8; stroke-linejoin: miter; stroke-linecap: square"/>
   </g>
   <g id="patch_4">
    <path d="M 228.71952 92.412029 
L 228.71952 0.72 
" style="fill: none; stroke: #000000; stroke-width: 0.8; stroke-linejoin: miter; stroke-linecap: square"/>
   </g>
   <g id="patch_5">
    <path d="M 42.179188 92.412029 
L 228.71952 92.412029 
" style="fill: none; stroke: #000000; stroke-width: 0.8; stroke-linejoin: miter; stroke-linecap: square"/>
   </g>
   <g id="patch_6">
    <path d="M 42.179188 0.72 
L 228.71952 0.72 
" style="fill: none; stroke: #000000; stroke-width: 0.8; stroke-linejoin: miter; stroke-linecap: square"/>
   </g>
  </g>
  <g id="axes_2">
   <g id="patch_7">
    <path d="M 42.179188 317.008075 
L 228.71952 317.008075 
L 228.71952 103.060007 
L 42.179188 103.060007 
z
" style="fill: #ffffff"/>
   </g>
   <g id="matplotlib.axis_3">
    <g id="xtick_4">
     <g id="line2d_7">
      <g>
       <use xlink:href="#m189eeab3d8" x="78.921981" y="317.008075" style="stroke: #000000; stroke-width: 0.8"/>
      </g>
     </g>
     <g id="text_4">
      <!-- $\mathdefault{−2}$ -->
      <g transform="translate(72.556949 330.926635) scale(0.1 -0.1)">
       <defs>
        <path id="LMMathSymbols10-Regular-0" d="M 4442 1600 
C 4442 1728 4320 1728 4230 1728 
L 742 1728 
C 653 1728 531 1728 531 1600 
C 531 1472 653 1472 742 1472 
L 4230 1472 
C 4320 1472 4442 1472 4442 1600 
z
" transform="scale(0.015625)"/>
       </defs>
       <use xlink:href="#LMMathSymbols10-Regular-0" transform="scale(0.996264)"/>
       <use xlink:href="#LMRoman17-Regular-32" transform="translate(77.487468 0) scale(0.996264)"/>
      </g>
     </g>
    </g>
    <g id="xtick_5">
     <g id="line2d_8">
      <g>
       <use xlink:href="#m189eeab3d8" x="135.449354" y="317.008075" style="stroke: #000000; stroke-width: 0.8"/>
      </g>
     </g>
     <g id="text_5">
      <!-- $\mathdefault{0}$ -->
      <g transform="translate(132.958694 330.926635) scale(0.1 -0.1)">
       <defs>
        <path id="LMRoman17-Regular-30" d="M 2688 2025 
C 2688 2416 2682 3080 2413 3591 
C 2176 4039 1798 4198 1466 4198 
C 1158 4198 768 4058 525 3597 
C 269 3118 243 2524 243 2025 
C 243 1661 250 1106 448 619 
C 723 -39 1216 -128 1466 -128 
C 1760 -128 2208 -7 2470 600 
C 2662 1042 2688 1559 2688 2025 
z
M 2278 2096 
C 2278 1680 2278 1169 2202 792 
C 2067 95 1690 -26 1466 -26 
C 1056 -26 813 325 723 812 
C 653 1188 653 1738 653 2096 
C 653 2588 653 2997 736 3387 
C 858 3929 1216 4096 1466 4096 
C 1728 4096 2067 3923 2189 3400 
C 2272 3036 2278 2607 2278 2096 
z
" transform="scale(0.015625)"/>
       </defs>
       <use xlink:href="#LMRoman17-Regular-30" transform="scale(0.996264)"/>
      </g>
     </g>
    </g>
    <g id="xtick_6">
     <g id="line2d_9">
      <g>
       <use xlink:href="#m189eeab3d8" x="191.976727" y="317.008075" style="stroke: #000000; stroke-width: 0.8"/>
      </g>
     </g>
     <g id="text_6">
      <!-- $\mathdefault{2}$ -->
      <g transform="translate(189.486067 330.926635) scale(0.1 -0.1)">
       <use xlink:href="#LMRoman17-Regular-32" transform="scale(0.996264)"/>
      </g>
     </g>
    </g>
    <g id="text_7">
     <!-- $z$ -->
     <g transform="translate(133.132792 343.782357) scale(0.1 -0.1)">
      <use xlink:href="#LMMathItalic12-Regular-7a" transform="scale(0.996264)"/>
     </g>
    </g>
   </g>
   <g id="matplotlib.axis_4">
    <g id="ytick_3">
     <g id="line2d_10">
      <g>
       <use xlink:href="#m41f133f1ab" x="42.179188" y="314.69288" style="stroke: #000000; stroke-width: 0.8"/>
      </g>
     </g>
     <g id="text_8">
      <!-- $\mathdefault{−1.5}$ -->
      <g transform="translate(14.700396 318.15216) scale(0.1 -0.1)">
       <defs>
        <path id="LMMathItalic12-Regular-3a" d="M 1178 307 
C 1178 492 1024 619 870 619 
C 685 619 557 466 557 313 
C 557 128 710 0 864 0 
C 1050 0 1178 153 1178 307 
z
" transform="scale(0.015625)"/>
        <path id="LMRoman17-Regular-35" d="M 2669 1264 
C 2669 2030 2170 2624 1549 2624 
C 1222 2624 947 2503 730 2274 
L 730 3692 
C 794 3666 1056 3584 1325 3584 
C 1920 3584 2246 3911 2432 4100 
C 2432 4157 2432 4192 2394 4192 
C 2394 4192 2374 4192 2323 4163 
C 2099 4058 1837 3973 1517 3973 
C 1325 3973 1037 3999 723 4139 
C 653 4171 634 4171 634 4171 
C 602 4171 595 4164 595 4037 
L 595 2203 
C 595 2089 595 2057 659 2057 
C 691 2057 704 2070 736 2114 
C 941 2401 1222 2522 1542 2522 
C 1766 2522 2246 2382 2246 1289 
C 2246 1085 2246 715 2054 421 
C 1894 159 1645 25 1370 25 
C 947 25 518 320 403 814 
C 429 807 480 795 506 795 
C 589 795 749 840 749 1038 
C 749 1210 627 1280 506 1280 
C 358 1280 262 1190 262 1011 
C 262 454 704 -128 1382 -128 
C 2042 -128 2669 440 2669 1264 
z
" transform="scale(0.015625)"/>
       </defs>
       <use xlink:href="#LMMathSymbols10-Regular-0" transform="scale(0.996264)"/>
       <use xlink:href="#LMRoman17-Regular-31" transform="translate(77.487468 0) scale(0.996264)"/>
       <use xlink:href="#LMMathItalic12-Regular-3a" transform="translate(123.178416 0) scale(0.996264)"/>
       <use xlink:href="#LMRoman17-Regular-35" transform="translate(150.275593 0) scale(0.996264)"/>
      </g>
     </g>
    </g>
    <g id="ytick_4">
     <g id="line2d_11">
      <g>
       <use xlink:href="#m41f133f1ab" x="42.179188" y="279.806601" style="stroke: #000000; stroke-width: 0.8"/>
      </g>
     </g>
     <g id="text_9">
      <!-- $\mathdefault{−1.0}$ -->
      <g transform="translate(14.700396 283.26588) scale(0.1 -0.1)">
       <use xlink:href="#LMMathSymbols10-Regular-0" transform="scale(0.996264)"/>
       <use xlink:href="#LMRoman17-Regular-31" transform="translate(77.487468 0) scale(0.996264)"/>
       <use xlink:href="#LMMathItalic12-Regular-3a" transform="translate(123.178416 0) scale(0.996264)"/>
       <use xlink:href="#LMRoman17-Regular-30" transform="translate(150.275593 0) scale(0.996264)"/>
      </g>
     </g>
    </g>
    <g id="ytick_5">
     <g id="line2d_12">
      <g>
       <use xlink:href="#m41f133f1ab" x="42.179188" y="244.920321" style="stroke: #000000; stroke-width: 0.8"/>
      </g>
     </g>
     <g id="text_10">
      <!-- $\mathdefault{−0.5}$ -->
      <g transform="translate(14.700396 248.379601) scale(0.1 -0.1)">
       <use xlink:href="#LMMathSymbols10-Regular-0" transform="scale(0.996264)"/>
       <use xlink:href="#LMRoman17-Regular-30" transform="translate(77.487468 0) scale(0.996264)"/>
       <use xlink:href="#LMMathItalic12-Regular-3a" transform="translate(123.178416 0) scale(0.996264)"/>
       <use xlink:href="#LMRoman17-Regular-35" transform="translate(150.275593 0) scale(0.996264)"/>
      </g>
     </g>
    </g>
    <g id="ytick_6">
     <g id="line2d_13">
      <g>
       <use xlink:href="#m41f133f1ab" x="42.179188" y="210.034041" style="stroke: #000000; stroke-width: 0.8"/>
      </g>
     </g>
     <g id="text_11">
      <!-- $\mathdefault{0.0}$ -->
      <g transform="translate(22.44914 213.493321) scale(0.1 -0.1)">
       <use xlink:href="#LMRoman17-Regular-30" transform="scale(0.996264)"/>
       <use xlink:href="#LMMathItalic12-Regular-3a" transform="translate(45.690948 0) scale(0.996264)"/>
       <use xlink:href="#LMRoman17-Regular-30" transform="translate(72.788125 0) scale(0.996264)"/>
      </g>
     </g>
    </g>
    <g id="ytick_7">
     <g id="line2d_14">
      <g>
       <use xlink:href="#m41f133f1ab" x="42.179188" y="175.147762" style="stroke: #000000; stroke-width: 0.8"/>
      </g>
     </g>
     <g id="text_12">
      <!-- $\mathdefault{0.5}$ -->
      <g transform="translate(22.44914 178.607041) scale(0.1 -0.1)">
       <use xlink:href="#LMRoman17-Regular-30" transform="scale(0.996264)"/>
       <use xlink:href="#LMMathItalic12-Regular-3a" transform="translate(45.690948 0) scale(0.996264)"/>
       <use xlink:href="#LMRoman17-Regular-35" transform="translate(72.788125 0) scale(0.996264)"/>
      </g>
     </g>
    </g>
    <g id="ytick_8">
     <g id="line2d_15">
      <g>
       <use xlink:href="#m41f133f1ab" x="42.179188" y="140.261482" style="stroke: #000000; stroke-width: 0.8"/>
      </g>
     </g>
     <g id="text_13">
      <!-- $\mathdefault{1.0}$ -->
      <g transform="translate(22.44914 143.720762) scale(0.1 -0.1)">
       <use xlink:href="#LMRoman17-Regular-31" transform="scale(0.996264)"/>
       <use xlink:href="#LMMathItalic12-Regular-3a" transform="translate(45.690948 0) scale(0.996264)"/>
       <use xlink:href="#LMRoman17-Regular-30" transform="translate(72.788125 0) scale(0.996264)"/>
      </g>
     </g>
    </g>
    <g id="ytick_9">
     <g id="line2d_16">
      <g>
       <use xlink:href="#m41f133f1ab" x="42.179188" y="105.375202" style="stroke: #000000; stroke-width: 0.8"/>
      </g>
     </g>
     <g id="text_14">
      <!-- $\mathdefault{1.5}$ -->
      <g transform="translate(22.44914 108.834482) scale(0.1 -0.1)">
       <use xlink:href="#LMRoman17-Regular-31" transform="scale(0.996264)"/>
       <use xlink:href="#LMMathItalic12-Regular-3a" transform="translate(45.690948 0) scale(0.996264)"/>
       <use xlink:href="#LMRoman17-Regular-35" transform="translate(72.788125 0) scale(0.996264)"/>
      </g>
     </g>
    </g>
    <g id="text_15">
     <!-- $G'(z)$ -->
     <g transform="translate(8.209736 221.758256) rotate(-90) scale(0.1 -0.1)">
      <defs>
       <path id="LMMathSymbols10-Regular-30" d="M 1632 3066 
C 1677 3162 1677 3219 1677 3245 
C 1677 3437 1498 3578 1318 3578 
C 1062 3578 1005 3366 979 3283 
L 205 493 
C 198 467 186 435 186 403 
C 186 333 352 288 403 288 
C 403 288 448 288 486 378 
L 1632 3066 
z
" transform="scale(0.015625)"/>
      </defs>
      <use xlink:href="#LMMathItalic12-Regular-47" transform="scale(0.996264)"/>
      <use xlink:href="#LMMathSymbols10-Regular-30" transform="translate(76.946862 36.153639) scale(0.697382)"/>
      <use xlink:href="#LMRoman17-Regular-28" transform="translate(96.622954 0) scale(0.996264)"/>
      <use xlink:href="#LMMathItalic12-Regular-7a" transform="translate(131.904482 0) scale(0.996264)"/>
      <use xlink:href="#LMRoman17-Regular-29" transform="translate(181.659627 0) scale(0.996264)"/>
     </g>
    </g>
   </g>
   <g id="LineCollection_2">
    <path d="M 78.921981 307.283163 
L 78.921981 112.784919 
" clip-path="url(#p6d4cd2bd48)" style="fill: none; stroke-dasharray: 1,1.65; stroke-dashoffset: 0; stroke: #a9a9a9"/>
    <path d="M 107.185667 307.283163 
L 107.185667 112.784919 
" clip-path="url(#p6d4cd2bd48)" style="fill: none; stroke-dasharray: 1,1.65; stroke-dashoffset: 0; stroke: #a9a9a9"/>
    <path d="M 135.449354 307.283163 
L 135.449354 112.784919 
" clip-path="url(#p6d4cd2bd48)" style="fill: none; stroke-dasharray: 1,1.65; stroke-dashoffset: 0; stroke: #a9a9a9"/>
    <path d="M 163.713041 307.283163 
L 163.713041 112.784919 
" clip-path="url(#p6d4cd2bd48)" style="fill: none; stroke-dasharray: 1,1.65; stroke-dashoffset: 0; stroke: #a9a9a9"/>
    <path d="M 191.976727 307.283163 
L 191.976727 112.784919 
" clip-path="url(#p6d4cd2bd48)" style="fill: none; stroke-dasharray: 1,1.65; stroke-dashoffset: 0; stroke: #a9a9a9"/>
   </g>
   <g id="LineCollection_3">
    <path d="M 50.658294 210.034041 
L 220.240414 210.034041 
" clip-path="url(#p6d4cd2bd48)" style="fill: none; stroke-dasharray: 3.7,1.6; stroke-dashoffset: 0; stroke: #808080"/>
   </g>
   <g id="line2d_17">
    <path d="M 50.658294 307.283163 
L 78.921952 300.576067 
" clip-path="url(#p6d4cd2bd48)" style="fill: none; stroke: #ff7f0e; stroke-linecap: square"/>
   </g>
   <g id="line2d_18">
    <path d="M 78.921981 290.746028 
L 107.185639 284.038932 
" clip-path="url(#p6d4cd2bd48)" style="fill: none; stroke: #ff7f0e; stroke-linecap: square"/>
   </g>
   <g id="line2d_19">
    <path d="M 107.185667 276.681553 
L 135.449326 269.974456 
" clip-path="url(#p6d4cd2bd48)" style="fill: none; stroke: #ff7f0e; stroke-linecap: square"/>
   </g>
   <g id="line2d_20">
    <path d="M 135.449354 233.195251 
L 163.713012 226.488154 
" clip-path="url(#p6d4cd2bd48)" style="fill: none; stroke: #ff7f0e; stroke-linecap: square"/>
   </g>
   <g id="line2d_21">
    <path d="M 163.713041 219.130775 
L 191.976699 212.423679 
" clip-path="url(#p6d4cd2bd48)" style="fill: none; stroke: #ff7f0e; stroke-linecap: square"/>
   </g>
   <g id="line2d_22">
    <path d="M 191.976727 202.593641 
L 220.240386 195.886544 
" clip-path="url(#p6d4cd2bd48)" style="fill: none; stroke: #ff7f0e; stroke-linecap: square"/>
   </g>
   <g id="line2d_23">
    <defs>
     <path id="mccfb8d95e4" d="M 0 2 
C 0.530406 2 1.03916 1.789267 1.414214 1.414214 
C 1.789267 1.03916 2 0.530406 2 0 
C 2 -0.530406 1.789267 -1.03916 1.414214 -1.414214 
C 1.03916 -1.789267 0.530406 -2 0 -2 
C -0.530406 -2 -1.03916 -1.789267 -1.414214 -1.414214 
C -1.789267 -1.03916 -2 -0.530406 -2 0 
C -2 0.530406 -1.789267 1.03916 -1.414214 1.414214 
C -1.03916 1.789267 -0.530406 2 0 2 
z
" style="stroke: #ff7f0e"/>
    </defs>
    <g clip-path="url(#p6d4cd2bd48)">
     <use xlink:href="#mccfb8d95e4" x="78.921981" y="290.746028" style="fill: #ff7f0e; stroke: #ff7f0e"/>
     <use xlink:href="#mccfb8d95e4" x="107.185667" y="276.681553" style="fill: #ff7f0e; stroke: #ff7f0e"/>
     <use xlink:href="#mccfb8d95e4" x="135.449354" y="233.195251" style="fill: #ff7f0e; stroke: #ff7f0e"/>
     <use xlink:href="#mccfb8d95e4" x="163.713041" y="219.130775" style="fill: #ff7f0e; stroke: #ff7f0e"/>
     <use xlink:href="#mccfb8d95e4" x="191.976727" y="202.593641" style="fill: #ff7f0e; stroke: #ff7f0e"/>
    </g>
   </g>
   <g id="line2d_24">
    <defs>
     <path id="m4ca1fb9cfb" d="M 0 2 
C 0.530406 2 1.03916 1.789267 1.414214 1.414214 
C 1.789267 1.03916 2 0.530406 2 0 
C 2 -0.530406 1.789267 -1.03916 1.414214 -1.414214 
C 1.03916 -1.789267 0.530406 -2 0 -2 
C -0.530406 -2 -1.03916 -1.789267 -1.414214 -1.414214 
C -1.789267 -1.03916 -2 -0.530406 -2 0 
C -2 0.530406 -1.789267 1.03916 -1.414214 1.414214 
C -1.03916 1.789267 -0.530406 2 0 2 
z
" style="stroke: #ff7f0e"/>
    </defs>
    <g clip-path="url(#p6d4cd2bd48)">
     <use xlink:href="#m4ca1fb9cfb" x="78.921952" y="300.576067" style="fill: #ffffff; stroke: #ff7f0e"/>
     <use xlink:href="#m4ca1fb9cfb" x="107.185639" y="284.038932" style="fill: #ffffff; stroke: #ff7f0e"/>
     <use xlink:href="#m4ca1fb9cfb" x="135.449326" y="269.974456" style="fill: #ffffff; stroke: #ff7f0e"/>
     <use xlink:href="#m4ca1fb9cfb" x="163.713012" y="226.488154" style="fill: #ffffff; stroke: #ff7f0e"/>
     <use xlink:href="#m4ca1fb9cfb" x="191.976699" y="212.423679" style="fill: #ffffff; stroke: #ff7f0e"/>
    </g>
   </g>
   <g id="line2d_25">
    <path d="M 50.658322 112.784926 
L 78.921981 119.492023 
" clip-path="url(#p6d4cd2bd48)" style="fill: none; stroke: #1f77b4; stroke-linecap: square"/>
   </g>
   <g id="line2d_26">
    <path d="M 78.922009 129.322061 
L 107.185667 136.029158 
" clip-path="url(#p6d4cd2bd48)" style="fill: none; stroke: #1f77b4; stroke-linecap: square"/>
   </g>
   <g id="line2d_27">
    <path d="M 107.185696 143.386537 
L 135.449354 150.093633 
" clip-path="url(#p6d4cd2bd48)" style="fill: none; stroke: #1f77b4; stroke-linecap: square"/>
   </g>
   <g id="line2d_28">
    <path d="M 135.449382 186.872838 
L 163.713041 193.579935 
" clip-path="url(#p6d4cd2bd48)" style="fill: none; stroke: #1f77b4; stroke-linecap: square"/>
   </g>
   <g id="line2d_29">
    <path d="M 163.713069 200.937314 
L 191.976727 207.64441 
" clip-path="url(#p6d4cd2bd48)" style="fill: none; stroke: #1f77b4; stroke-linecap: square"/>
   </g>
   <g id="line2d_30">
    <path d="M 191.976756 217.474449 
L 220.240414 224.181545 
" clip-path="url(#p6d4cd2bd48)" style="fill: none; stroke: #1f77b4; stroke-linecap: square"/>
   </g>
   <g id="line2d_31">
    <defs>
     <path id="m0f4ed1b11f" d="M 0 2 
C 0.530406 2 1.03916 1.789267 1.414214 1.414214 
C 1.789267 1.03916 2 0.530406 2 0 
C 2 -0.530406 1.789267 -1.03916 1.414214 -1.414214 
C 1.03916 -1.789267 0.530406 -2 0 -2 
C -0.530406 -2 -1.03916 -1.789267 -1.414214 -1.414214 
C -1.789267 -1.03916 -2 -0.530406 -2 0 
C -2 0.530406 -1.789267 1.03916 -1.414214 1.414214 
C -1.03916 1.789267 -0.530406 2 0 2 
z
" style="stroke: #1f77b4"/>
    </defs>
    <g clip-path="url(#p6d4cd2bd48)">
     <use xlink:href="#m0f4ed1b11f" x="78.922009" y="129.322061" style="fill: #ffffff; stroke: #1f77b4"/>
     <use xlink:href="#m0f4ed1b11f" x="107.185696" y="143.386537" style="fill: #ffffff; stroke: #1f77b4"/>
     <use xlink:href="#m0f4ed1b11f" x="135.449382" y="186.872838" style="fill: #ffffff; stroke: #1f77b4"/>
     <use xlink:href="#m0f4ed1b11f" x="163.713069" y="200.937314" style="fill: #ffffff; stroke: #1f77b4"/>
     <use xlink:href="#m0f4ed1b11f" x="191.976756" y="217.474449" style="fill: #ffffff; stroke: #1f77b4"/>
    </g>
   </g>
   <g id="line2d_32">
    <defs>
     <path id="md96f487e60" d="M 0 2 
C 0.530406 2 1.03916 1.789267 1.414214 1.414214 
C 1.789267 1.03916 2 0.530406 2 0 
C 2 -0.530406 1.789267 -1.03916 1.414214 -1.414214 
C 1.03916 -1.789267 0.530406 -2 0 -2 
C -0.530406 -2 -1.03916 -1.789267 -1.414214 -1.414214 
C -1.789267 -1.03916 -2 -0.530406 -2 0 
C -2 0.530406 -1.789267 1.03916 -1.414214 1.414214 
C -1.03916 1.789267 -0.530406 2 0 2 
z
" style="stroke: #1f77b4"/>
    </defs>
    <g clip-path="url(#p6d4cd2bd48)">
     <use xlink:href="#md96f487e60" x="78.921981" y="119.492023" style="fill: #1f77b4; stroke: #1f77b4"/>
     <use xlink:href="#md96f487e60" x="107.185667" y="136.029158" style="fill: #1f77b4; stroke: #1f77b4"/>
     <use xlink:href="#md96f487e60" x="135.449354" y="150.093633" style="fill: #1f77b4; stroke: #1f77b4"/>
     <use xlink:href="#md96f487e60" x="163.713041" y="193.579935" style="fill: #1f77b4; stroke: #1f77b4"/>
     <use xlink:href="#md96f487e60" x="191.976727" y="207.64441" style="fill: #1f77b4; stroke: #1f77b4"/>
    </g>
   </g>
   <g id="patch_8">
    <path d="M 42.179188 317.008075 
L 42.179188 103.060007 
" style="fill: none; stroke: #000000; stroke-width: 0.8; stroke-linejoin: miter; stroke-linecap: square"/>
   </g>
   <g id="patch_9">
    <path d="M 228.71952 317.008075 
L 228.71952 103.060007 
" style="fill: none; stroke: #000000; stroke-width: 0.8; stroke-linejoin: miter; stroke-linecap: square"/>
   </g>
   <g id="patch_10">
    <path d="M 42.179188 317.008075 
L 228.71952 317.008075 
" style="fill: none; stroke: #000000; stroke-width: 0.8; stroke-linejoin: miter; stroke-linecap: square"/>
   </g>
   <g id="patch_11">
    <path d="M 42.179188 103.060007 
L 228.71952 103.060007 
" style="fill: none; stroke: #000000; stroke-width: 0.8; stroke-linejoin: miter; stroke-linecap: square"/>
   </g>
   <g id="legend_1">
    <g id="patch_12">
     <path d="M 176.989456 152.790056 
L 221.71952 152.790056 
Q 223.71952 152.790056 223.71952 150.790056 
L 223.71952 110.060007 
Q 223.71952 108.060007 221.71952 108.060007 
L 176.989456 108.060007 
Q 174.989456 108.060007 174.989456 110.060007 
L 174.989456 150.790056 
Q 174.989456 152.790056 176.989456 152.790056 
z
" style="fill: #ffffff; opacity: 0.8; stroke: #cccccc; stroke-linejoin: miter"/>
    </g>
    <g id="text_16">
     <!-- $\delta$ -->
     <g transform="translate(197.140569 118.978566) scale(0.1 -0.1)">
      <defs>
       <path id="LMMathItalic12-Regular-e" d="M 2400 1163 
C 2458 1380 2490 1604 2490 1815 
C 2490 1911 2483 2007 2470 2103 
C 2419 2403 2285 2659 2112 2889 
C 1830 3246 1446 3745 1446 4046 
C 1446 4089 1459 4127 1478 4159 
C 1510 4221 1555 4271 1619 4302 
C 1683 4333 1754 4346 1818 4346 
C 2106 4346 2298 4154 2541 4058 
C 2560 4052 2579 4052 2605 4052 
C 2682 4052 2771 4097 2810 4180 
C 2829 4212 2842 4250 2842 4275 
C 2842 4352 2790 4416 2720 4429 
C 2496 4480 2246 4544 2016 4544 
C 1952 4544 1888 4537 1830 4525 
C 1741 4512 1645 4486 1562 4429 
C 1478 4378 1408 4301 1363 4218 
C 1312 4122 1286 4007 1286 3892 
C 1286 3546 1485 3144 1670 2786 
C 1408 2729 1152 2588 934 2397 
C 621 2122 403 1757 314 1387 
C 282 1253 262 1119 262 991 
C 262 761 320 543 435 364 
C 602 102 883 -64 1242 -64 
C 1798 -64 2246 543 2400 1163 
z
M 2010 1042 
C 1888 568 1651 57 1242 57 
C 986 57 794 211 704 428 
C 653 543 634 677 634 812 
C 634 991 666 1176 710 1361 
C 794 1693 922 2033 1178 2314 
C 1338 2480 1530 2614 1734 2665 
L 1754 2633 
C 1875 2397 1990 2154 2048 1885 
C 2067 1783 2074 1674 2074 1566 
C 2074 1393 2054 1214 2010 1042 
z
" transform="scale(0.015625)"/>
      </defs>
      <use xlink:href="#LMMathItalic12-Regular-e" transform="scale(0.996264)"/>
     </g>
    </g>
    <g id="line2d_33">
     <path d="M 178.989456 129.41573 
L 188.989456 129.41573 
L 198.989456 129.41573 
" style="fill: none; stroke: #ff7f0e; stroke-linecap: square"/>
     <g>
      <use xlink:href="#mccfb8d95e4" x="188.989456" y="129.41573" style="fill: #ff7f0e; stroke: #ff7f0e"/>
     </g>
    </g>
    <g id="text_17">
     <!-- $1$ -->
     <g transform="translate(206.989456 132.91573) scale(0.1 -0.1)">
      <use xlink:href="#LMRoman17-Regular-31" transform="scale(0.996264)"/>
     </g>
    </g>
    <g id="line2d_34">
     <path d="M 178.989456 143.352893 
L 188.989456 143.352893 
L 198.989456 143.352893 
" style="fill: none; stroke: #1f77b4; stroke-linecap: square"/>
     <g>
      <use xlink:href="#md96f487e60" x="188.989456" y="143.352893" style="fill: #1f77b4; stroke: #1f77b4"/>
     </g>
    </g>
    <g id="text_18">
     <!-- $-1$ -->
     <g transform="translate(206.989456 146.852893) scale(0.1 -0.1)">
      <use xlink:href="#LMMathSymbols10-Regular-0" transform="scale(0.996264)"/>
      <use xlink:href="#LMRoman17-Regular-31" transform="translate(77.487468 0) scale(0.996264)"/>
     </g>
    </g>
   </g>
  </g>
 </g>
 <defs>
  <clipPath id="p69e5dd1539">
   <rect x="42.179188" y="0.72" width="186.540332" height="91.692029"/>
  </clipPath>
  <clipPath id="p6d4cd2bd48">
   <rect x="42.179188" y="103.060007" width="186.540332" height="213.948068"/>
  </clipPath>
 </defs>
</svg>
